M48
;Layer_Color=6321
;FILE_FORMAT=2:5
INCH,LZ
;TYPE=PLATED
T1F00S00C0.01500
T2F00S00C0.02500
T3F00S00C0.02800
T4F00S00C0.03000
T5F00S00C0.04000
%
T01
X0159Y01515
X0191Y0144
X0195Y0139
X02Y0135
X02095Y01345
X0218Y0137
X0233Y0134
X02615Y0156
X0339Y0134
X0347Y014
X03455Y0162
Y026
X04395
Y028
X0439Y01765
X03005Y0184
X0306Y01985
X03065Y0226
X02695
Y0198
X0239Y01995
Y01885
X0208Y0194
X0247Y016
X01695Y028
T02
X0329Y0279
X0339
X0349
X0359
X0369
X0379
T03
X02075Y0142
X0439Y01325
X0449
T04
X0296415Y0145
X03161
X0439Y0146158
Y0156
X0411Y0165
X0381
X03633Y0165015
Y01847
X03465Y01815
Y01715
X03365
X03265
X03165
Y01615
X03265
X03365
Y01815
Y01915
X03465
Y02015
X03365
Y02115
X03465
Y02215
X03365
Y02315
X03465
Y02415
X03365
Y02515
X03465
X03365Y02615
X03265
Y02515
X03165
Y02615
X0316685Y0278
X03633Y02267
Y02167
X0381Y0195
X0411
X03065Y01715
X02965
X02865
X02765
X02665
X02565
Y01815
Y01915
Y02015
Y02115
X02465
Y02015
Y01915
Y01815
Y01715
X02565Y01615
X02665
X02765
X02865
X02965
X03065
Y02515
Y02615
X02965
Y02515
X02865
Y02615
X02765
Y02515
X02665
Y02615
X02565
Y02515
X02465
Y02415
X02565
Y02315
X02465
Y02215
X02565
X0229Y0226315
X0218Y0224
Y0214
Y0204
Y0194
Y0184
Y0174
Y0164
X0188
Y0174
Y0184
Y0194
Y0204
Y0214
Y0224
Y0234
Y0244
Y0254
X0218
Y0244
Y0234
X0229Y0246
X0256515Y0278
X02762
X0297
X01768Y01837
Y0164015
T05
X0314Y0304
X0324
X0334
X0344
X0354
X0364
X0374
X0304
X0294
X0284
X0274
X0264
X0254
X0244
X0234
X0224
X0214
Y0314
X0224
X0234
X0244
X0254
X0264
X0274
X0284
X0294
X0304
X0314
X0324
X0334
X0344
X0354
X0364
X0374
M30
