G04 Layer_Physical_Order=2*
G04 Layer_Color=11436288*
%FSLAX25Y25*%
%MOIN*%
G70*
G01*
G75*
G04:AMPARAMS|DCode=10|XSize=60mil|YSize=275mil|CornerRadius=6mil|HoleSize=0mil|Usage=FLASHONLY|Rotation=0.000|XOffset=0mil|YOffset=0mil|HoleType=Round|Shape=RoundedRectangle|*
%AMROUNDEDRECTD10*
21,1,0.06000,0.26300,0,0,0.0*
21,1,0.04800,0.27500,0,0,0.0*
1,1,0.01200,0.02400,-0.13150*
1,1,0.01200,-0.02400,-0.13150*
1,1,0.01200,-0.02400,0.13150*
1,1,0.01200,0.02400,0.13150*
%
%ADD10ROUNDEDRECTD10*%
%ADD11C,0.01000*%
%ADD12C,0.03000*%
%ADD13C,0.07000*%
%ADD14C,0.05000*%
%ADD15R,0.05000X0.05000*%
%ADD16R,0.05000X0.05000*%
%ADD17C,0.03000*%
%ADD18R,0.02000X0.04000*%
%ADD19R,0.04000X0.02000*%
G36*
X239919Y204919D02*
X240415Y204587D01*
X241000Y204471D01*
X243844D01*
X243956Y204142D01*
X243984Y203971D01*
X243443Y203265D01*
X243090Y202414D01*
X242970Y201500D01*
X243090Y200586D01*
X243443Y199735D01*
X244004Y199004D01*
X244735Y198443D01*
X244863Y198390D01*
X244980Y197800D01*
X240919Y193738D01*
X240587Y193242D01*
X240471Y192657D01*
Y191054D01*
X240030Y190819D01*
X239976Y190855D01*
X239000Y191049D01*
X238024Y190855D01*
X237198Y190302D01*
X236984Y189982D01*
X218127D01*
X218094Y190482D01*
X218914Y190590D01*
X219765Y190943D01*
X220496Y191504D01*
X221057Y192235D01*
X221410Y193086D01*
X221530Y194000D01*
X221410Y194914D01*
X221057Y195765D01*
X220496Y196496D01*
X219765Y197057D01*
X218914Y197410D01*
X218453Y197471D01*
X218485Y197971D01*
X237015D01*
X237198Y197698D01*
X238024Y197145D01*
X239000Y196951D01*
X239976Y197145D01*
X240802Y197698D01*
X241355Y198524D01*
X241549Y199500D01*
X241355Y200476D01*
X240802Y201302D01*
X239976Y201855D01*
X239000Y202049D01*
X238024Y201855D01*
X237198Y201302D01*
X237015Y201029D01*
X220656D01*
X220544Y201358D01*
X220516Y201529D01*
X221057Y202235D01*
X221410Y203086D01*
X221530Y204000D01*
X221410Y204914D01*
X221057Y205765D01*
X220496Y206496D01*
X219878Y206971D01*
X220007Y207471D01*
X237367D01*
X239919Y204919D01*
D02*
G37*
G36*
X446451Y150944D02*
Y134927D01*
X445943Y134265D01*
X445590Y133414D01*
X445470Y132500D01*
X445590Y131586D01*
X445833Y131000D01*
X445524Y130500D01*
X442476D01*
X442167Y131000D01*
X442410Y131586D01*
X442464Y132000D01*
X435536D01*
X435590Y131586D01*
X435833Y131000D01*
X435524Y130500D01*
X180529D01*
Y138366D01*
X194633Y152471D01*
X196654D01*
X196846Y152009D01*
X191322Y146485D01*
X191000Y146549D01*
X190024Y146355D01*
X189198Y145802D01*
X188645Y144975D01*
X188451Y144000D01*
X188645Y143025D01*
X189198Y142198D01*
X190024Y141645D01*
X191000Y141451D01*
X191975Y141645D01*
X192802Y142198D01*
X193355Y143025D01*
X193549Y144000D01*
X193485Y144322D01*
X199634Y150471D01*
X203654D01*
X203846Y150009D01*
X195322Y141485D01*
X195000Y141549D01*
X194025Y141355D01*
X193198Y140802D01*
X192645Y139976D01*
X192451Y139000D01*
X192645Y138024D01*
X193198Y137198D01*
X194025Y136645D01*
X195000Y136451D01*
X195975Y136645D01*
X196802Y137198D01*
X197355Y138024D01*
X197549Y139000D01*
X197485Y139322D01*
X197971Y139808D01*
X198471Y139601D01*
Y136985D01*
X198198Y136802D01*
X197645Y135976D01*
X197451Y135000D01*
X197645Y134025D01*
X198198Y133198D01*
X199024Y132645D01*
X200000Y132451D01*
X200975Y132645D01*
X201802Y133198D01*
X202355Y134025D01*
X202549Y135000D01*
X202355Y135976D01*
X201802Y136802D01*
X201529Y136985D01*
Y139523D01*
X203574Y141568D01*
X204048Y141408D01*
X204090Y141086D01*
X204443Y140235D01*
X205004Y139504D01*
X205735Y138943D01*
X206586Y138590D01*
X207500Y138470D01*
X208414Y138590D01*
X209265Y138943D01*
X209928Y139451D01*
X216268D01*
X216420Y138951D01*
X216198Y138802D01*
X215645Y137976D01*
X215451Y137000D01*
X215645Y136024D01*
X216198Y135198D01*
X217024Y134645D01*
X218000Y134451D01*
X218975Y134645D01*
X219802Y135198D01*
X219985Y135471D01*
X230446D01*
X230681Y135030D01*
X230645Y134976D01*
X230451Y134000D01*
X230645Y133025D01*
X231198Y132198D01*
X232025Y131645D01*
X233000Y131451D01*
X233976Y131645D01*
X234802Y132198D01*
X234985Y132471D01*
X337015D01*
X337198Y132198D01*
X338024Y131645D01*
X339000Y131451D01*
X339976Y131645D01*
X340802Y132198D01*
X341355Y133025D01*
X341549Y134000D01*
X341355Y134976D01*
X340802Y135802D01*
X339976Y136355D01*
X339000Y136549D01*
X338024Y136355D01*
X337198Y135802D01*
X337015Y135529D01*
X336377D01*
X336329Y135592D01*
X336192Y136029D01*
X338633Y138471D01*
X345015D01*
X345198Y138198D01*
X346024Y137645D01*
X347000Y137451D01*
X347975Y137645D01*
X348802Y138198D01*
X349355Y139024D01*
X349549Y140000D01*
X349355Y140975D01*
X348802Y141802D01*
X347975Y142355D01*
X347000Y142549D01*
X346024Y142355D01*
X345198Y141802D01*
X345015Y141529D01*
X338000D01*
X337415Y141413D01*
X336919Y141081D01*
X334366Y138529D01*
X219985D01*
X219802Y138802D01*
X219580Y138951D01*
X219732Y139451D01*
X244500D01*
X245476Y139645D01*
X246302Y140198D01*
X248556Y142451D01*
X293987D01*
X294650Y141943D01*
X295501Y141590D01*
X296415Y141470D01*
X297329Y141590D01*
X298180Y141943D01*
X298842Y142451D01*
X304500D01*
X305475Y142645D01*
X306302Y143198D01*
X316556Y153451D01*
X435500D01*
Y152500D01*
X442500D01*
Y153451D01*
X443944D01*
X446451Y150944D01*
D02*
G37*
G36*
X456500Y130500D02*
X452476D01*
X452167Y131000D01*
X452410Y131586D01*
X452530Y132500D01*
X452410Y133414D01*
X452057Y134265D01*
X451549Y134927D01*
Y152000D01*
Y156000D01*
Y160000D01*
Y259000D01*
X451355Y259976D01*
X450802Y260802D01*
X440052Y271552D01*
X439225Y272105D01*
X438250Y272299D01*
X383056D01*
X381549Y273806D01*
Y275500D01*
X382500D01*
Y282500D01*
X375500D01*
Y275500D01*
X376451D01*
Y273806D01*
X374944Y272299D01*
X320991D01*
X319234Y274056D01*
Y275572D01*
X319742Y276235D01*
X320095Y277086D01*
X320215Y278000D01*
X320095Y278914D01*
X319742Y279765D01*
X319181Y280496D01*
X318450Y281057D01*
X317599Y281410D01*
X316685Y281530D01*
X315771Y281410D01*
X314920Y281057D01*
X314189Y280496D01*
X313628Y279765D01*
X313275Y278914D01*
X313155Y278000D01*
X313275Y277086D01*
X313628Y276235D01*
X314136Y275572D01*
Y274056D01*
X312379Y272299D01*
X273306D01*
X265802Y279802D01*
X264976Y280355D01*
X264000Y280549D01*
X258942D01*
X258280Y281057D01*
X257429Y281410D01*
X256515Y281530D01*
X255601Y281410D01*
X254750Y281057D01*
X254087Y280549D01*
X177000D01*
X176024Y280355D01*
X175198Y279802D01*
X166198Y270802D01*
X165645Y269975D01*
X165451Y269000D01*
Y169000D01*
X165645Y168025D01*
X166198Y167198D01*
X171183Y162213D01*
X172010Y161660D01*
X172985Y161466D01*
X174372D01*
X175035Y160958D01*
X175886Y160605D01*
X176800Y160485D01*
X177714Y160605D01*
X178565Y160958D01*
X179227Y161466D01*
X185553D01*
X186235Y160943D01*
X187086Y160590D01*
X188000Y160470D01*
X188914Y160590D01*
X189765Y160943D01*
X190496Y161504D01*
X191057Y162235D01*
X191410Y163086D01*
X191530Y164000D01*
X191410Y164914D01*
X191057Y165765D01*
X190496Y166496D01*
X189765Y167057D01*
X188914Y167410D01*
X188000Y167530D01*
X187086Y167410D01*
X186235Y167057D01*
X185592Y166564D01*
X179227D01*
X178565Y167072D01*
X177714Y167425D01*
X176800Y167545D01*
X175886Y167425D01*
X175035Y167072D01*
X174372Y166564D01*
X174041D01*
X170549Y170056D01*
Y267944D01*
X178056Y275451D01*
X230444D01*
X232951Y272944D01*
Y246634D01*
X232451Y246601D01*
X232410Y246914D01*
X232057Y247765D01*
X231496Y248496D01*
X230765Y249057D01*
X229914Y249410D01*
X229500Y249464D01*
Y246000D01*
Y242536D01*
X229914Y242590D01*
X230765Y242943D01*
X231496Y243504D01*
X232057Y244235D01*
X232410Y245086D01*
X232451Y245399D01*
X232951Y245366D01*
Y243871D01*
X227383Y238302D01*
X226830Y237475D01*
X226636Y236500D01*
Y228913D01*
X226504Y228811D01*
X225943Y228080D01*
X225590Y227229D01*
X225470Y226315D01*
X225590Y225401D01*
X225943Y224550D01*
X226504Y223819D01*
X227235Y223258D01*
X228086Y222905D01*
X229000Y222785D01*
X229914Y222905D01*
X230765Y223258D01*
X231496Y223819D01*
X231598Y223951D01*
X243404D01*
X243625Y223503D01*
X243443Y223265D01*
X243090Y222414D01*
X242970Y221500D01*
X243090Y220586D01*
X243443Y219735D01*
X244004Y219004D01*
X244735Y218443D01*
X245586Y218090D01*
X246500Y217970D01*
X247414Y218090D01*
X248265Y218443D01*
X248996Y219004D01*
X249557Y219735D01*
X249910Y220586D01*
X250030Y221500D01*
X249910Y222414D01*
X249557Y223265D01*
X249375Y223503D01*
X249596Y223951D01*
X250444D01*
X252981Y221414D01*
X253090Y220586D01*
X253443Y219735D01*
X254004Y219004D01*
X254735Y218443D01*
X255586Y218090D01*
X256500Y217970D01*
X257414Y218090D01*
X258265Y218443D01*
X258996Y219004D01*
X259557Y219735D01*
X259910Y220586D01*
X260030Y221500D01*
X259910Y222414D01*
X259557Y223265D01*
X258996Y223996D01*
X258265Y224557D01*
X257414Y224910D01*
X256586Y225019D01*
X253302Y228302D01*
X252476Y228855D01*
X251500Y229049D01*
X249596D01*
X249375Y229497D01*
X249557Y229735D01*
X249910Y230586D01*
X249964Y231000D01*
X243036D01*
X243090Y230586D01*
X243443Y229735D01*
X243625Y229497D01*
X243404Y229049D01*
X231734D01*
Y235444D01*
X237302Y241013D01*
X237855Y241840D01*
X238049Y242815D01*
Y272944D01*
X240556Y275451D01*
X253966D01*
Y263947D01*
X253443Y263265D01*
X253090Y262414D01*
X252970Y261500D01*
X253090Y260586D01*
X253443Y259735D01*
X254004Y259004D01*
X254735Y258443D01*
X255586Y258090D01*
X256500Y257970D01*
X257414Y258090D01*
X258265Y258443D01*
X258996Y259004D01*
X259557Y259735D01*
X259910Y260586D01*
X260030Y261500D01*
X259910Y262414D01*
X259557Y263265D01*
X259064Y263908D01*
Y275451D01*
X262944D01*
X270448Y267948D01*
X271274Y267395D01*
X272250Y267201D01*
X322694D01*
X323951Y265944D01*
Y263928D01*
X323443Y263265D01*
X323090Y262414D01*
X322970Y261500D01*
X323090Y260586D01*
X323443Y259735D01*
X324004Y259004D01*
X324735Y258443D01*
X325586Y258090D01*
X326500Y257970D01*
X327414Y258090D01*
X328265Y258443D01*
X328996Y259004D01*
X329557Y259735D01*
X329910Y260586D01*
X330030Y261500D01*
X329910Y262414D01*
X329557Y263265D01*
X329049Y263928D01*
Y265944D01*
X330306Y267201D01*
X437194D01*
X446451Y257944D01*
Y161056D01*
X443944Y158549D01*
X442500D01*
Y159500D01*
X435500D01*
Y158549D01*
X367856D01*
X365849Y160556D01*
Y162451D01*
X378573D01*
X379235Y161943D01*
X380086Y161590D01*
X381000Y161470D01*
X381914Y161590D01*
X382765Y161943D01*
X383496Y162504D01*
X384057Y163235D01*
X384410Y164086D01*
X384530Y165000D01*
X384410Y165914D01*
X384057Y166765D01*
X383496Y167496D01*
X382765Y168057D01*
X381914Y168410D01*
X381000Y168530D01*
X380086Y168410D01*
X379235Y168057D01*
X378573Y167549D01*
X365747D01*
X365065Y168072D01*
X364214Y168425D01*
X363300Y168545D01*
X362386Y168425D01*
X361535Y168072D01*
X360804Y167511D01*
X360243Y166780D01*
X359890Y165929D01*
X359770Y165015D01*
X359890Y164101D01*
X360243Y163250D01*
X360751Y162587D01*
Y160556D01*
X358744Y158549D01*
X339151D01*
X339105Y158682D01*
X339031Y159049D01*
X339557Y159735D01*
X339910Y160586D01*
X340030Y161500D01*
X339910Y162414D01*
X339557Y163265D01*
X338996Y163996D01*
X338265Y164557D01*
X337414Y164910D01*
X336500Y165030D01*
X335586Y164910D01*
X334735Y164557D01*
X334004Y163996D01*
X333443Y163265D01*
X333090Y162414D01*
X332970Y161500D01*
X333090Y160586D01*
X333443Y159735D01*
X333969Y159049D01*
X333895Y158682D01*
X333849Y158549D01*
X329151D01*
X329105Y158682D01*
X329031Y159049D01*
X329557Y159735D01*
X329910Y160586D01*
X330030Y161500D01*
X329910Y162414D01*
X329557Y163265D01*
X328996Y163996D01*
X328265Y164557D01*
X327414Y164910D01*
X326500Y165030D01*
X325586Y164910D01*
X324735Y164557D01*
X324004Y163996D01*
X323443Y163265D01*
X323090Y162414D01*
X322970Y161500D01*
X323090Y160586D01*
X323443Y159735D01*
X323969Y159049D01*
X323895Y158682D01*
X323849Y158549D01*
X319151D01*
X319105Y158682D01*
X319031Y159049D01*
X319557Y159735D01*
X319910Y160586D01*
X320030Y161500D01*
X319910Y162414D01*
X319557Y163265D01*
X318996Y163996D01*
X318265Y164557D01*
X317414Y164910D01*
X316500Y165030D01*
X315586Y164910D01*
X314735Y164557D01*
X314004Y163996D01*
X313443Y163265D01*
X313090Y162414D01*
X312970Y161500D01*
X313090Y160586D01*
X313443Y159735D01*
X314004Y159004D01*
X314295Y158780D01*
X314259Y158178D01*
X313698Y157802D01*
X303444Y147549D01*
X298964D01*
Y158979D01*
X298996Y159004D01*
X299557Y159735D01*
X299910Y160586D01*
X300030Y161500D01*
X299910Y162414D01*
X299557Y163265D01*
X298996Y163996D01*
X298265Y164557D01*
X297414Y164910D01*
X296500Y165030D01*
X295586Y164910D01*
X295351Y164812D01*
X293529Y166633D01*
Y168844D01*
X293858Y168956D01*
X294029Y168984D01*
X294735Y168443D01*
X295586Y168090D01*
X296500Y167970D01*
X297414Y168090D01*
X298265Y168443D01*
X298996Y169004D01*
X299557Y169735D01*
X299910Y170586D01*
X300030Y171500D01*
X299910Y172414D01*
X299557Y173265D01*
X298996Y173996D01*
X298265Y174557D01*
X297414Y174910D01*
X296500Y175030D01*
X295586Y174910D01*
X294735Y174557D01*
X294029Y174016D01*
X293858Y174044D01*
X293529Y174156D01*
Y184367D01*
X298634Y189471D01*
X307500D01*
Y189000D01*
Y185500D01*
Y182000D01*
X313500D01*
Y182645D01*
X313682Y182764D01*
X314000Y182837D01*
X317419Y179419D01*
X317915Y179087D01*
X318500Y178971D01*
X321866D01*
X324971Y175866D01*
Y174655D01*
X324735Y174557D01*
X324004Y173996D01*
X323443Y173265D01*
X323090Y172414D01*
X322970Y171500D01*
X323090Y170586D01*
X323443Y169735D01*
X324004Y169004D01*
X324735Y168443D01*
X325586Y168090D01*
X326500Y167970D01*
X327414Y168090D01*
X328265Y168443D01*
X328996Y169004D01*
X329557Y169735D01*
X329910Y170586D01*
X330030Y171500D01*
X329910Y172414D01*
X329557Y173265D01*
X328996Y173996D01*
X328265Y174557D01*
X328029Y174655D01*
Y176500D01*
X327932Y176988D01*
X327913Y177085D01*
X327581Y177581D01*
X323615Y181548D01*
X323500Y182000D01*
X323500Y182000D01*
X323500D01*
X323500Y182000D01*
Y183500D01*
X320500D01*
Y184500D01*
X323500D01*
Y185471D01*
X336015D01*
X336047Y184971D01*
X335586Y184910D01*
X334735Y184557D01*
X334004Y183996D01*
X333443Y183265D01*
X333090Y182414D01*
X333036Y182000D01*
X336500D01*
Y181500D01*
X337000D01*
Y178036D01*
X337414Y178090D01*
X338265Y178443D01*
X338996Y179004D01*
X339471Y179622D01*
X339971Y179493D01*
Y176500D01*
X340087Y175915D01*
X340419Y175419D01*
X343188Y172649D01*
X343090Y172414D01*
X342970Y171500D01*
X343090Y170586D01*
X343443Y169735D01*
X344004Y169004D01*
X344735Y168443D01*
X345586Y168090D01*
X346500Y167970D01*
X347414Y168090D01*
X348265Y168443D01*
X348996Y169004D01*
X349557Y169735D01*
X349910Y170586D01*
X350030Y171500D01*
X349910Y172414D01*
X349557Y173265D01*
X348996Y173996D01*
X348265Y174557D01*
X347414Y174910D01*
X346500Y175030D01*
X345586Y174910D01*
X345351Y174812D01*
X343029Y177134D01*
Y179493D01*
X343529Y179622D01*
X344004Y179004D01*
X344735Y178443D01*
X345586Y178090D01*
X346500Y177970D01*
X347414Y178090D01*
X348265Y178443D01*
X348996Y179004D01*
X349557Y179735D01*
X349910Y180586D01*
X350030Y181500D01*
X349910Y182414D01*
X349557Y183265D01*
X348996Y183996D01*
X348265Y184557D01*
X347414Y184910D01*
X346500Y185030D01*
X345586Y184910D01*
X344735Y184557D01*
X344004Y183996D01*
X343529Y183378D01*
X343029Y183507D01*
Y185000D01*
X342913Y185585D01*
X342581Y186081D01*
X340581Y188081D01*
X340085Y188413D01*
X339500Y188529D01*
X339156D01*
X339044Y188858D01*
X339016Y189029D01*
X339557Y189735D01*
X339910Y190586D01*
X340030Y191500D01*
X339910Y192414D01*
X339557Y193265D01*
X338996Y193996D01*
X338265Y194557D01*
X337414Y194910D01*
X336500Y195030D01*
X335586Y194910D01*
X334735Y194557D01*
X334004Y193996D01*
X333443Y193265D01*
X333090Y192414D01*
X332970Y191500D01*
X333090Y190586D01*
X333443Y189735D01*
X333984Y189029D01*
X333956Y188858D01*
X333844Y188529D01*
X323500D01*
Y189000D01*
Y193000D01*
X317500D01*
Y192529D01*
X313500D01*
Y193000D01*
X307500D01*
Y192529D01*
X298000D01*
X297415Y192413D01*
X296919Y192081D01*
X290919Y186081D01*
X290587Y185585D01*
X290471Y185000D01*
Y171985D01*
X289971Y171953D01*
X289910Y172414D01*
X289557Y173265D01*
X288996Y173996D01*
X288265Y174557D01*
X287414Y174910D01*
X286500Y175030D01*
X285586Y174910D01*
X284735Y174557D01*
X284004Y173996D01*
X283443Y173265D01*
X283090Y172414D01*
X282970Y171500D01*
X283090Y170586D01*
X283443Y169735D01*
X284004Y169004D01*
X284735Y168443D01*
X285586Y168090D01*
X286500Y167970D01*
X287414Y168090D01*
X288265Y168443D01*
X288996Y169004D01*
X289557Y169735D01*
X289910Y170586D01*
X289971Y171047D01*
X290471Y171015D01*
Y166000D01*
X290587Y165415D01*
X290919Y164919D01*
X293188Y162649D01*
X293090Y162414D01*
X292970Y161500D01*
X293090Y160586D01*
X293443Y159735D01*
X293866Y159183D01*
Y147549D01*
X247500D01*
X246525Y147355D01*
X245698Y146802D01*
X243444Y144549D01*
X209928D01*
X209265Y145057D01*
X208414Y145410D01*
X208092Y145452D01*
X207932Y145926D01*
X208477Y146471D01*
X243485D01*
X244071Y146587D01*
X244567Y146919D01*
X255721Y158072D01*
X256500Y157970D01*
X257414Y158090D01*
X258265Y158443D01*
X258996Y159004D01*
X259557Y159735D01*
X259910Y160586D01*
X260030Y161500D01*
X259910Y162414D01*
X259557Y163265D01*
X258996Y163996D01*
X258265Y164557D01*
X257414Y164910D01*
X256500Y165030D01*
X255586Y164910D01*
X254735Y164557D01*
X254478Y164360D01*
X254029Y164581D01*
Y168419D01*
X254478Y168640D01*
X254735Y168443D01*
X255586Y168090D01*
X256500Y167970D01*
X257414Y168090D01*
X258265Y168443D01*
X258996Y169004D01*
X259557Y169735D01*
X259910Y170586D01*
X260030Y171500D01*
X259910Y172414D01*
X259557Y173265D01*
X258996Y173996D01*
X258265Y174557D01*
X257414Y174910D01*
X256500Y175030D01*
X255586Y174910D01*
X254735Y174557D01*
X254478Y174360D01*
X254029Y174581D01*
Y176866D01*
X255351Y178188D01*
X255586Y178090D01*
X256500Y177970D01*
X257414Y178090D01*
X258265Y178443D01*
X258996Y179004D01*
X259557Y179735D01*
X259910Y180586D01*
X260030Y181500D01*
X259910Y182414D01*
X259557Y183265D01*
X258996Y183996D01*
X258265Y184557D01*
X257414Y184910D01*
X256500Y185030D01*
X255586Y184910D01*
X254735Y184557D01*
X254004Y183996D01*
X253443Y183265D01*
X253090Y182414D01*
X252970Y181500D01*
X253090Y180586D01*
X253188Y180351D01*
X252491Y179654D01*
X252029Y179846D01*
Y187500D01*
X251932Y187988D01*
X251913Y188085D01*
X251581Y188581D01*
X249812Y190351D01*
X249910Y190586D01*
X250030Y191500D01*
X249910Y192414D01*
X249557Y193265D01*
X248996Y193996D01*
X248265Y194557D01*
X247602Y194832D01*
X247407Y195293D01*
X247405Y195415D01*
X247445Y195471D01*
X252000D01*
X252585Y195587D01*
X253081Y195919D01*
X255351Y198188D01*
X255586Y198090D01*
X256500Y197970D01*
X257414Y198090D01*
X258265Y198443D01*
X258996Y199004D01*
X259557Y199735D01*
X259910Y200586D01*
X260030Y201500D01*
X259910Y202414D01*
X259557Y203265D01*
X259251Y203664D01*
X259249Y203673D01*
X259462Y204210D01*
X259603Y204234D01*
X262471Y201366D01*
Y194633D01*
X260866Y193029D01*
X259655D01*
X259557Y193265D01*
X258996Y193996D01*
X258265Y194557D01*
X257414Y194910D01*
X256500Y195030D01*
X255586Y194910D01*
X254735Y194557D01*
X254004Y193996D01*
X253443Y193265D01*
X253090Y192414D01*
X252970Y191500D01*
X253090Y190586D01*
X253443Y189735D01*
X254004Y189004D01*
X254735Y188443D01*
X255586Y188090D01*
X256500Y187970D01*
X257414Y188090D01*
X258265Y188443D01*
X258996Y189004D01*
X259557Y189735D01*
X259655Y189971D01*
X261500D01*
X262085Y190087D01*
X262581Y190419D01*
X265081Y192919D01*
X265413Y193415D01*
X265432Y193512D01*
X265529Y194000D01*
Y202000D01*
X265432Y202488D01*
X265413Y202585D01*
X265081Y203081D01*
X261081Y207081D01*
X260585Y207413D01*
X260000Y207529D01*
X256985D01*
X256953Y208029D01*
X257414Y208090D01*
X258265Y208443D01*
X258996Y209004D01*
X259557Y209735D01*
X259910Y210586D01*
X260030Y211500D01*
X259910Y212414D01*
X259557Y213265D01*
X258996Y213996D01*
X258265Y214557D01*
X257414Y214910D01*
X256500Y215030D01*
X255586Y214910D01*
X254735Y214557D01*
X254004Y213996D01*
X253443Y213265D01*
X253090Y212414D01*
X252970Y211500D01*
X253090Y210586D01*
X253443Y209735D01*
X254004Y209004D01*
X254735Y208443D01*
X255586Y208090D01*
X256047Y208029D01*
X256015Y207529D01*
X250071D01*
X250000Y208000D01*
X250000Y208029D01*
Y215000D01*
X243000D01*
Y208029D01*
X243000Y208000D01*
X242929Y207529D01*
X241634D01*
X239081Y210081D01*
X238585Y210413D01*
X238000Y210529D01*
X220007D01*
X219878Y211029D01*
X220496Y211504D01*
X221057Y212235D01*
X221410Y213086D01*
X221530Y214000D01*
X221410Y214914D01*
X221057Y215765D01*
X220496Y216496D01*
X219765Y217057D01*
X218914Y217410D01*
X218000Y217530D01*
X217086Y217410D01*
X216235Y217057D01*
X215504Y216496D01*
X214943Y215765D01*
X214590Y214914D01*
X214470Y214000D01*
X214590Y213086D01*
X214943Y212235D01*
X215504Y211504D01*
X216122Y211029D01*
X215993Y210529D01*
X201634D01*
X197081Y215081D01*
X196585Y215413D01*
X196000Y215529D01*
X191155D01*
X191057Y215765D01*
X190496Y216496D01*
X189765Y217057D01*
X188914Y217410D01*
X188000Y217530D01*
X187086Y217410D01*
X186235Y217057D01*
X185504Y216496D01*
X184943Y215765D01*
X184590Y214914D01*
X184470Y214000D01*
X184590Y213086D01*
X184943Y212235D01*
X185504Y211504D01*
X186235Y210943D01*
X187086Y210590D01*
X188000Y210470D01*
X188914Y210590D01*
X189765Y210943D01*
X190496Y211504D01*
X191057Y212235D01*
X191155Y212471D01*
X195367D01*
X199919Y207919D01*
X200415Y207587D01*
X201000Y207471D01*
X215993D01*
X216122Y206971D01*
X215504Y206496D01*
X214943Y205765D01*
X214590Y204914D01*
X214470Y204000D01*
X214590Y203086D01*
X214943Y202235D01*
X215484Y201529D01*
X215456Y201358D01*
X215344Y201029D01*
X204134D01*
X200081Y205081D01*
X199585Y205413D01*
X199000Y205529D01*
X191155D01*
X191057Y205765D01*
X190496Y206496D01*
X189765Y207057D01*
X188914Y207410D01*
X188000Y207530D01*
X187086Y207410D01*
X186235Y207057D01*
X185504Y206496D01*
X184943Y205765D01*
X184590Y204914D01*
X184470Y204000D01*
X184590Y203086D01*
X184943Y202235D01*
X185504Y201504D01*
X186235Y200943D01*
X187086Y200590D01*
X188000Y200470D01*
X188914Y200590D01*
X189765Y200943D01*
X190496Y201504D01*
X191057Y202235D01*
X191155Y202471D01*
X198366D01*
X202419Y198419D01*
X202915Y198087D01*
X203500Y197971D01*
X217515D01*
X217547Y197471D01*
X217086Y197410D01*
X216235Y197057D01*
X215504Y196496D01*
X214943Y195765D01*
X214590Y194914D01*
X214470Y194000D01*
X214590Y193086D01*
X214943Y192235D01*
X215504Y191504D01*
X216235Y190943D01*
X217086Y190590D01*
X217906Y190482D01*
X217873Y189982D01*
X208453D01*
X207868Y189866D01*
X207371Y189534D01*
X204919Y187081D01*
X204587Y186585D01*
X204471Y186000D01*
Y177634D01*
X202366Y175529D01*
X191155D01*
X191057Y175765D01*
X190496Y176496D01*
X189765Y177057D01*
X188914Y177410D01*
X188000Y177530D01*
X187086Y177410D01*
X186235Y177057D01*
X185504Y176496D01*
X184943Y175765D01*
X184590Y174914D01*
X184470Y174000D01*
X184590Y173086D01*
X184943Y172235D01*
X185504Y171504D01*
X186235Y170943D01*
X187086Y170590D01*
X188000Y170470D01*
X188914Y170590D01*
X189765Y170943D01*
X190496Y171504D01*
X191057Y172235D01*
X191155Y172471D01*
X203000D01*
X203585Y172587D01*
X204081Y172919D01*
X207081Y175919D01*
X207413Y176415D01*
X207529Y177000D01*
Y185366D01*
X209086Y186923D01*
X215320D01*
X215448Y186423D01*
X214943Y185765D01*
X214590Y184914D01*
X214470Y184000D01*
X214590Y183086D01*
X214943Y182235D01*
X215504Y181504D01*
X216235Y180943D01*
X217086Y180590D01*
X218000Y180470D01*
X218914Y180590D01*
X219765Y180943D01*
X220496Y181504D01*
X221057Y182235D01*
X221410Y183086D01*
X221530Y184000D01*
X221410Y184914D01*
X221057Y185765D01*
X220552Y186423D01*
X220680Y186923D01*
X237047D01*
X237198Y186698D01*
X238024Y186145D01*
X239000Y185951D01*
X239976Y186145D01*
X240030Y186181D01*
X240471Y185946D01*
Y163634D01*
X234366Y157529D01*
X186000D01*
X185415Y157413D01*
X184919Y157081D01*
X167919Y140081D01*
X167587Y139585D01*
X167471Y139000D01*
Y130500D01*
X160529D01*
Y149515D01*
X160802Y149698D01*
X161355Y150524D01*
X161549Y151500D01*
X161355Y152476D01*
X160802Y153302D01*
X159976Y153855D01*
X159000Y154049D01*
X158025Y153855D01*
X157198Y153302D01*
X156645Y152476D01*
X156451Y151500D01*
X156645Y150524D01*
X157198Y149698D01*
X157471Y149515D01*
Y130500D01*
X141500D01*
Y325500D01*
X456500D01*
Y130500D01*
D02*
G37*
G36*
X191846Y154009D02*
X177919Y140081D01*
X177587Y139585D01*
X177471Y139000D01*
Y130500D01*
X170529D01*
Y138366D01*
X186634Y154471D01*
X191654D01*
X191846Y154009D01*
D02*
G37*
%LPC*%
G36*
X306500Y200950D02*
Y199000D01*
X308450D01*
X308355Y199476D01*
X307802Y200302D01*
X306976Y200855D01*
X306500Y200950D01*
D02*
G37*
G36*
X336000Y211000D02*
X333036D01*
X333090Y210586D01*
X333443Y209735D01*
X334004Y209004D01*
X334735Y208443D01*
X335586Y208090D01*
X336000Y208036D01*
Y211000D01*
D02*
G37*
G36*
X339964D02*
X337000D01*
Y208036D01*
X337414Y208090D01*
X338265Y208443D01*
X338996Y209004D01*
X339557Y209735D01*
X339910Y210586D01*
X339964Y211000D01*
D02*
G37*
G36*
X305500Y200950D02*
X305025Y200855D01*
X304198Y200302D01*
X303645Y199476D01*
X303551Y199000D01*
X305500D01*
Y200950D01*
D02*
G37*
G36*
X346500Y205030D02*
X345586Y204910D01*
X344735Y204557D01*
X344004Y203996D01*
X343443Y203265D01*
X343090Y202414D01*
X342970Y201500D01*
X343090Y200586D01*
X343443Y199735D01*
X344004Y199004D01*
X344735Y198443D01*
X345586Y198090D01*
X346500Y197970D01*
X347414Y198090D01*
X348265Y198443D01*
X348996Y199004D01*
X349557Y199735D01*
X349910Y200586D01*
X350030Y201500D01*
X349910Y202414D01*
X349557Y203265D01*
X348996Y203996D01*
X348265Y204557D01*
X347414Y204910D01*
X346500Y205030D01*
D02*
G37*
G36*
X269000Y200449D02*
X268525Y200355D01*
X267698Y199802D01*
X267145Y198976D01*
X267051Y198500D01*
X269000D01*
Y200449D01*
D02*
G37*
G36*
X270000D02*
Y198500D01*
X271950D01*
X271855Y198976D01*
X271302Y199802D01*
X270476Y200355D01*
X270000Y200449D01*
D02*
G37*
G36*
X346000Y214964D02*
X345586Y214910D01*
X344735Y214557D01*
X344004Y213996D01*
X343443Y213265D01*
X343090Y212414D01*
X343036Y212000D01*
X346000D01*
Y214964D01*
D02*
G37*
G36*
X347000D02*
Y212000D01*
X349964D01*
X349910Y212414D01*
X349557Y213265D01*
X348996Y213996D01*
X348265Y214557D01*
X347414Y214910D01*
X347000Y214964D01*
D02*
G37*
G36*
X363300Y220230D02*
X362386Y220110D01*
X361535Y219757D01*
X360804Y219196D01*
X360243Y218465D01*
X359890Y217614D01*
X359770Y216700D01*
X359890Y215786D01*
X360243Y214935D01*
X360804Y214204D01*
X361535Y213643D01*
X362386Y213290D01*
X363300Y213170D01*
X364214Y213290D01*
X365065Y213643D01*
X365796Y214204D01*
X366357Y214935D01*
X366710Y215786D01*
X366830Y216700D01*
X366710Y217614D01*
X366357Y218465D01*
X365796Y219196D01*
X365065Y219757D01*
X364214Y220110D01*
X363300Y220230D01*
D02*
G37*
G36*
X337000Y214964D02*
Y212000D01*
X339964D01*
X339910Y212414D01*
X339557Y213265D01*
X338996Y213996D01*
X338265Y214557D01*
X337414Y214910D01*
X337000Y214964D01*
D02*
G37*
G36*
X346000Y211000D02*
X343036D01*
X343090Y210586D01*
X343443Y209735D01*
X344004Y209004D01*
X344735Y208443D01*
X345586Y208090D01*
X346000Y208036D01*
Y211000D01*
D02*
G37*
G36*
X349964D02*
X347000D01*
Y208036D01*
X347414Y208090D01*
X348265Y208443D01*
X348996Y209004D01*
X349557Y209735D01*
X349910Y210586D01*
X349964Y211000D01*
D02*
G37*
G36*
X336000Y214964D02*
X335586Y214910D01*
X334735Y214557D01*
X334004Y213996D01*
X333443Y213265D01*
X333090Y212414D01*
X333036Y212000D01*
X336000D01*
Y214964D01*
D02*
G37*
G36*
X414464Y194500D02*
X411500D01*
Y191536D01*
X411914Y191590D01*
X412765Y191943D01*
X413496Y192504D01*
X414057Y193235D01*
X414410Y194086D01*
X414464Y194500D01*
D02*
G37*
G36*
X410500Y198464D02*
X410086Y198410D01*
X409235Y198057D01*
X408504Y197496D01*
X407943Y196765D01*
X407590Y195914D01*
X407536Y195500D01*
X410500D01*
Y198464D01*
D02*
G37*
G36*
X411500D02*
Y195500D01*
X414464D01*
X414410Y195914D01*
X414057Y196765D01*
X413496Y197496D01*
X412765Y198057D01*
X411914Y198410D01*
X411500Y198464D01*
D02*
G37*
G36*
X410500Y194500D02*
X407536D01*
X407590Y194086D01*
X407943Y193235D01*
X408504Y192504D01*
X409235Y191943D01*
X410086Y191590D01*
X410500Y191536D01*
Y194500D01*
D02*
G37*
G36*
X346500Y195030D02*
X345586Y194910D01*
X344735Y194557D01*
X344004Y193996D01*
X343443Y193265D01*
X343090Y192414D01*
X342970Y191500D01*
X343090Y190586D01*
X343443Y189735D01*
X344004Y189004D01*
X344735Y188443D01*
X345586Y188090D01*
X346500Y187970D01*
X347414Y188090D01*
X348265Y188443D01*
X348996Y189004D01*
X349557Y189735D01*
X349910Y190586D01*
X350030Y191500D01*
X349910Y192414D01*
X349557Y193265D01*
X348996Y193996D01*
X348265Y194557D01*
X347414Y194910D01*
X346500Y195030D01*
D02*
G37*
G36*
X188000Y197530D02*
X187086Y197410D01*
X186235Y197057D01*
X185504Y196496D01*
X184943Y195765D01*
X184590Y194914D01*
X184470Y194000D01*
X184590Y193086D01*
X184943Y192235D01*
X185504Y191504D01*
X186235Y190943D01*
X187086Y190590D01*
X188000Y190470D01*
X188914Y190590D01*
X189765Y190943D01*
X190496Y191504D01*
X191057Y192235D01*
X191155Y192471D01*
X199000D01*
Y191000D01*
X206500D01*
Y191465D01*
X206941Y191701D01*
X207025Y191645D01*
X208000Y191451D01*
X208976Y191645D01*
X209802Y192198D01*
X210355Y193025D01*
X210549Y194000D01*
X210355Y194975D01*
X209802Y195802D01*
X208976Y196355D01*
X208000Y196549D01*
X207025Y196355D01*
X206941Y196299D01*
X206500Y196535D01*
Y197000D01*
X199000D01*
Y195529D01*
X191155D01*
X191057Y195765D01*
X190496Y196496D01*
X189765Y197057D01*
X188914Y197410D01*
X188000Y197530D01*
D02*
G37*
G36*
X381000Y198530D02*
X380086Y198410D01*
X379235Y198057D01*
X378504Y197496D01*
X377943Y196765D01*
X377590Y195914D01*
X377470Y195000D01*
X377590Y194086D01*
X377943Y193235D01*
X378504Y192504D01*
X379235Y191943D01*
X380086Y191590D01*
X381000Y191470D01*
X381914Y191590D01*
X382765Y191943D01*
X383496Y192504D01*
X384057Y193235D01*
X384410Y194086D01*
X384530Y195000D01*
X384410Y195914D01*
X384057Y196765D01*
X383496Y197496D01*
X382765Y198057D01*
X381914Y198410D01*
X381000Y198530D01*
D02*
G37*
G36*
X363800Y188164D02*
Y185200D01*
X366764D01*
X366710Y185614D01*
X366357Y186465D01*
X365796Y187196D01*
X365065Y187757D01*
X364214Y188110D01*
X363800Y188164D01*
D02*
G37*
G36*
X362800D02*
X362386Y188110D01*
X361535Y187757D01*
X360804Y187196D01*
X360243Y186465D01*
X359890Y185614D01*
X359836Y185200D01*
X362800D01*
Y188164D01*
D02*
G37*
G36*
X336500Y205030D02*
X335586Y204910D01*
X334735Y204557D01*
X334004Y203996D01*
X333443Y203265D01*
X333090Y202414D01*
X332970Y201500D01*
X333090Y200586D01*
X333443Y199735D01*
X334004Y199004D01*
X334735Y198443D01*
X335586Y198090D01*
X336500Y197970D01*
X337414Y198090D01*
X338265Y198443D01*
X338996Y199004D01*
X339557Y199735D01*
X339910Y200586D01*
X340030Y201500D01*
X339910Y202414D01*
X339557Y203265D01*
X338996Y203996D01*
X338265Y204557D01*
X337414Y204910D01*
X336500Y205030D01*
D02*
G37*
G36*
X308450Y198000D02*
X306500D01*
Y196051D01*
X306976Y196145D01*
X307802Y196698D01*
X308355Y197524D01*
X308450Y198000D01*
D02*
G37*
G36*
X269000Y197500D02*
X267051D01*
X267145Y197025D01*
X267698Y196198D01*
X268525Y195645D01*
X269000Y195551D01*
Y197500D01*
D02*
G37*
G36*
X271950D02*
X270000D01*
Y195551D01*
X270476Y195645D01*
X271302Y196198D01*
X271855Y197025D01*
X271950Y197500D01*
D02*
G37*
G36*
X305500Y198000D02*
X303551D01*
X303645Y197524D01*
X304198Y196698D01*
X305025Y196145D01*
X305500Y196051D01*
Y198000D01*
D02*
G37*
G36*
X336500Y245030D02*
X335586Y244910D01*
X334735Y244557D01*
X334004Y243996D01*
X333443Y243265D01*
X333090Y242414D01*
X332970Y241500D01*
X333090Y240586D01*
X333443Y239735D01*
X334004Y239004D01*
X334735Y238443D01*
X335586Y238090D01*
X336500Y237970D01*
X337414Y238090D01*
X338265Y238443D01*
X338996Y239004D01*
X339557Y239735D01*
X339910Y240586D01*
X340030Y241500D01*
X339910Y242414D01*
X339557Y243265D01*
X338996Y243996D01*
X338265Y244557D01*
X337414Y244910D01*
X336500Y245030D01*
D02*
G37*
G36*
X346500D02*
X345586Y244910D01*
X344735Y244557D01*
X344004Y243996D01*
X343443Y243265D01*
X343090Y242414D01*
X342970Y241500D01*
X343090Y240586D01*
X343443Y239735D01*
X344004Y239004D01*
X344735Y238443D01*
X345586Y238090D01*
X346500Y237970D01*
X347414Y238090D01*
X348265Y238443D01*
X348996Y239004D01*
X349557Y239735D01*
X349910Y240586D01*
X350030Y241500D01*
X349910Y242414D01*
X349557Y243265D01*
X348996Y243996D01*
X348265Y244557D01*
X347414Y244910D01*
X346500Y245030D01*
D02*
G37*
G36*
X188000Y247530D02*
X187086Y247410D01*
X186235Y247057D01*
X185504Y246496D01*
X184943Y245765D01*
X184590Y244914D01*
X184470Y244000D01*
X184590Y243086D01*
X184943Y242235D01*
X185504Y241504D01*
X186235Y240943D01*
X187086Y240590D01*
X188000Y240470D01*
X188914Y240590D01*
X189765Y240943D01*
X190496Y241504D01*
X191057Y242235D01*
X191410Y243086D01*
X191530Y244000D01*
X191410Y244914D01*
X191057Y245765D01*
X190496Y246496D01*
X189765Y247057D01*
X188914Y247410D01*
X188000Y247530D01*
D02*
G37*
G36*
X256500Y245030D02*
X255586Y244910D01*
X254735Y244557D01*
X254004Y243996D01*
X253443Y243265D01*
X253090Y242414D01*
X252970Y241500D01*
X253090Y240586D01*
X253443Y239735D01*
X254004Y239004D01*
X254735Y238443D01*
X255586Y238090D01*
X256500Y237970D01*
X257414Y238090D01*
X258265Y238443D01*
X258996Y239004D01*
X259557Y239735D01*
X259910Y240586D01*
X260030Y241500D01*
X259910Y242414D01*
X259557Y243265D01*
X258996Y243996D01*
X258265Y244557D01*
X257414Y244910D01*
X256500Y245030D01*
D02*
G37*
G36*
X246000Y234964D02*
X245586Y234910D01*
X244735Y234557D01*
X244004Y233996D01*
X243443Y233265D01*
X243090Y232414D01*
X243036Y232000D01*
X246000D01*
Y234964D01*
D02*
G37*
G36*
X247000D02*
Y232000D01*
X249964D01*
X249910Y232414D01*
X249557Y233265D01*
X248996Y233996D01*
X248265Y234557D01*
X247414Y234910D01*
X247000Y234964D01*
D02*
G37*
G36*
X246500Y245030D02*
X245586Y244910D01*
X244735Y244557D01*
X244004Y243996D01*
X243443Y243265D01*
X243090Y242414D01*
X242970Y241500D01*
X243090Y240586D01*
X243443Y239735D01*
X244004Y239004D01*
X244735Y238443D01*
X245586Y238090D01*
X246500Y237970D01*
X247414Y238090D01*
X248265Y238443D01*
X248996Y239004D01*
X249557Y239735D01*
X249910Y240586D01*
X250030Y241500D01*
X249910Y242414D01*
X249557Y243265D01*
X248996Y243996D01*
X248265Y244557D01*
X247414Y244910D01*
X246500Y245030D01*
D02*
G37*
G36*
X256500Y255030D02*
X255586Y254910D01*
X254735Y254557D01*
X254004Y253996D01*
X253443Y253265D01*
X253090Y252414D01*
X252970Y251500D01*
X253090Y250586D01*
X253443Y249735D01*
X254004Y249004D01*
X254735Y248443D01*
X255586Y248090D01*
X256500Y247970D01*
X257414Y248090D01*
X258265Y248443D01*
X258996Y249004D01*
X259557Y249735D01*
X259910Y250586D01*
X260030Y251500D01*
X259910Y252414D01*
X259557Y253265D01*
X258996Y253996D01*
X258265Y254557D01*
X257414Y254910D01*
X256500Y255030D01*
D02*
G37*
G36*
X276500D02*
X275586Y254910D01*
X274735Y254557D01*
X274004Y253996D01*
X273443Y253265D01*
X273090Y252414D01*
X272970Y251500D01*
X273090Y250586D01*
X273443Y249735D01*
X274004Y249004D01*
X274735Y248443D01*
X275586Y248090D01*
X276500Y247970D01*
X277414Y248090D01*
X278265Y248443D01*
X278996Y249004D01*
X279557Y249735D01*
X279910Y250586D01*
X280030Y251500D01*
X279910Y252414D01*
X279557Y253265D01*
X278996Y253996D01*
X278265Y254557D01*
X277414Y254910D01*
X276500Y255030D01*
D02*
G37*
G36*
X286500D02*
X285586Y254910D01*
X284735Y254557D01*
X284004Y253996D01*
X283443Y253265D01*
X283090Y252414D01*
X282970Y251500D01*
X283090Y250586D01*
X283443Y249735D01*
X284004Y249004D01*
X284735Y248443D01*
X285586Y248090D01*
X286500Y247970D01*
X287414Y248090D01*
X288265Y248443D01*
X288996Y249004D01*
X289557Y249735D01*
X289910Y250586D01*
X290030Y251500D01*
X289910Y252414D01*
X289557Y253265D01*
X288996Y253996D01*
X288265Y254557D01*
X287414Y254910D01*
X286500Y255030D01*
D02*
G37*
G36*
X246500D02*
X245586Y254910D01*
X244735Y254557D01*
X244004Y253996D01*
X243443Y253265D01*
X243090Y252414D01*
X242970Y251500D01*
X243090Y250586D01*
X243443Y249735D01*
X244004Y249004D01*
X244735Y248443D01*
X245586Y248090D01*
X246500Y247970D01*
X247414Y248090D01*
X248265Y248443D01*
X248996Y249004D01*
X249557Y249735D01*
X249910Y250586D01*
X250030Y251500D01*
X249910Y252414D01*
X249557Y253265D01*
X248996Y253996D01*
X248265Y254557D01*
X247414Y254910D01*
X246500Y255030D01*
D02*
G37*
G36*
X218000Y247530D02*
X217086Y247410D01*
X216235Y247057D01*
X215504Y246496D01*
X214943Y245765D01*
X214590Y244914D01*
X214470Y244000D01*
X214590Y243086D01*
X214943Y242235D01*
X215504Y241504D01*
X216235Y240943D01*
X217086Y240590D01*
X218000Y240470D01*
X218914Y240590D01*
X219765Y240943D01*
X220496Y241504D01*
X221057Y242235D01*
X221410Y243086D01*
X221530Y244000D01*
X221410Y244914D01*
X221057Y245765D01*
X220496Y246496D01*
X219765Y247057D01*
X218914Y247410D01*
X218000Y247530D01*
D02*
G37*
G36*
X228500Y245500D02*
X225536D01*
X225590Y245086D01*
X225943Y244235D01*
X226504Y243504D01*
X227235Y242943D01*
X228086Y242590D01*
X228500Y242536D01*
Y245500D01*
D02*
G37*
G36*
Y249464D02*
X228086Y249410D01*
X227235Y249057D01*
X226504Y248496D01*
X225943Y247765D01*
X225590Y246914D01*
X225536Y246500D01*
X228500D01*
Y249464D01*
D02*
G37*
G36*
X218000Y237530D02*
X217086Y237410D01*
X216235Y237057D01*
X215504Y236496D01*
X214943Y235765D01*
X214590Y234914D01*
X214470Y234000D01*
X214590Y233086D01*
X214943Y232235D01*
X215504Y231504D01*
X216235Y230943D01*
X217086Y230590D01*
X218000Y230470D01*
X218914Y230590D01*
X219765Y230943D01*
X220496Y231504D01*
X221057Y232235D01*
X221410Y233086D01*
X221530Y234000D01*
X221410Y234914D01*
X221057Y235765D01*
X220496Y236496D01*
X219765Y237057D01*
X218914Y237410D01*
X218000Y237530D01*
D02*
G37*
G36*
X306000Y225500D02*
X304050D01*
X304145Y225025D01*
X304698Y224198D01*
X305524Y223645D01*
X306000Y223551D01*
Y225500D01*
D02*
G37*
G36*
X308949D02*
X307000D01*
Y223551D01*
X307475Y223645D01*
X308302Y224198D01*
X308855Y225025D01*
X308949Y225500D01*
D02*
G37*
G36*
X346500Y235030D02*
X345586Y234910D01*
X344735Y234557D01*
X344004Y233996D01*
X343443Y233265D01*
X343090Y232414D01*
X342970Y231500D01*
X343090Y230586D01*
X343443Y229735D01*
X344004Y229004D01*
X344622Y228529D01*
X344493Y228029D01*
X341500D01*
X340915Y227913D01*
X340419Y227581D01*
X337649Y224812D01*
X337414Y224910D01*
X336500Y225030D01*
X335586Y224910D01*
X334735Y224557D01*
X334004Y223996D01*
X333443Y223265D01*
X333090Y222414D01*
X332970Y221500D01*
X333090Y220586D01*
X333443Y219735D01*
X334004Y219004D01*
X334735Y218443D01*
X335586Y218090D01*
X336500Y217970D01*
X337414Y218090D01*
X338265Y218443D01*
X338996Y219004D01*
X339557Y219735D01*
X339910Y220586D01*
X340030Y221500D01*
X339910Y222414D01*
X339812Y222649D01*
X342133Y224971D01*
X344493D01*
X344622Y224471D01*
X344004Y223996D01*
X343443Y223265D01*
X343090Y222414D01*
X342970Y221500D01*
X343090Y220586D01*
X343443Y219735D01*
X344004Y219004D01*
X344735Y218443D01*
X345586Y218090D01*
X346500Y217970D01*
X347414Y218090D01*
X348265Y218443D01*
X348996Y219004D01*
X349557Y219735D01*
X349910Y220586D01*
X350030Y221500D01*
X349910Y222414D01*
X349557Y223265D01*
X348996Y223996D01*
X348378Y224471D01*
X348507Y224971D01*
X360228D01*
X360243Y224935D01*
X360804Y224204D01*
X361535Y223643D01*
X362386Y223290D01*
X363300Y223170D01*
X364214Y223290D01*
X365065Y223643D01*
X365796Y224204D01*
X366357Y224935D01*
X366710Y225786D01*
X366830Y226700D01*
X366710Y227614D01*
X366357Y228465D01*
X365796Y229196D01*
X365065Y229757D01*
X364214Y230110D01*
X363300Y230230D01*
X362386Y230110D01*
X361535Y229757D01*
X360804Y229196D01*
X360243Y228465D01*
X360062Y228029D01*
X348507D01*
X348378Y228529D01*
X348996Y229004D01*
X349557Y229735D01*
X349910Y230586D01*
X350030Y231500D01*
X349910Y232414D01*
X349557Y233265D01*
X348996Y233996D01*
X348265Y234557D01*
X347414Y234910D01*
X346500Y235030D01*
D02*
G37*
G36*
X271950Y225500D02*
X270000D01*
Y223551D01*
X270476Y223645D01*
X271302Y224198D01*
X271855Y225025D01*
X271950Y225500D01*
D02*
G37*
G36*
X188000Y227530D02*
X187086Y227410D01*
X186235Y227057D01*
X185504Y226496D01*
X184943Y225765D01*
X184590Y224914D01*
X184470Y224000D01*
X184590Y223086D01*
X184943Y222235D01*
X185504Y221504D01*
X186235Y220943D01*
X187086Y220590D01*
X188000Y220470D01*
X188914Y220590D01*
X189765Y220943D01*
X190496Y221504D01*
X191057Y222235D01*
X191410Y223086D01*
X191530Y224000D01*
X191410Y224914D01*
X191057Y225765D01*
X190496Y226496D01*
X189765Y227057D01*
X188914Y227410D01*
X188000Y227530D01*
D02*
G37*
G36*
X218000D02*
X217086Y227410D01*
X216235Y227057D01*
X215504Y226496D01*
X214943Y225765D01*
X214590Y224914D01*
X214470Y224000D01*
X214590Y223086D01*
X214943Y222235D01*
X215504Y221504D01*
X216235Y220943D01*
X217086Y220590D01*
X218000Y220470D01*
X218914Y220590D01*
X219765Y220943D01*
X220496Y221504D01*
X221057Y222235D01*
X221410Y223086D01*
X221530Y224000D01*
X221410Y224914D01*
X221057Y225765D01*
X220496Y226496D01*
X219765Y227057D01*
X218914Y227410D01*
X218000Y227530D01*
D02*
G37*
G36*
X269000Y225500D02*
X267051D01*
X267145Y225025D01*
X267698Y224198D01*
X268525Y223645D01*
X269000Y223551D01*
Y225500D01*
D02*
G37*
G36*
X256500Y235030D02*
X255586Y234910D01*
X254735Y234557D01*
X254004Y233996D01*
X253443Y233265D01*
X253090Y232414D01*
X252970Y231500D01*
X253090Y230586D01*
X253443Y229735D01*
X254004Y229004D01*
X254735Y228443D01*
X255586Y228090D01*
X256500Y227970D01*
X257414Y228090D01*
X258265Y228443D01*
X258996Y229004D01*
X259557Y229735D01*
X259910Y230586D01*
X260030Y231500D01*
X259910Y232414D01*
X259557Y233265D01*
X258996Y233996D01*
X258265Y234557D01*
X257414Y234910D01*
X256500Y235030D01*
D02*
G37*
G36*
X336500D02*
X335586Y234910D01*
X334735Y234557D01*
X334004Y233996D01*
X333443Y233265D01*
X333090Y232414D01*
X332970Y231500D01*
X333090Y230586D01*
X333443Y229735D01*
X334004Y229004D01*
X334735Y228443D01*
X335586Y228090D01*
X336500Y227970D01*
X337414Y228090D01*
X338265Y228443D01*
X338996Y229004D01*
X339557Y229735D01*
X339910Y230586D01*
X340030Y231500D01*
X339910Y232414D01*
X339557Y233265D01*
X338996Y233996D01*
X338265Y234557D01*
X337414Y234910D01*
X336500Y235030D01*
D02*
G37*
G36*
X188000Y237530D02*
X187086Y237410D01*
X186235Y237057D01*
X185504Y236496D01*
X184943Y235765D01*
X184590Y234914D01*
X184470Y234000D01*
X184590Y233086D01*
X184943Y232235D01*
X185504Y231504D01*
X186235Y230943D01*
X187086Y230590D01*
X188000Y230470D01*
X188914Y230590D01*
X189765Y230943D01*
X190496Y231504D01*
X191057Y232235D01*
X191410Y233086D01*
X191530Y234000D01*
X191410Y234914D01*
X191057Y235765D01*
X190496Y236496D01*
X189765Y237057D01*
X188914Y237410D01*
X188000Y237530D01*
D02*
G37*
G36*
X307000Y228450D02*
Y226500D01*
X308949D01*
X308855Y226975D01*
X308302Y227802D01*
X307475Y228355D01*
X307000Y228450D01*
D02*
G37*
G36*
X269000D02*
X268525Y228355D01*
X267698Y227802D01*
X267145Y226975D01*
X267051Y226500D01*
X269000D01*
Y228450D01*
D02*
G37*
G36*
X270000D02*
Y226500D01*
X271950D01*
X271855Y226975D01*
X271302Y227802D01*
X270476Y228355D01*
X270000Y228450D01*
D02*
G37*
G36*
X306000D02*
X305524Y228355D01*
X304698Y227802D01*
X304145Y226975D01*
X304050Y226500D01*
X306000D01*
Y228450D01*
D02*
G37*
G36*
X301000Y186450D02*
Y184500D01*
X302950D01*
X302855Y184976D01*
X302302Y185802D01*
X301476Y186355D01*
X301000Y186450D01*
D02*
G37*
G36*
X306500Y165030D02*
X305586Y164910D01*
X304735Y164557D01*
X304004Y163996D01*
X303443Y163265D01*
X303090Y162414D01*
X302970Y161500D01*
X303090Y160586D01*
X303443Y159735D01*
X304004Y159004D01*
X304735Y158443D01*
X305586Y158090D01*
X306500Y157970D01*
X307414Y158090D01*
X308265Y158443D01*
X308996Y159004D01*
X309557Y159735D01*
X309910Y160586D01*
X310030Y161500D01*
X309910Y162414D01*
X309557Y163265D01*
X308996Y163996D01*
X308265Y164557D01*
X307414Y164910D01*
X306500Y165030D01*
D02*
G37*
G36*
X266000Y161000D02*
X263036D01*
X263090Y160586D01*
X263443Y159735D01*
X264004Y159004D01*
X264735Y158443D01*
X265586Y158090D01*
X266000Y158036D01*
Y161000D01*
D02*
G37*
G36*
X269964D02*
X267000D01*
Y158036D01*
X267414Y158090D01*
X268265Y158443D01*
X268996Y159004D01*
X269557Y159735D01*
X269910Y160586D01*
X269964Y161000D01*
D02*
G37*
G36*
X276500Y165030D02*
X275586Y164910D01*
X274735Y164557D01*
X274004Y163996D01*
X273443Y163265D01*
X273090Y162414D01*
X272970Y161500D01*
X273090Y160586D01*
X273443Y159735D01*
X274004Y159004D01*
X274735Y158443D01*
X275586Y158090D01*
X276500Y157970D01*
X277414Y158090D01*
X278265Y158443D01*
X278996Y159004D01*
X279557Y159735D01*
X279910Y160586D01*
X280030Y161500D01*
X279910Y162414D01*
X279557Y163265D01*
X278996Y163996D01*
X278265Y164557D01*
X277414Y164910D01*
X276500Y165030D01*
D02*
G37*
G36*
X263949Y155500D02*
X262000D01*
Y153551D01*
X262475Y153645D01*
X263302Y154198D01*
X263855Y155025D01*
X263949Y155500D01*
D02*
G37*
G36*
X261000Y158449D02*
X260525Y158355D01*
X259698Y157802D01*
X259145Y156975D01*
X259050Y156500D01*
X261000D01*
Y158449D01*
D02*
G37*
G36*
X262000D02*
Y156500D01*
X263949D01*
X263855Y156975D01*
X263302Y157802D01*
X262475Y158355D01*
X262000Y158449D01*
D02*
G37*
G36*
X221500Y167500D02*
X214500D01*
Y160500D01*
X221500D01*
Y167500D01*
D02*
G37*
G36*
X414500Y168500D02*
X407500D01*
Y161500D01*
X414500D01*
Y168500D01*
D02*
G37*
G36*
X266000Y164964D02*
X265586Y164910D01*
X264735Y164557D01*
X264004Y163996D01*
X263443Y163265D01*
X263090Y162414D01*
X263036Y162000D01*
X266000D01*
Y164964D01*
D02*
G37*
G36*
X347950Y161500D02*
X346000D01*
Y159550D01*
X346476Y159645D01*
X347302Y160198D01*
X347855Y161024D01*
X347950Y161500D01*
D02*
G37*
G36*
X286000Y161000D02*
X283036D01*
X283090Y160586D01*
X283443Y159735D01*
X284004Y159004D01*
X284735Y158443D01*
X285586Y158090D01*
X286000Y158036D01*
Y161000D01*
D02*
G37*
G36*
X289964D02*
X287000D01*
Y158036D01*
X287414Y158090D01*
X288265Y158443D01*
X288996Y159004D01*
X289557Y159735D01*
X289910Y160586D01*
X289964Y161000D01*
D02*
G37*
G36*
X345000Y161500D02*
X343051D01*
X343145Y161024D01*
X343698Y160198D01*
X344525Y159645D01*
X345000Y159550D01*
Y161500D01*
D02*
G37*
G36*
X261000Y155500D02*
X259050D01*
X259145Y155025D01*
X259698Y154198D01*
X260525Y153645D01*
X261000Y153551D01*
Y155500D01*
D02*
G37*
G36*
X209000Y136950D02*
X208524Y136855D01*
X207698Y136302D01*
X207145Y135476D01*
X207050Y135000D01*
X209000D01*
Y136950D01*
D02*
G37*
G36*
X210000D02*
Y135000D01*
X211949D01*
X211855Y135476D01*
X211302Y136302D01*
X210475Y136855D01*
X210000Y136950D01*
D02*
G37*
G36*
X315600Y144500D02*
X312636D01*
X312690Y144086D01*
X313043Y143235D01*
X313604Y142504D01*
X314335Y141943D01*
X315186Y141590D01*
X315600Y141536D01*
Y144500D01*
D02*
G37*
G36*
X439500Y135964D02*
Y133000D01*
X442464D01*
X442410Y133414D01*
X442057Y134265D01*
X441496Y134996D01*
X440765Y135557D01*
X439914Y135910D01*
X439500Y135964D01*
D02*
G37*
G36*
X209000Y134000D02*
X207050D01*
X207145Y133525D01*
X207698Y132698D01*
X208524Y132145D01*
X209000Y132051D01*
Y134000D01*
D02*
G37*
G36*
X211949D02*
X210000D01*
Y132051D01*
X210475Y132145D01*
X211302Y132698D01*
X211855Y133525D01*
X211949Y134000D01*
D02*
G37*
G36*
X438500Y135964D02*
X438086Y135910D01*
X437235Y135557D01*
X436504Y134996D01*
X435943Y134265D01*
X435590Y133414D01*
X435536Y133000D01*
X438500D01*
Y135964D01*
D02*
G37*
G36*
X316600Y148464D02*
Y145500D01*
X319564D01*
X319510Y145914D01*
X319157Y146765D01*
X318596Y147496D01*
X317865Y148057D01*
X317014Y148410D01*
X316600Y148464D01*
D02*
G37*
G36*
X438500Y149622D02*
X438086Y149567D01*
X437235Y149215D01*
X436504Y148654D01*
X435943Y147923D01*
X435590Y147071D01*
X435536Y146658D01*
X438500D01*
Y149622D01*
D02*
G37*
G36*
X439500D02*
Y146658D01*
X442464D01*
X442410Y147071D01*
X442057Y147923D01*
X441496Y148654D01*
X440765Y149215D01*
X439914Y149567D01*
X439500Y149622D01*
D02*
G37*
G36*
X315600Y148464D02*
X315186Y148410D01*
X314335Y148057D01*
X313604Y147496D01*
X313043Y146765D01*
X312690Y145914D01*
X312636Y145500D01*
X315600D01*
Y148464D01*
D02*
G37*
G36*
X319564Y144500D02*
X316600D01*
Y141536D01*
X317014Y141590D01*
X317865Y141943D01*
X318596Y142504D01*
X319157Y143235D01*
X319510Y144086D01*
X319564Y144500D01*
D02*
G37*
G36*
X438500Y145658D02*
X435536D01*
X435590Y145244D01*
X435943Y144392D01*
X436504Y143661D01*
X437235Y143100D01*
X438086Y142748D01*
X438500Y142693D01*
Y145658D01*
D02*
G37*
G36*
X442464D02*
X439500D01*
Y142693D01*
X439914Y142748D01*
X440765Y143100D01*
X441496Y143661D01*
X442057Y144392D01*
X442410Y145244D01*
X442464Y145658D01*
D02*
G37*
G36*
X176300Y183200D02*
X173336D01*
X173390Y182786D01*
X173743Y181935D01*
X174304Y181204D01*
X175035Y180643D01*
X175886Y180290D01*
X176300Y180236D01*
Y183200D01*
D02*
G37*
G36*
X180264D02*
X177300D01*
Y180236D01*
X177714Y180290D01*
X178565Y180643D01*
X179296Y181204D01*
X179857Y181935D01*
X180210Y182786D01*
X180264Y183200D01*
D02*
G37*
G36*
X188000Y187530D02*
X187086Y187410D01*
X186235Y187057D01*
X185504Y186496D01*
X184943Y185765D01*
X184590Y184914D01*
X184470Y184000D01*
X184590Y183086D01*
X184943Y182235D01*
X185504Y181504D01*
X186235Y180943D01*
X187086Y180590D01*
X188000Y180470D01*
X188914Y180590D01*
X189765Y180943D01*
X190496Y181504D01*
X191057Y182235D01*
X191410Y183086D01*
X191530Y184000D01*
X191410Y184914D01*
X191057Y185765D01*
X190496Y186496D01*
X189765Y187057D01*
X188914Y187410D01*
X188000Y187530D01*
D02*
G37*
G36*
X336000Y181000D02*
X333036D01*
X333090Y180586D01*
X333443Y179735D01*
X334004Y179004D01*
X334735Y178443D01*
X335586Y178090D01*
X336000Y178036D01*
Y181000D01*
D02*
G37*
G36*
X441449Y176000D02*
X439500D01*
Y174050D01*
X439976Y174145D01*
X440802Y174698D01*
X441355Y175524D01*
X441449Y176000D01*
D02*
G37*
G36*
X438500Y178949D02*
X438025Y178855D01*
X437198Y178302D01*
X436645Y177476D01*
X436551Y177000D01*
X438500D01*
Y178949D01*
D02*
G37*
G36*
X439500D02*
Y177000D01*
X441449D01*
X441355Y177476D01*
X440802Y178302D01*
X439976Y178855D01*
X439500Y178949D01*
D02*
G37*
G36*
X176300Y187164D02*
X175886Y187110D01*
X175035Y186757D01*
X174304Y186196D01*
X173743Y185465D01*
X173390Y184614D01*
X173336Y184200D01*
X176300D01*
Y187164D01*
D02*
G37*
G36*
X177300D02*
Y184200D01*
X180264D01*
X180210Y184614D01*
X179857Y185465D01*
X179296Y186196D01*
X178565Y186757D01*
X177714Y187110D01*
X177300Y187164D01*
D02*
G37*
G36*
X300000Y186450D02*
X299524Y186355D01*
X298698Y185802D01*
X298145Y184976D01*
X298050Y184500D01*
X300000D01*
Y186450D01*
D02*
G37*
G36*
X302950Y183500D02*
X301000D01*
Y181551D01*
X301476Y181645D01*
X302302Y182198D01*
X302855Y183025D01*
X302950Y183500D01*
D02*
G37*
G36*
X362800Y184200D02*
X359836D01*
X359890Y183786D01*
X360243Y182935D01*
X360804Y182204D01*
X361535Y181643D01*
X362386Y181290D01*
X362800Y181236D01*
Y184200D01*
D02*
G37*
G36*
X366764D02*
X363800D01*
Y181236D01*
X364214Y181290D01*
X365065Y181643D01*
X365796Y182204D01*
X366357Y182935D01*
X366710Y183786D01*
X366764Y184200D01*
D02*
G37*
G36*
X300000Y183500D02*
X298050D01*
X298145Y183025D01*
X298698Y182198D01*
X299524Y181645D01*
X300000Y181551D01*
Y183500D01*
D02*
G37*
G36*
X438500Y176000D02*
X436551D01*
X436645Y175524D01*
X437198Y174698D01*
X438025Y174145D01*
X438500Y174050D01*
Y176000D01*
D02*
G37*
G36*
X346000Y164450D02*
Y162500D01*
X347950D01*
X347855Y162976D01*
X347302Y163802D01*
X346476Y164355D01*
X346000Y164450D01*
D02*
G37*
G36*
X266500Y175030D02*
X265586Y174910D01*
X264735Y174557D01*
X264004Y173996D01*
X263443Y173265D01*
X263090Y172414D01*
X262970Y171500D01*
X263090Y170586D01*
X263443Y169735D01*
X264004Y169004D01*
X264735Y168443D01*
X265586Y168090D01*
X266500Y167970D01*
X267414Y168090D01*
X268265Y168443D01*
X268996Y169004D01*
X269557Y169735D01*
X269910Y170586D01*
X270030Y171500D01*
X269910Y172414D01*
X269557Y173265D01*
X268996Y173996D01*
X268265Y174557D01*
X267414Y174910D01*
X266500Y175030D01*
D02*
G37*
G36*
X276500D02*
X275586Y174910D01*
X274735Y174557D01*
X274004Y173996D01*
X273443Y173265D01*
X273090Y172414D01*
X272970Y171500D01*
X273090Y170586D01*
X273443Y169735D01*
X274004Y169004D01*
X274735Y168443D01*
X275586Y168090D01*
X276500Y167970D01*
X277414Y168090D01*
X278265Y168443D01*
X278996Y169004D01*
X279557Y169735D01*
X279910Y170586D01*
X280030Y171500D01*
X279910Y172414D01*
X279557Y173265D01*
X278996Y173996D01*
X278265Y174557D01*
X277414Y174910D01*
X276500Y175030D01*
D02*
G37*
G36*
X345000Y164450D02*
X344525Y164355D01*
X343698Y163802D01*
X343145Y162976D01*
X343051Y162500D01*
X345000D01*
Y164450D01*
D02*
G37*
G36*
X267000Y164964D02*
Y162000D01*
X269964D01*
X269910Y162414D01*
X269557Y163265D01*
X268996Y163996D01*
X268265Y164557D01*
X267414Y164910D01*
X267000Y164964D01*
D02*
G37*
G36*
X286000D02*
X285586Y164910D01*
X284735Y164557D01*
X284004Y163996D01*
X283443Y163265D01*
X283090Y162414D01*
X283036Y162000D01*
X286000D01*
Y164964D01*
D02*
G37*
G36*
X287000D02*
Y162000D01*
X289964D01*
X289910Y162414D01*
X289557Y163265D01*
X288996Y163996D01*
X288265Y164557D01*
X287414Y164910D01*
X287000Y164964D01*
D02*
G37*
G36*
X218000Y177530D02*
X217086Y177410D01*
X216235Y177057D01*
X215504Y176496D01*
X214943Y175765D01*
X214590Y174914D01*
X214470Y174000D01*
X214590Y173086D01*
X214943Y172235D01*
X215504Y171504D01*
X216235Y170943D01*
X217086Y170590D01*
X218000Y170470D01*
X218914Y170590D01*
X219765Y170943D01*
X220496Y171504D01*
X221057Y172235D01*
X221410Y173086D01*
X221530Y174000D01*
X221410Y174914D01*
X221057Y175765D01*
X220496Y176496D01*
X219765Y177057D01*
X218914Y177410D01*
X218000Y177530D01*
D02*
G37*
G36*
X306000Y174964D02*
X305586Y174910D01*
X304735Y174557D01*
X304004Y173996D01*
X303443Y173265D01*
X303090Y172414D01*
X303036Y172000D01*
X306000D01*
Y174964D01*
D02*
G37*
G36*
X307000D02*
Y172000D01*
X309964D01*
X309910Y172414D01*
X309557Y173265D01*
X308996Y173996D01*
X308265Y174557D01*
X307414Y174910D01*
X307000Y174964D01*
D02*
G37*
G36*
X309964Y171000D02*
X307000D01*
Y168036D01*
X307414Y168090D01*
X308265Y168443D01*
X308996Y169004D01*
X309557Y169735D01*
X309910Y170586D01*
X309964Y171000D01*
D02*
G37*
G36*
X316500Y175030D02*
X315586Y174910D01*
X314735Y174557D01*
X314004Y173996D01*
X313443Y173265D01*
X313090Y172414D01*
X312970Y171500D01*
X313090Y170586D01*
X313443Y169735D01*
X314004Y169004D01*
X314735Y168443D01*
X315586Y168090D01*
X316500Y167970D01*
X317414Y168090D01*
X318265Y168443D01*
X318996Y169004D01*
X319557Y169735D01*
X319910Y170586D01*
X320030Y171500D01*
X319910Y172414D01*
X319557Y173265D01*
X318996Y173996D01*
X318265Y174557D01*
X317414Y174910D01*
X316500Y175030D01*
D02*
G37*
G36*
X336500D02*
X335586Y174910D01*
X334735Y174557D01*
X334004Y173996D01*
X333443Y173265D01*
X333090Y172414D01*
X332970Y171500D01*
X333090Y170586D01*
X333443Y169735D01*
X334004Y169004D01*
X334735Y168443D01*
X335586Y168090D01*
X336500Y167970D01*
X337414Y168090D01*
X338265Y168443D01*
X338996Y169004D01*
X339557Y169735D01*
X339910Y170586D01*
X340030Y171500D01*
X339910Y172414D01*
X339557Y173265D01*
X338996Y173996D01*
X338265Y174557D01*
X337414Y174910D01*
X336500Y175030D01*
D02*
G37*
G36*
X306000Y171000D02*
X303036D01*
X303090Y170586D01*
X303443Y169735D01*
X304004Y169004D01*
X304735Y168443D01*
X305586Y168090D01*
X306000Y168036D01*
Y171000D01*
D02*
G37*
G36*
X296500Y255030D02*
X295586Y254910D01*
X294735Y254557D01*
X294004Y253996D01*
X293443Y253265D01*
X293090Y252414D01*
X292970Y251500D01*
X293090Y250586D01*
X293443Y249735D01*
X294004Y249004D01*
X294735Y248443D01*
X295586Y248090D01*
X296500Y247970D01*
X297414Y248090D01*
X298265Y248443D01*
X298996Y249004D01*
X299557Y249735D01*
X299910Y250586D01*
X300030Y251500D01*
X299910Y252414D01*
X299557Y253265D01*
X298996Y253996D01*
X298265Y254557D01*
X297414Y254910D01*
X296500Y255030D01*
D02*
G37*
G36*
X323500Y303500D02*
X319527D01*
X319616Y302825D01*
X320069Y301731D01*
X320791Y300791D01*
X321731Y300069D01*
X322825Y299616D01*
X323500Y299527D01*
Y303500D01*
D02*
G37*
G36*
X378473D02*
X374500D01*
Y299527D01*
X375175Y299616D01*
X376269Y300069D01*
X377209Y300791D01*
X377931Y301731D01*
X378384Y302825D01*
X378473Y303500D01*
D02*
G37*
G36*
X213500Y308473D02*
X212825Y308384D01*
X211731Y307931D01*
X210791Y307209D01*
X210069Y306269D01*
X209616Y305175D01*
X209527Y304500D01*
X213500D01*
Y308473D01*
D02*
G37*
G36*
X318473Y303500D02*
X314500D01*
Y299527D01*
X315175Y299616D01*
X316269Y300069D01*
X317209Y300791D01*
X317931Y301731D01*
X318384Y302825D01*
X318473Y303500D01*
D02*
G37*
G36*
X303500D02*
X299527D01*
X299616Y302825D01*
X300069Y301731D01*
X300791Y300791D01*
X301731Y300069D01*
X302825Y299616D01*
X303500Y299527D01*
Y303500D01*
D02*
G37*
G36*
X308473D02*
X304500D01*
Y299527D01*
X305175Y299616D01*
X306269Y300069D01*
X307209Y300791D01*
X307931Y301731D01*
X308384Y302825D01*
X308473Y303500D01*
D02*
G37*
G36*
X313500D02*
X309527D01*
X309616Y302825D01*
X310069Y301731D01*
X310791Y300791D01*
X311731Y300069D01*
X312825Y299616D01*
X313500Y299527D01*
Y303500D01*
D02*
G37*
G36*
X214500Y308473D02*
Y304500D01*
X218473D01*
X218384Y305175D01*
X217931Y306269D01*
X217209Y307209D01*
X216269Y307931D01*
X215175Y308384D01*
X214500Y308473D01*
D02*
G37*
G36*
X243500D02*
X242825Y308384D01*
X241731Y307931D01*
X240791Y307209D01*
X240069Y306269D01*
X239616Y305175D01*
X239527Y304500D01*
X243500D01*
Y308473D01*
D02*
G37*
G36*
X244500D02*
Y304500D01*
X248473D01*
X248384Y305175D01*
X247931Y306269D01*
X247209Y307209D01*
X246269Y307931D01*
X245175Y308384D01*
X244500Y308473D01*
D02*
G37*
G36*
X253500D02*
X252825Y308384D01*
X251731Y307931D01*
X250791Y307209D01*
X250069Y306269D01*
X249616Y305175D01*
X249527Y304500D01*
X253500D01*
Y308473D01*
D02*
G37*
G36*
X234500D02*
Y304500D01*
X238473D01*
X238384Y305175D01*
X237931Y306269D01*
X237209Y307209D01*
X236269Y307931D01*
X235175Y308384D01*
X234500Y308473D01*
D02*
G37*
G36*
X223500D02*
X222825Y308384D01*
X221731Y307931D01*
X220791Y307209D01*
X220069Y306269D01*
X219616Y305175D01*
X219527Y304500D01*
X223500D01*
Y308473D01*
D02*
G37*
G36*
X224500D02*
Y304500D01*
X228473D01*
X228384Y305175D01*
X227931Y306269D01*
X227209Y307209D01*
X226269Y307931D01*
X225175Y308384D01*
X224500Y308473D01*
D02*
G37*
G36*
X233500D02*
X232825Y308384D01*
X231731Y307931D01*
X230791Y307209D01*
X230069Y306269D01*
X229616Y305175D01*
X229527Y304500D01*
X233500D01*
Y308473D01*
D02*
G37*
G36*
X248473Y303500D02*
X244500D01*
Y299527D01*
X245175Y299616D01*
X246269Y300069D01*
X247209Y300791D01*
X247931Y301731D01*
X248384Y302825D01*
X248473Y303500D01*
D02*
G37*
G36*
X253500D02*
X249527D01*
X249616Y302825D01*
X250069Y301731D01*
X250791Y300791D01*
X251731Y300069D01*
X252825Y299616D01*
X253500Y299527D01*
Y303500D01*
D02*
G37*
G36*
X258473D02*
X254500D01*
Y299527D01*
X255175Y299616D01*
X256269Y300069D01*
X257209Y300791D01*
X257931Y301731D01*
X258384Y302825D01*
X258473Y303500D01*
D02*
G37*
G36*
X243500D02*
X239527D01*
X239616Y302825D01*
X240069Y301731D01*
X240791Y300791D01*
X241731Y300069D01*
X242825Y299616D01*
X243500Y299527D01*
Y303500D01*
D02*
G37*
G36*
X228473D02*
X224500D01*
Y299527D01*
X225175Y299616D01*
X226269Y300069D01*
X227209Y300791D01*
X227931Y301731D01*
X228384Y302825D01*
X228473Y303500D01*
D02*
G37*
G36*
X233500D02*
X229527D01*
X229616Y302825D01*
X230069Y301731D01*
X230791Y300791D01*
X231731Y300069D01*
X232825Y299616D01*
X233500Y299527D01*
Y303500D01*
D02*
G37*
G36*
X238473D02*
X234500D01*
Y299527D01*
X235175Y299616D01*
X236269Y300069D01*
X237209Y300791D01*
X237931Y301731D01*
X238384Y302825D01*
X238473Y303500D01*
D02*
G37*
G36*
X263500D02*
X259527D01*
X259616Y302825D01*
X260069Y301731D01*
X260791Y300791D01*
X261731Y300069D01*
X262825Y299616D01*
X263500Y299527D01*
Y303500D01*
D02*
G37*
G36*
X288473D02*
X284500D01*
Y299527D01*
X285175Y299616D01*
X286269Y300069D01*
X287209Y300791D01*
X287931Y301731D01*
X288384Y302825D01*
X288473Y303500D01*
D02*
G37*
G36*
X293500D02*
X289527D01*
X289616Y302825D01*
X290069Y301731D01*
X290791Y300791D01*
X291731Y300069D01*
X292825Y299616D01*
X293500Y299527D01*
Y303500D01*
D02*
G37*
G36*
X298473D02*
X294500D01*
Y299527D01*
X295175Y299616D01*
X296269Y300069D01*
X297209Y300791D01*
X297931Y301731D01*
X298384Y302825D01*
X298473Y303500D01*
D02*
G37*
G36*
X283500D02*
X279527D01*
X279616Y302825D01*
X280069Y301731D01*
X280791Y300791D01*
X281731Y300069D01*
X282825Y299616D01*
X283500Y299527D01*
Y303500D01*
D02*
G37*
G36*
X268473D02*
X264500D01*
Y299527D01*
X265175Y299616D01*
X266269Y300069D01*
X267209Y300791D01*
X267931Y301731D01*
X268384Y302825D01*
X268473Y303500D01*
D02*
G37*
G36*
X273500D02*
X269527D01*
X269616Y302825D01*
X270069Y301731D01*
X270791Y300791D01*
X271731Y300069D01*
X272825Y299616D01*
X273500Y299527D01*
Y303500D01*
D02*
G37*
G36*
X278473D02*
X274500D01*
Y299527D01*
X275175Y299616D01*
X276269Y300069D01*
X277209Y300791D01*
X277931Y301731D01*
X278384Y302825D01*
X278473Y303500D01*
D02*
G37*
G36*
X234000Y318539D02*
X232825Y318384D01*
X231731Y317931D01*
X230791Y317209D01*
X230069Y316269D01*
X229616Y315175D01*
X229461Y314000D01*
X229616Y312825D01*
X230069Y311731D01*
X230791Y310791D01*
X231731Y310069D01*
X232825Y309616D01*
X234000Y309461D01*
X235175Y309616D01*
X236269Y310069D01*
X237209Y310791D01*
X237931Y311731D01*
X238384Y312825D01*
X238539Y314000D01*
X238384Y315175D01*
X237931Y316269D01*
X237209Y317209D01*
X236269Y317931D01*
X235175Y318384D01*
X234000Y318539D01*
D02*
G37*
G36*
X254000D02*
X252825Y318384D01*
X251731Y317931D01*
X250791Y317209D01*
X250069Y316269D01*
X249616Y315175D01*
X249461Y314000D01*
X249616Y312825D01*
X250069Y311731D01*
X250791Y310791D01*
X251731Y310069D01*
X252825Y309616D01*
X254000Y309461D01*
X255175Y309616D01*
X256269Y310069D01*
X257209Y310791D01*
X257931Y311731D01*
X258384Y312825D01*
X258539Y314000D01*
X258384Y315175D01*
X257931Y316269D01*
X257209Y317209D01*
X256269Y317931D01*
X255175Y318384D01*
X254000Y318539D01*
D02*
G37*
G36*
X264000D02*
X262825Y318384D01*
X261731Y317931D01*
X260791Y317209D01*
X260069Y316269D01*
X259616Y315175D01*
X259461Y314000D01*
X259616Y312825D01*
X260069Y311731D01*
X260791Y310791D01*
X261731Y310069D01*
X262825Y309616D01*
X264000Y309461D01*
X265175Y309616D01*
X266269Y310069D01*
X267209Y310791D01*
X267931Y311731D01*
X268384Y312825D01*
X268539Y314000D01*
X268384Y315175D01*
X267931Y316269D01*
X267209Y317209D01*
X266269Y317931D01*
X265175Y318384D01*
X264000Y318539D01*
D02*
G37*
G36*
X224000D02*
X222825Y318384D01*
X221731Y317931D01*
X220791Y317209D01*
X220069Y316269D01*
X219616Y315175D01*
X219461Y314000D01*
X219616Y312825D01*
X220069Y311731D01*
X220791Y310791D01*
X221731Y310069D01*
X222825Y309616D01*
X224000Y309461D01*
X225175Y309616D01*
X226269Y310069D01*
X227209Y310791D01*
X227931Y311731D01*
X228384Y312825D01*
X228539Y314000D01*
X228384Y315175D01*
X227931Y316269D01*
X227209Y317209D01*
X226269Y317931D01*
X225175Y318384D01*
X224000Y318539D01*
D02*
G37*
G36*
X344000D02*
X342825Y318384D01*
X341731Y317931D01*
X340791Y317209D01*
X340069Y316269D01*
X339616Y315175D01*
X339461Y314000D01*
X339616Y312825D01*
X340069Y311731D01*
X340791Y310791D01*
X341731Y310069D01*
X342825Y309616D01*
X344000Y309461D01*
X345175Y309616D01*
X345915Y309922D01*
X347471Y308366D01*
Y307639D01*
X346971Y307393D01*
X346269Y307931D01*
X345175Y308384D01*
X344500Y308473D01*
Y304000D01*
Y299527D01*
X345175Y299616D01*
X346269Y300069D01*
X346971Y300607D01*
X347471Y300361D01*
Y282155D01*
X347235Y282057D01*
X346504Y281496D01*
X345943Y280765D01*
X345590Y279914D01*
X345470Y279000D01*
X345590Y278086D01*
X345943Y277235D01*
X346504Y276504D01*
X347235Y275943D01*
X348086Y275590D01*
X349000Y275470D01*
X349914Y275590D01*
X350765Y275943D01*
X351496Y276504D01*
X352057Y277235D01*
X352410Y278086D01*
X352530Y279000D01*
X352410Y279914D01*
X352057Y280765D01*
X351496Y281496D01*
X350765Y282057D01*
X350529Y282155D01*
Y300361D01*
X351029Y300607D01*
X351731Y300069D01*
X352825Y299616D01*
X353500Y299527D01*
Y304000D01*
Y308473D01*
X352825Y308384D01*
X351731Y307931D01*
X351029Y307393D01*
X350529Y307639D01*
Y309000D01*
X350413Y309585D01*
X350081Y310081D01*
X348078Y312085D01*
X348384Y312825D01*
X348539Y314000D01*
X348384Y315175D01*
X347931Y316269D01*
X347209Y317209D01*
X346269Y317931D01*
X345175Y318384D01*
X344000Y318539D01*
D02*
G37*
G36*
X354000D02*
X352825Y318384D01*
X351731Y317931D01*
X350791Y317209D01*
X350069Y316269D01*
X349616Y315175D01*
X349461Y314000D01*
X349616Y312825D01*
X350069Y311731D01*
X350791Y310791D01*
X351731Y310069D01*
X352825Y309616D01*
X354000Y309461D01*
X355175Y309616D01*
X355915Y309922D01*
X357471Y308366D01*
Y307639D01*
X356971Y307393D01*
X356269Y307931D01*
X355175Y308384D01*
X354500Y308473D01*
Y304000D01*
Y299527D01*
X355175Y299616D01*
X356269Y300069D01*
X356971Y300607D01*
X357471Y300361D01*
Y282155D01*
X357235Y282057D01*
X356504Y281496D01*
X355943Y280765D01*
X355590Y279914D01*
X355470Y279000D01*
X355590Y278086D01*
X355943Y277235D01*
X356504Y276504D01*
X357235Y275943D01*
X358086Y275590D01*
X359000Y275470D01*
X359914Y275590D01*
X360765Y275943D01*
X361496Y276504D01*
X362057Y277235D01*
X362410Y278086D01*
X362530Y279000D01*
X362410Y279914D01*
X362057Y280765D01*
X361496Y281496D01*
X360765Y282057D01*
X360529Y282155D01*
Y300361D01*
X361029Y300607D01*
X361731Y300069D01*
X362825Y299616D01*
X363500Y299527D01*
Y304000D01*
Y308473D01*
X362825Y308384D01*
X361731Y307931D01*
X361029Y307393D01*
X360529Y307639D01*
Y309000D01*
X360413Y309585D01*
X360081Y310081D01*
X358078Y312085D01*
X358384Y312825D01*
X358539Y314000D01*
X358384Y315175D01*
X357931Y316269D01*
X357209Y317209D01*
X356269Y317931D01*
X355175Y318384D01*
X354000Y318539D01*
D02*
G37*
G36*
X214000D02*
X212825Y318384D01*
X211731Y317931D01*
X210791Y317209D01*
X210069Y316269D01*
X209616Y315175D01*
X209461Y314000D01*
X209616Y312825D01*
X210069Y311731D01*
X210791Y310791D01*
X211731Y310069D01*
X212825Y309616D01*
X214000Y309461D01*
X215175Y309616D01*
X216269Y310069D01*
X217209Y310791D01*
X217931Y311731D01*
X218384Y312825D01*
X218539Y314000D01*
X218384Y315175D01*
X217931Y316269D01*
X217209Y317209D01*
X216269Y317931D01*
X215175Y318384D01*
X214000Y318539D01*
D02*
G37*
G36*
X274000D02*
X272825Y318384D01*
X271731Y317931D01*
X270791Y317209D01*
X270069Y316269D01*
X269616Y315175D01*
X269461Y314000D01*
X269616Y312825D01*
X270069Y311731D01*
X270791Y310791D01*
X271731Y310069D01*
X272825Y309616D01*
X274000Y309461D01*
X275175Y309616D01*
X276269Y310069D01*
X277209Y310791D01*
X277931Y311731D01*
X278384Y312825D01*
X278539Y314000D01*
X278384Y315175D01*
X277931Y316269D01*
X277209Y317209D01*
X276269Y317931D01*
X275175Y318384D01*
X274000Y318539D01*
D02*
G37*
G36*
X364000D02*
X362825Y318384D01*
X361731Y317931D01*
X360791Y317209D01*
X360069Y316269D01*
X359616Y315175D01*
X359461Y314000D01*
X359616Y312825D01*
X360069Y311731D01*
X360791Y310791D01*
X361731Y310069D01*
X362825Y309616D01*
X364000Y309461D01*
X365175Y309616D01*
X366269Y310069D01*
X367209Y310791D01*
X367931Y311731D01*
X368384Y312825D01*
X368539Y314000D01*
X368384Y315175D01*
X367931Y316269D01*
X367209Y317209D01*
X366269Y317931D01*
X365175Y318384D01*
X364000Y318539D01*
D02*
G37*
G36*
X374000D02*
X372825Y318384D01*
X371731Y317931D01*
X370791Y317209D01*
X370069Y316269D01*
X369616Y315175D01*
X369461Y314000D01*
X369616Y312825D01*
X369922Y312085D01*
X367919Y310081D01*
X367587Y309585D01*
X367471Y309000D01*
Y307639D01*
X366971Y307393D01*
X366269Y307931D01*
X365175Y308384D01*
X364500Y308473D01*
Y304000D01*
Y299527D01*
X365175Y299616D01*
X366269Y300069D01*
X366971Y300607D01*
X367471Y300361D01*
Y282155D01*
X367235Y282057D01*
X366504Y281496D01*
X365943Y280765D01*
X365590Y279914D01*
X365470Y279000D01*
X365590Y278086D01*
X365943Y277235D01*
X366504Y276504D01*
X367235Y275943D01*
X368086Y275590D01*
X369000Y275470D01*
X369914Y275590D01*
X370765Y275943D01*
X371496Y276504D01*
X372057Y277235D01*
X372410Y278086D01*
X372530Y279000D01*
X372410Y279914D01*
X372057Y280765D01*
X371496Y281496D01*
X370765Y282057D01*
X370529Y282155D01*
Y300361D01*
X371029Y300607D01*
X371731Y300069D01*
X372825Y299616D01*
X373500Y299527D01*
Y304000D01*
Y308473D01*
X372825Y308384D01*
X371731Y307931D01*
X371029Y307393D01*
X370529Y307639D01*
Y308366D01*
X372085Y309922D01*
X372825Y309616D01*
X374000Y309461D01*
X375175Y309616D01*
X376269Y310069D01*
X377209Y310791D01*
X377931Y311731D01*
X378384Y312825D01*
X378539Y314000D01*
X378384Y315175D01*
X377931Y316269D01*
X377209Y317209D01*
X376269Y317931D01*
X375175Y318384D01*
X374000Y318539D01*
D02*
G37*
G36*
X326700Y322929D02*
X246600D01*
X246112Y322832D01*
X246015Y322813D01*
X245519Y322481D01*
X243019Y319981D01*
X242687Y319485D01*
X242571Y318900D01*
Y318279D01*
X241731Y317931D01*
X240791Y317209D01*
X240069Y316269D01*
X239616Y315175D01*
X239461Y314000D01*
X239616Y312825D01*
X240069Y311731D01*
X240791Y310791D01*
X241731Y310069D01*
X242825Y309616D01*
X244000Y309461D01*
X245175Y309616D01*
X246269Y310069D01*
X247209Y310791D01*
X247931Y311731D01*
X248384Y312825D01*
X248539Y314000D01*
X248384Y315175D01*
X247931Y316269D01*
X247209Y317209D01*
X246269Y317931D01*
X246079Y318009D01*
X245962Y318599D01*
X247234Y319871D01*
X326066D01*
X327471Y318466D01*
Y317639D01*
X326971Y317393D01*
X326269Y317931D01*
X325175Y318384D01*
X324000Y318539D01*
X322825Y318384D01*
X321731Y317931D01*
X320791Y317209D01*
X320069Y316269D01*
X319616Y315175D01*
X319461Y314000D01*
X319616Y312825D01*
X320069Y311731D01*
X320791Y310791D01*
X321731Y310069D01*
X322825Y309616D01*
X324000Y309461D01*
X325175Y309616D01*
X326269Y310069D01*
X326971Y310607D01*
X327471Y310361D01*
Y307639D01*
X326971Y307393D01*
X326269Y307931D01*
X325175Y308384D01*
X324500Y308473D01*
Y304000D01*
Y299527D01*
X325175Y299616D01*
X326269Y300069D01*
X326971Y300607D01*
X327471Y300361D01*
Y282155D01*
X327235Y282057D01*
X326504Y281496D01*
X325943Y280765D01*
X325590Y279914D01*
X325470Y279000D01*
X325590Y278086D01*
X325943Y277235D01*
X326504Y276504D01*
X327235Y275943D01*
X328086Y275590D01*
X329000Y275470D01*
X329914Y275590D01*
X330765Y275943D01*
X331496Y276504D01*
X332057Y277235D01*
X332410Y278086D01*
X332530Y279000D01*
X332410Y279914D01*
X332057Y280765D01*
X331496Y281496D01*
X330765Y282057D01*
X330529Y282155D01*
Y300361D01*
X331029Y300607D01*
X331731Y300069D01*
X332825Y299616D01*
X333500Y299527D01*
Y304000D01*
X334500D01*
Y299527D01*
X335175Y299616D01*
X336269Y300069D01*
X336971Y300607D01*
X337471Y300361D01*
Y282155D01*
X337235Y282057D01*
X336504Y281496D01*
X335943Y280765D01*
X335590Y279914D01*
X335470Y279000D01*
X335590Y278086D01*
X335943Y277235D01*
X336504Y276504D01*
X337235Y275943D01*
X338086Y275590D01*
X339000Y275470D01*
X339914Y275590D01*
X340765Y275943D01*
X341496Y276504D01*
X342057Y277235D01*
X342410Y278086D01*
X342530Y279000D01*
X342410Y279914D01*
X342057Y280765D01*
X341496Y281496D01*
X340765Y282057D01*
X340529Y282155D01*
Y300361D01*
X341029Y300607D01*
X341731Y300069D01*
X342825Y299616D01*
X343500Y299527D01*
Y304000D01*
Y308473D01*
X342825Y308384D01*
X341731Y307931D01*
X341029Y307393D01*
X340529Y307639D01*
Y309000D01*
X340413Y309585D01*
X340081Y310081D01*
X338078Y312085D01*
X338384Y312825D01*
X338539Y314000D01*
X338384Y315175D01*
X337931Y316269D01*
X337209Y317209D01*
X336269Y317931D01*
X335175Y318384D01*
X334000Y318539D01*
X332825Y318384D01*
X331731Y317931D01*
X331029Y317393D01*
X330529Y317639D01*
Y319100D01*
X330413Y319685D01*
X330081Y320181D01*
X327781Y322481D01*
X327285Y322813D01*
X326700Y322929D01*
D02*
G37*
G36*
X314000Y318539D02*
X312825Y318384D01*
X311731Y317931D01*
X310791Y317209D01*
X310069Y316269D01*
X309616Y315175D01*
X309461Y314000D01*
X309616Y312825D01*
X310069Y311731D01*
X310791Y310791D01*
X311731Y310069D01*
X312825Y309616D01*
X314000Y309461D01*
X315175Y309616D01*
X316269Y310069D01*
X317209Y310791D01*
X317931Y311731D01*
X318384Y312825D01*
X318539Y314000D01*
X318384Y315175D01*
X317931Y316269D01*
X317209Y317209D01*
X316269Y317931D01*
X315175Y318384D01*
X314000Y318539D01*
D02*
G37*
G36*
X284000D02*
X282825Y318384D01*
X281731Y317931D01*
X280791Y317209D01*
X280069Y316269D01*
X279616Y315175D01*
X279461Y314000D01*
X279616Y312825D01*
X280069Y311731D01*
X280791Y310791D01*
X281731Y310069D01*
X282825Y309616D01*
X284000Y309461D01*
X285175Y309616D01*
X286269Y310069D01*
X287209Y310791D01*
X287931Y311731D01*
X288384Y312825D01*
X288539Y314000D01*
X288384Y315175D01*
X287931Y316269D01*
X287209Y317209D01*
X286269Y317931D01*
X285175Y318384D01*
X284000Y318539D01*
D02*
G37*
G36*
X294000D02*
X292825Y318384D01*
X291731Y317931D01*
X290791Y317209D01*
X290069Y316269D01*
X289616Y315175D01*
X289461Y314000D01*
X289616Y312825D01*
X290069Y311731D01*
X290791Y310791D01*
X291731Y310069D01*
X292825Y309616D01*
X294000Y309461D01*
X295175Y309616D01*
X296269Y310069D01*
X297209Y310791D01*
X297931Y311731D01*
X298384Y312825D01*
X298539Y314000D01*
X298384Y315175D01*
X297931Y316269D01*
X297209Y317209D01*
X296269Y317931D01*
X295175Y318384D01*
X294000Y318539D01*
D02*
G37*
G36*
X304000D02*
X302825Y318384D01*
X301731Y317931D01*
X300791Y317209D01*
X300069Y316269D01*
X299616Y315175D01*
X299461Y314000D01*
X299616Y312825D01*
X300069Y311731D01*
X300791Y310791D01*
X301731Y310069D01*
X302825Y309616D01*
X304000Y309461D01*
X305175Y309616D01*
X306269Y310069D01*
X307209Y310791D01*
X307931Y311731D01*
X308384Y312825D01*
X308539Y314000D01*
X308384Y315175D01*
X307931Y316269D01*
X307209Y317209D01*
X306269Y317931D01*
X305175Y318384D01*
X304000Y318539D01*
D02*
G37*
G36*
X274500Y308473D02*
Y304500D01*
X278473D01*
X278384Y305175D01*
X277931Y306269D01*
X277209Y307209D01*
X276269Y307931D01*
X275175Y308384D01*
X274500Y308473D01*
D02*
G37*
G36*
X283500D02*
X282825Y308384D01*
X281731Y307931D01*
X280791Y307209D01*
X280069Y306269D01*
X279616Y305175D01*
X279527Y304500D01*
X283500D01*
Y308473D01*
D02*
G37*
G36*
X284500D02*
Y304500D01*
X288473D01*
X288384Y305175D01*
X287931Y306269D01*
X287209Y307209D01*
X286269Y307931D01*
X285175Y308384D01*
X284500Y308473D01*
D02*
G37*
G36*
X273500D02*
X272825Y308384D01*
X271731Y307931D01*
X270791Y307209D01*
X270069Y306269D01*
X269616Y305175D01*
X269527Y304500D01*
X273500D01*
Y308473D01*
D02*
G37*
G36*
X254500D02*
Y304500D01*
X258473D01*
X258384Y305175D01*
X257931Y306269D01*
X257209Y307209D01*
X256269Y307931D01*
X255175Y308384D01*
X254500Y308473D01*
D02*
G37*
G36*
X263500D02*
X262825Y308384D01*
X261731Y307931D01*
X260791Y307209D01*
X260069Y306269D01*
X259616Y305175D01*
X259527Y304500D01*
X263500D01*
Y308473D01*
D02*
G37*
G36*
X264500D02*
Y304500D01*
X268473D01*
X268384Y305175D01*
X267931Y306269D01*
X267209Y307209D01*
X266269Y307931D01*
X265175Y308384D01*
X264500Y308473D01*
D02*
G37*
G36*
X293500D02*
X292825Y308384D01*
X291731Y307931D01*
X290791Y307209D01*
X290069Y306269D01*
X289616Y305175D01*
X289527Y304500D01*
X293500D01*
Y308473D01*
D02*
G37*
G36*
X314500D02*
Y304500D01*
X318473D01*
X318384Y305175D01*
X317931Y306269D01*
X317209Y307209D01*
X316269Y307931D01*
X315175Y308384D01*
X314500Y308473D01*
D02*
G37*
G36*
X323500D02*
X322825Y308384D01*
X321731Y307931D01*
X320791Y307209D01*
X320069Y306269D01*
X319616Y305175D01*
X319527Y304500D01*
X323500D01*
Y308473D01*
D02*
G37*
G36*
X374500D02*
Y304500D01*
X378473D01*
X378384Y305175D01*
X377931Y306269D01*
X377209Y307209D01*
X376269Y307931D01*
X375175Y308384D01*
X374500Y308473D01*
D02*
G37*
G36*
X313500D02*
X312825Y308384D01*
X311731Y307931D01*
X310791Y307209D01*
X310069Y306269D01*
X309616Y305175D01*
X309527Y304500D01*
X313500D01*
Y308473D01*
D02*
G37*
G36*
X294500D02*
Y304500D01*
X298473D01*
X298384Y305175D01*
X297931Y306269D01*
X297209Y307209D01*
X296269Y307931D01*
X295175Y308384D01*
X294500Y308473D01*
D02*
G37*
G36*
X303500D02*
X302825Y308384D01*
X301731Y307931D01*
X300791Y307209D01*
X300069Y306269D01*
X299616Y305175D01*
X299527Y304500D01*
X303500D01*
Y308473D01*
D02*
G37*
G36*
X304500D02*
Y304500D01*
X308473D01*
X308384Y305175D01*
X307931Y306269D01*
X307209Y307209D01*
X306269Y307931D01*
X305175Y308384D01*
X304500Y308473D01*
D02*
G37*
G36*
X218500Y257464D02*
Y254500D01*
X221464D01*
X221410Y254914D01*
X221057Y255765D01*
X220496Y256496D01*
X219765Y257057D01*
X218914Y257410D01*
X218500Y257464D01*
D02*
G37*
G36*
X345000Y259500D02*
X343051D01*
X343145Y259025D01*
X343698Y258198D01*
X344525Y257645D01*
X345000Y257551D01*
Y259500D01*
D02*
G37*
G36*
X347950D02*
X346000D01*
Y257551D01*
X346476Y257645D01*
X347302Y258198D01*
X347855Y259025D01*
X347950Y259500D01*
D02*
G37*
G36*
X217500Y257464D02*
X217086Y257410D01*
X216235Y257057D01*
X215504Y256496D01*
X214943Y255765D01*
X214590Y254914D01*
X214536Y254500D01*
X217500D01*
Y257464D01*
D02*
G37*
G36*
X337000Y254964D02*
Y252000D01*
X339964D01*
X339910Y252414D01*
X339557Y253265D01*
X338996Y253996D01*
X338265Y254557D01*
X337414Y254910D01*
X337000Y254964D01*
D02*
G37*
G36*
X187500Y257464D02*
X187086Y257410D01*
X186235Y257057D01*
X185504Y256496D01*
X184943Y255765D01*
X184590Y254914D01*
X184536Y254500D01*
X187500D01*
Y257464D01*
D02*
G37*
G36*
X188500D02*
Y254500D01*
X191464D01*
X191410Y254914D01*
X191057Y255765D01*
X190496Y256496D01*
X189765Y257057D01*
X188914Y257410D01*
X188500Y257464D01*
D02*
G37*
G36*
X439000Y259500D02*
X437050D01*
X437145Y259025D01*
X437698Y258198D01*
X438524Y257645D01*
X439000Y257551D01*
Y259500D01*
D02*
G37*
G36*
X316500Y265030D02*
X315586Y264910D01*
X314735Y264557D01*
X314004Y263996D01*
X313443Y263265D01*
X313090Y262414D01*
X312970Y261500D01*
X313090Y260586D01*
X313443Y259735D01*
X314004Y259004D01*
X314735Y258443D01*
X315586Y258090D01*
X316500Y257970D01*
X317414Y258090D01*
X318265Y258443D01*
X318996Y259004D01*
X319557Y259735D01*
X319910Y260586D01*
X320030Y261500D01*
X319910Y262414D01*
X319557Y263265D01*
X318996Y263996D01*
X318265Y264557D01*
X317414Y264910D01*
X316500Y265030D01*
D02*
G37*
G36*
X336500D02*
X335586Y264910D01*
X334735Y264557D01*
X334004Y263996D01*
X333443Y263265D01*
X333090Y262414D01*
X332970Y261500D01*
X333090Y260586D01*
X333443Y259735D01*
X334004Y259004D01*
X334735Y258443D01*
X335586Y258090D01*
X336500Y257970D01*
X337414Y258090D01*
X338265Y258443D01*
X338996Y259004D01*
X339557Y259735D01*
X339910Y260586D01*
X340030Y261500D01*
X339910Y262414D01*
X339557Y263265D01*
X338996Y263996D01*
X338265Y264557D01*
X337414Y264910D01*
X336500Y265030D01*
D02*
G37*
G36*
X286000Y261000D02*
X283036D01*
X283090Y260586D01*
X283443Y259735D01*
X284004Y259004D01*
X284735Y258443D01*
X285586Y258090D01*
X286000Y258036D01*
Y261000D01*
D02*
G37*
G36*
X296500Y265030D02*
X295586Y264910D01*
X294735Y264557D01*
X294004Y263996D01*
X293443Y263265D01*
X293090Y262414D01*
X292970Y261500D01*
X293090Y260586D01*
X293443Y259735D01*
X294004Y259004D01*
X294735Y258443D01*
X295586Y258090D01*
X296500Y257970D01*
X297414Y258090D01*
X298265Y258443D01*
X298996Y259004D01*
X299557Y259735D01*
X299910Y260586D01*
X300030Y261500D01*
X299910Y262414D01*
X299557Y263265D01*
X298996Y263996D01*
X298265Y264557D01*
X297414Y264910D01*
X296500Y265030D01*
D02*
G37*
G36*
X441950Y259500D02*
X440000D01*
Y257551D01*
X440476Y257645D01*
X441302Y258198D01*
X441855Y259025D01*
X441950Y259500D01*
D02*
G37*
G36*
X266500Y265030D02*
X265586Y264910D01*
X264735Y264557D01*
X264004Y263996D01*
X263443Y263265D01*
X263090Y262414D01*
X262970Y261500D01*
X263090Y260586D01*
X263443Y259735D01*
X264004Y259004D01*
X264735Y258443D01*
X265586Y258090D01*
X266500Y257970D01*
X267414Y258090D01*
X268265Y258443D01*
X268996Y259004D01*
X269557Y259735D01*
X269910Y260586D01*
X270030Y261500D01*
X269910Y262414D01*
X269557Y263265D01*
X268996Y263996D01*
X268265Y264557D01*
X267414Y264910D01*
X266500Y265030D01*
D02*
G37*
G36*
X276500D02*
X275586Y264910D01*
X274735Y264557D01*
X274004Y263996D01*
X273443Y263265D01*
X273090Y262414D01*
X272970Y261500D01*
X273090Y260586D01*
X273443Y259735D01*
X274004Y259004D01*
X274735Y258443D01*
X275586Y258090D01*
X276500Y257970D01*
X277414Y258090D01*
X278265Y258443D01*
X278996Y259004D01*
X279557Y259735D01*
X279910Y260586D01*
X280030Y261500D01*
X279910Y262414D01*
X279557Y263265D01*
X278996Y263996D01*
X278265Y264557D01*
X277414Y264910D01*
X276500Y265030D01*
D02*
G37*
G36*
X266000Y251000D02*
X263036D01*
X263090Y250586D01*
X263443Y249735D01*
X264004Y249004D01*
X264735Y248443D01*
X265586Y248090D01*
X266000Y248036D01*
Y251000D01*
D02*
G37*
G36*
X269964D02*
X267000D01*
Y248036D01*
X267414Y248090D01*
X268265Y248443D01*
X268996Y249004D01*
X269557Y249735D01*
X269910Y250586D01*
X269964Y251000D01*
D02*
G37*
G36*
X336000D02*
X333036D01*
X333090Y250586D01*
X333443Y249735D01*
X334004Y249004D01*
X334735Y248443D01*
X335586Y248090D01*
X336000Y248036D01*
Y251000D01*
D02*
G37*
G36*
X346500Y255030D02*
X345586Y254910D01*
X344735Y254557D01*
X344004Y253996D01*
X343443Y253265D01*
X343090Y252414D01*
X342970Y251500D01*
X343090Y250586D01*
X343443Y249735D01*
X344004Y249004D01*
X344735Y248443D01*
X345586Y248090D01*
X346500Y247970D01*
X347414Y248090D01*
X348265Y248443D01*
X348996Y249004D01*
X349557Y249735D01*
X349910Y250586D01*
X350030Y251500D01*
X349910Y252414D01*
X349557Y253265D01*
X348996Y253996D01*
X348265Y254557D01*
X347414Y254910D01*
X346500Y255030D01*
D02*
G37*
G36*
X306500D02*
X305586Y254910D01*
X304735Y254557D01*
X304004Y253996D01*
X303443Y253265D01*
X303090Y252414D01*
X302970Y251500D01*
X303090Y250586D01*
X303443Y249735D01*
X304004Y249004D01*
X304735Y248443D01*
X305586Y248090D01*
X306500Y247970D01*
X307414Y248090D01*
X308265Y248443D01*
X308996Y249004D01*
X309557Y249735D01*
X309910Y250586D01*
X310030Y251500D01*
X309910Y252414D01*
X309557Y253265D01*
X308996Y253996D01*
X308265Y254557D01*
X307414Y254910D01*
X306500Y255030D01*
D02*
G37*
G36*
X316500D02*
X315586Y254910D01*
X314735Y254557D01*
X314004Y253996D01*
X313443Y253265D01*
X313090Y252414D01*
X312970Y251500D01*
X313090Y250586D01*
X313443Y249735D01*
X314004Y249004D01*
X314735Y248443D01*
X315586Y248090D01*
X316500Y247970D01*
X317414Y248090D01*
X318265Y248443D01*
X318996Y249004D01*
X319557Y249735D01*
X319910Y250586D01*
X320030Y251500D01*
X319910Y252414D01*
X319557Y253265D01*
X318996Y253996D01*
X318265Y254557D01*
X317414Y254910D01*
X316500Y255030D01*
D02*
G37*
G36*
X326500D02*
X325586Y254910D01*
X324735Y254557D01*
X324004Y253996D01*
X323443Y253265D01*
X323090Y252414D01*
X322970Y251500D01*
X323090Y250586D01*
X323443Y249735D01*
X324004Y249004D01*
X324735Y248443D01*
X325586Y248090D01*
X326500Y247970D01*
X327414Y248090D01*
X328265Y248443D01*
X328996Y249004D01*
X329557Y249735D01*
X329910Y250586D01*
X330030Y251500D01*
X329910Y252414D01*
X329557Y253265D01*
X328996Y253996D01*
X328265Y254557D01*
X327414Y254910D01*
X326500Y255030D01*
D02*
G37*
G36*
X339964Y251000D02*
X337000D01*
Y248036D01*
X337414Y248090D01*
X338265Y248443D01*
X338996Y249004D01*
X339557Y249735D01*
X339910Y250586D01*
X339964Y251000D01*
D02*
G37*
G36*
X266000Y254964D02*
X265586Y254910D01*
X264735Y254557D01*
X264004Y253996D01*
X263443Y253265D01*
X263090Y252414D01*
X263036Y252000D01*
X266000D01*
Y254964D01*
D02*
G37*
G36*
X267000D02*
Y252000D01*
X269964D01*
X269910Y252414D01*
X269557Y253265D01*
X268996Y253996D01*
X268265Y254557D01*
X267414Y254910D01*
X267000Y254964D01*
D02*
G37*
G36*
X336000D02*
X335586Y254910D01*
X334735Y254557D01*
X334004Y253996D01*
X333443Y253265D01*
X333090Y252414D01*
X333036Y252000D01*
X336000D01*
Y254964D01*
D02*
G37*
G36*
X221464Y253500D02*
X218500D01*
Y250536D01*
X218914Y250590D01*
X219765Y250943D01*
X220496Y251504D01*
X221057Y252235D01*
X221410Y253086D01*
X221464Y253500D01*
D02*
G37*
G36*
X187500D02*
X184536D01*
X184590Y253086D01*
X184943Y252235D01*
X185504Y251504D01*
X186235Y250943D01*
X187086Y250590D01*
X187500Y250536D01*
Y253500D01*
D02*
G37*
G36*
X191464D02*
X188500D01*
Y250536D01*
X188914Y250590D01*
X189765Y250943D01*
X190496Y251504D01*
X191057Y252235D01*
X191410Y253086D01*
X191464Y253500D01*
D02*
G37*
G36*
X217500D02*
X214536D01*
X214590Y253086D01*
X214943Y252235D01*
X215504Y251504D01*
X216235Y250943D01*
X217086Y250590D01*
X217500Y250536D01*
Y253500D01*
D02*
G37*
G36*
X275700Y281464D02*
X275286Y281410D01*
X274435Y281057D01*
X273704Y280496D01*
X273143Y279765D01*
X272790Y278914D01*
X272736Y278500D01*
X275700D01*
Y281464D01*
D02*
G37*
G36*
X276700D02*
Y278500D01*
X279664D01*
X279610Y278914D01*
X279257Y279765D01*
X278696Y280496D01*
X277965Y281057D01*
X277114Y281410D01*
X276700Y281464D01*
D02*
G37*
G36*
X296500D02*
X296086Y281410D01*
X295235Y281057D01*
X294504Y280496D01*
X293943Y279765D01*
X293590Y278914D01*
X293536Y278500D01*
X296500D01*
Y281464D01*
D02*
G37*
G36*
X441950Y279500D02*
X440000D01*
Y277551D01*
X440476Y277645D01*
X441302Y278198D01*
X441855Y279025D01*
X441950Y279500D01*
D02*
G37*
G36*
X169000D02*
X167051D01*
X167145Y279025D01*
X167698Y278198D01*
X168525Y277645D01*
X169000Y277551D01*
Y279500D01*
D02*
G37*
G36*
X171950D02*
X170000D01*
Y277551D01*
X170475Y277645D01*
X171302Y278198D01*
X171855Y279025D01*
X171950Y279500D01*
D02*
G37*
G36*
X439000D02*
X437050D01*
X437145Y279025D01*
X437698Y278198D01*
X438524Y277645D01*
X439000Y277551D01*
Y279500D01*
D02*
G37*
G36*
X297500Y281464D02*
Y278500D01*
X300464D01*
X300410Y278914D01*
X300057Y279765D01*
X299496Y280496D01*
X298765Y281057D01*
X297914Y281410D01*
X297500Y281464D01*
D02*
G37*
G36*
X213500Y303500D02*
X209527D01*
X209616Y302825D01*
X210069Y301731D01*
X210791Y300791D01*
X211731Y300069D01*
X212825Y299616D01*
X213500Y299527D01*
Y303500D01*
D02*
G37*
G36*
X218473D02*
X214500D01*
Y299527D01*
X215175Y299616D01*
X216269Y300069D01*
X217209Y300791D01*
X217931Y301731D01*
X218384Y302825D01*
X218473Y303500D01*
D02*
G37*
G36*
X223500D02*
X219527D01*
X219616Y302825D01*
X220069Y301731D01*
X220791Y300791D01*
X221731Y300069D01*
X222825Y299616D01*
X223500Y299527D01*
Y303500D01*
D02*
G37*
G36*
X440000Y282450D02*
Y280500D01*
X441950D01*
X441855Y280976D01*
X441302Y281802D01*
X440476Y282355D01*
X440000Y282450D01*
D02*
G37*
G36*
X169000D02*
X168525Y282355D01*
X167698Y281802D01*
X167145Y280976D01*
X167051Y280500D01*
X169000D01*
Y282450D01*
D02*
G37*
G36*
X170000D02*
Y280500D01*
X171950D01*
X171855Y280976D01*
X171302Y281802D01*
X170475Y282355D01*
X170000Y282450D01*
D02*
G37*
G36*
X439000D02*
X438524Y282355D01*
X437698Y281802D01*
X437145Y280976D01*
X437050Y280500D01*
X439000D01*
Y282450D01*
D02*
G37*
G36*
X346000Y262450D02*
Y260500D01*
X347950D01*
X347855Y260976D01*
X347302Y261802D01*
X346476Y262355D01*
X346000Y262450D01*
D02*
G37*
G36*
X439000D02*
X438524Y262355D01*
X437698Y261802D01*
X437145Y260976D01*
X437050Y260500D01*
X439000D01*
Y262450D01*
D02*
G37*
G36*
X440000D02*
Y260500D01*
X441950D01*
X441855Y260976D01*
X441302Y261802D01*
X440476Y262355D01*
X440000Y262450D01*
D02*
G37*
G36*
X345000D02*
X344525Y262355D01*
X343698Y261802D01*
X343145Y260976D01*
X343051Y260500D01*
X345000D01*
Y262450D01*
D02*
G37*
G36*
X289964Y261000D02*
X287000D01*
Y258036D01*
X287414Y258090D01*
X288265Y258443D01*
X288996Y259004D01*
X289557Y259735D01*
X289910Y260586D01*
X289964Y261000D01*
D02*
G37*
G36*
X306000D02*
X303036D01*
X303090Y260586D01*
X303443Y259735D01*
X304004Y259004D01*
X304735Y258443D01*
X305586Y258090D01*
X306000Y258036D01*
Y261000D01*
D02*
G37*
G36*
X309964D02*
X307000D01*
Y258036D01*
X307414Y258090D01*
X308265Y258443D01*
X308996Y259004D01*
X309557Y259735D01*
X309910Y260586D01*
X309964Y261000D01*
D02*
G37*
G36*
X286000Y264964D02*
X285586Y264910D01*
X284735Y264557D01*
X284004Y263996D01*
X283443Y263265D01*
X283090Y262414D01*
X283036Y262000D01*
X286000D01*
Y264964D01*
D02*
G37*
G36*
X279664Y277500D02*
X276700D01*
Y274536D01*
X277114Y274590D01*
X277965Y274943D01*
X278696Y275504D01*
X279257Y276235D01*
X279610Y277086D01*
X279664Y277500D01*
D02*
G37*
G36*
X296500D02*
X293536D01*
X293590Y277086D01*
X293943Y276235D01*
X294504Y275504D01*
X295235Y274943D01*
X296086Y274590D01*
X296500Y274536D01*
Y277500D01*
D02*
G37*
G36*
X300464D02*
X297500D01*
Y274536D01*
X297914Y274590D01*
X298765Y274943D01*
X299496Y275504D01*
X300057Y276235D01*
X300410Y277086D01*
X300464Y277500D01*
D02*
G37*
G36*
X275700D02*
X272736D01*
X272790Y277086D01*
X273143Y276235D01*
X273704Y275504D01*
X274435Y274943D01*
X275286Y274590D01*
X275700Y274536D01*
Y277500D01*
D02*
G37*
G36*
X287000Y264964D02*
Y262000D01*
X289964D01*
X289910Y262414D01*
X289557Y263265D01*
X288996Y263996D01*
X288265Y264557D01*
X287414Y264910D01*
X287000Y264964D01*
D02*
G37*
G36*
X306000D02*
X305586Y264910D01*
X304735Y264557D01*
X304004Y263996D01*
X303443Y263265D01*
X303090Y262414D01*
X303036Y262000D01*
X306000D01*
Y264964D01*
D02*
G37*
G36*
X307000D02*
Y262000D01*
X309964D01*
X309910Y262414D01*
X309557Y263265D01*
X308996Y263996D01*
X308265Y264557D01*
X307414Y264910D01*
X307000Y264964D01*
D02*
G37*
%LPD*%
D10*
X349000Y115000D02*
D03*
X149000D02*
D03*
X159000D02*
D03*
X169000D02*
D03*
X179000D02*
D03*
X189000D02*
D03*
X199000D02*
D03*
X209000D02*
D03*
X219000D02*
D03*
X229000D02*
D03*
X239000D02*
D03*
X249000D02*
D03*
X259000D02*
D03*
X269000D02*
D03*
X279000D02*
D03*
X289000D02*
D03*
X299000D02*
D03*
X309000D02*
D03*
X319000D02*
D03*
X329000D02*
D03*
X339000D02*
D03*
X359000D02*
D03*
X369000D02*
D03*
X379000D02*
D03*
X389000D02*
D03*
X399000D02*
D03*
X409000D02*
D03*
X419000D02*
D03*
X429000D02*
D03*
X439000D02*
D03*
X449000D02*
D03*
D11*
X341500Y226500D02*
X362000D01*
X336500Y221500D02*
X341500Y226500D01*
X306000Y184000D02*
X310500D01*
Y184500D02*
Y187500D01*
X188000Y194000D02*
X201000D01*
X204500D02*
X208000D01*
X206000Y177000D02*
Y186000D01*
X203000Y174000D02*
X206000Y177000D01*
Y186000D02*
X208453Y188453D01*
X191000Y144000D02*
X199000Y152000D01*
X169000Y139000D02*
X186000Y156000D01*
X179000Y139000D02*
X194000Y154000D01*
X199000Y152000D02*
X240000D01*
X194000Y154000D02*
X236000D01*
X186000Y156000D02*
X235000D01*
X241000Y206000D02*
X260000D01*
X238000Y209000D02*
X241000Y206000D01*
X201000Y209000D02*
X238000D01*
X199000Y204000D02*
X203500Y199500D01*
X239000D01*
X208453Y188453D02*
X238953D01*
X239000Y188500D01*
X242000Y192657D02*
X246343Y197000D01*
X252000D01*
X246500Y191500D02*
X250500Y187500D01*
X252500Y177500D02*
X256500Y181500D01*
X252000Y197000D02*
X256500Y201500D01*
X260000Y206000D02*
X264000Y202000D01*
Y194000D02*
Y202000D01*
X188000Y174000D02*
X203000D01*
X188000Y204000D02*
X199000D01*
X256500Y191500D02*
X261500D01*
X264000Y194000D01*
X196000Y214000D02*
X201000Y209000D01*
X188000Y214000D02*
X196000D01*
X218000Y137000D02*
X335000D01*
X338000Y140000D01*
X347000D01*
X233000Y134000D02*
X339000D01*
X159000Y115000D02*
Y151500D01*
X315000Y184000D02*
Y186000D01*
X318500Y180500D02*
X322500D01*
X315000Y184000D02*
X318500Y180500D01*
X322500D02*
X326500Y176500D01*
X292000Y166000D02*
X296500Y161500D01*
X292000Y166000D02*
Y185000D01*
X298000Y191000D01*
X310500D01*
X320500D01*
X326500Y171500D02*
Y176500D01*
X313500Y187500D02*
X315000Y186000D01*
X310500Y187500D02*
X313500D01*
X341500Y176500D02*
Y185000D01*
Y176500D02*
X346500Y171500D01*
X369000Y279000D02*
Y309000D01*
X374000Y314000D01*
X359000Y279000D02*
Y309000D01*
X354000Y314000D02*
X359000Y309000D01*
X349000Y279000D02*
Y309000D01*
X344000Y314000D02*
X349000Y309000D01*
X334000Y314000D02*
X339000Y309000D01*
Y279000D02*
Y309000D01*
X329000Y279000D02*
Y319100D01*
X326700Y321400D02*
X329000Y319100D01*
X246600Y321400D02*
X326700D01*
X244000Y314000D02*
X244100Y314100D01*
Y318900D01*
X246600Y321400D01*
X179000Y115000D02*
Y139000D01*
X169000Y115000D02*
Y139000D01*
X200000Y135000D02*
Y140157D01*
X207843Y148000D01*
X206000Y150000D02*
X242657D01*
X195000Y139000D02*
X206000Y150000D01*
X250500Y168500D02*
Y187500D01*
X235000Y156000D02*
X242000Y163000D01*
Y192657D01*
X236000Y154000D02*
X250500Y168500D01*
X256500Y161015D02*
Y161500D01*
X207843Y148000D02*
X243485D01*
X256500Y161015D01*
X242657Y150000D02*
X252500Y159843D01*
Y177500D01*
X240000Y152000D02*
X247000Y159000D01*
Y160000D01*
X320500Y187500D02*
Y191000D01*
X339500Y187000D02*
X341500Y185000D01*
X320500Y187500D02*
X321000Y187000D01*
X339500D01*
D12*
X168000Y269000D02*
X177000Y278000D01*
X168000Y169000D02*
Y269000D01*
Y169000D02*
X172985Y164015D01*
X176800D01*
X438250Y269750D02*
X449000Y259000D01*
X363300Y165015D02*
X363315Y165000D01*
X381000D01*
X439000Y115000D02*
Y132500D01*
X449000Y115000D02*
Y132500D01*
X229185Y236500D02*
X235500Y242815D01*
X229185Y226500D02*
Y236500D01*
Y226500D02*
X251500D01*
X229000Y226315D02*
X229185Y226500D01*
X378500Y269750D02*
X379000Y270250D01*
X326000Y269750D02*
X326500Y269250D01*
X316685Y271315D02*
X318250Y269750D01*
X296415Y145000D02*
Y161415D01*
X296500Y161500D01*
X256500Y261500D02*
X256515Y261515D01*
Y278000D01*
X251500Y226500D02*
X256500Y221500D01*
X187985Y164015D02*
X188000Y164000D01*
X176800Y164015D02*
X187985D01*
X326500Y267000D02*
X329250Y269750D01*
X326500Y261500D02*
Y267000D01*
Y269250D01*
X326000Y269750D02*
X329250D01*
X324000Y269500D02*
X326500Y267000D01*
X324000Y269500D02*
Y269750D01*
X326000D01*
X316685Y273000D02*
X319935Y269750D01*
X320000D01*
X316685Y271315D02*
Y273000D01*
Y278000D01*
X318250Y269750D02*
X319935D01*
X324000D01*
X314000Y270315D02*
X316685Y273000D01*
X314000Y269750D02*
Y270315D01*
Y269750D02*
X318250D01*
X235500Y274000D02*
X239000Y277500D01*
Y278000D01*
X235500Y242815D02*
Y274000D01*
Y278000D01*
X239000D01*
X256515D01*
X231500D02*
X235500Y274000D01*
X177000Y278000D02*
X231500D01*
X235500D01*
X445000Y156000D02*
X449000Y160000D01*
Y156000D02*
Y160000D01*
Y259000D01*
X439000Y156000D02*
X445000D01*
X449000D01*
X445000D02*
X449000Y152000D01*
Y132500D02*
Y152000D01*
Y156000D01*
X379000Y272750D02*
Y279000D01*
Y272750D02*
X382000Y269750D01*
X379000Y270250D02*
Y272750D01*
X378500Y269750D02*
X382000D01*
X438250D01*
X376000D02*
X379000Y272750D01*
X329250Y269750D02*
X376000D01*
X378500D01*
X256515Y278000D02*
X264000D01*
X272250Y269750D01*
X314000D01*
X363300Y156200D02*
X363500Y156000D01*
X359800D02*
X363300Y159500D01*
Y156200D02*
Y159500D01*
Y165015D01*
X359800Y156000D02*
X363500D01*
X363300Y159500D02*
X366800Y156000D01*
X367500D01*
X363500D02*
X366800D01*
X439000D01*
X296415Y145000D02*
X304500D01*
X315500Y156000D01*
X359800D01*
X207500Y142000D02*
X244500D01*
X247500Y145000D01*
X296415D01*
D13*
X374000Y314000D02*
D03*
Y304000D02*
D03*
X364000Y314000D02*
D03*
Y304000D02*
D03*
X354000Y314000D02*
D03*
Y304000D02*
D03*
X344000Y314000D02*
D03*
Y304000D02*
D03*
X334000Y314000D02*
D03*
Y304000D02*
D03*
X324000Y314000D02*
D03*
Y304000D02*
D03*
X314000Y314000D02*
D03*
Y304000D02*
D03*
X304000Y314000D02*
D03*
Y304000D02*
D03*
X294000Y314000D02*
D03*
X254000Y304000D02*
D03*
X294000D02*
D03*
X284000Y314000D02*
D03*
Y304000D02*
D03*
X274000Y314000D02*
D03*
Y304000D02*
D03*
X264000Y314000D02*
D03*
Y304000D02*
D03*
X254000Y314000D02*
D03*
X244000D02*
D03*
Y304000D02*
D03*
X234000Y314000D02*
D03*
Y304000D02*
D03*
X224000Y314000D02*
D03*
Y304000D02*
D03*
X214000D02*
D03*
Y314000D02*
D03*
D14*
X439000Y146158D02*
D03*
X381000Y195000D02*
D03*
Y165000D02*
D03*
X411000Y195000D02*
D03*
X176800Y164015D02*
D03*
Y183700D02*
D03*
X369000Y279000D02*
D03*
X359000D02*
D03*
X349000D02*
D03*
X339000D02*
D03*
X329000D02*
D03*
X363300Y226700D02*
D03*
Y216700D02*
D03*
X296415Y145000D02*
D03*
X316100D02*
D03*
X256500Y211500D02*
D03*
X246500Y201500D02*
D03*
X256500D02*
D03*
X246500Y191500D02*
D03*
X256500D02*
D03*
X246500Y181500D02*
D03*
X256500D02*
D03*
X246500Y171500D02*
D03*
X256500Y161500D02*
D03*
Y171500D02*
D03*
X266500Y161500D02*
D03*
Y171500D02*
D03*
X276500Y161500D02*
D03*
Y171500D02*
D03*
X286500Y161500D02*
D03*
Y171500D02*
D03*
X296500Y161500D02*
D03*
Y171500D02*
D03*
X306500Y161500D02*
D03*
Y171500D02*
D03*
X316500Y161500D02*
D03*
Y171500D02*
D03*
X326500Y161500D02*
D03*
Y171500D02*
D03*
X336500Y161500D02*
D03*
X346500Y171500D02*
D03*
X336500D02*
D03*
X346500Y181500D02*
D03*
X336500D02*
D03*
X346500Y191500D02*
D03*
X336500D02*
D03*
X346500Y201500D02*
D03*
X336500D02*
D03*
X346500Y211500D02*
D03*
X336500D02*
D03*
X346500Y221500D02*
D03*
X336500D02*
D03*
X346500Y231500D02*
D03*
X336500D02*
D03*
X346500Y241500D02*
D03*
X336500D02*
D03*
X346500Y251500D02*
D03*
X336500Y261500D02*
D03*
Y251500D02*
D03*
X326500Y261500D02*
D03*
Y251500D02*
D03*
X316500Y261500D02*
D03*
Y251500D02*
D03*
X306500Y261500D02*
D03*
Y251500D02*
D03*
X296500Y261500D02*
D03*
Y251500D02*
D03*
X286500Y261500D02*
D03*
Y251500D02*
D03*
X276500Y261500D02*
D03*
Y251500D02*
D03*
X266500Y261500D02*
D03*
Y251500D02*
D03*
X256500Y261500D02*
D03*
X246500Y251500D02*
D03*
X256500D02*
D03*
X246500Y241500D02*
D03*
X256500D02*
D03*
X246500Y231500D02*
D03*
X256500D02*
D03*
X246500Y221500D02*
D03*
X256500D02*
D03*
X316685Y278000D02*
D03*
X297000D02*
D03*
X256515D02*
D03*
X276200D02*
D03*
X229000Y226315D02*
D03*
Y246000D02*
D03*
X218000Y174000D02*
D03*
Y184000D02*
D03*
Y194000D02*
D03*
Y204000D02*
D03*
Y214000D02*
D03*
Y224000D02*
D03*
Y234000D02*
D03*
Y244000D02*
D03*
Y254000D02*
D03*
X188000Y164000D02*
D03*
Y174000D02*
D03*
Y184000D02*
D03*
Y194000D02*
D03*
Y204000D02*
D03*
Y214000D02*
D03*
Y224000D02*
D03*
Y234000D02*
D03*
Y244000D02*
D03*
Y254000D02*
D03*
X363300Y165015D02*
D03*
Y184700D02*
D03*
X207500Y142000D02*
D03*
X439000Y132500D02*
D03*
X449000D02*
D03*
D15*
X439000Y156000D02*
D03*
X246500Y211500D02*
D03*
D16*
X411000Y165000D02*
D03*
X379000Y279000D02*
D03*
X218000Y164000D02*
D03*
D17*
X300500Y184000D02*
D03*
X169500Y280000D02*
D03*
X439500D02*
D03*
X439000Y176500D02*
D03*
X209500Y134500D02*
D03*
X269500Y198000D02*
D03*
X306000Y198500D02*
D03*
X269500Y226000D02*
D03*
X306500D02*
D03*
X439500Y260000D02*
D03*
X345500D02*
D03*
Y162000D02*
D03*
X261500Y156000D02*
D03*
X208000Y194000D02*
D03*
X195000Y139000D02*
D03*
X191000Y144000D02*
D03*
X239000Y199500D02*
D03*
Y188500D02*
D03*
X218000Y137000D02*
D03*
X339000Y134000D02*
D03*
X233000D02*
D03*
X347000Y140000D02*
D03*
X159000Y151500D02*
D03*
X200000Y135000D02*
D03*
X247000Y160000D02*
D03*
D18*
X204500Y194000D02*
D03*
X201000D02*
D03*
D19*
X310500Y184000D02*
D03*
Y187500D02*
D03*
Y191000D02*
D03*
X320500Y184000D02*
D03*
Y187500D02*
D03*
Y191000D02*
D03*
M02*
