G04 Layer_Physical_Order=1*
G04 Layer_Color=25308*
%FSLAX25Y25*%
%MOIN*%
G70*
G01*
G75*
G04:AMPARAMS|DCode=10|XSize=60mil|YSize=275mil|CornerRadius=6mil|HoleSize=0mil|Usage=FLASHONLY|Rotation=0.000|XOffset=0mil|YOffset=0mil|HoleType=Round|Shape=RoundedRectangle|*
%AMROUNDEDRECTD10*
21,1,0.06000,0.26300,0,0,0.0*
21,1,0.04800,0.27500,0,0,0.0*
1,1,0.01200,0.02400,-0.13150*
1,1,0.01200,-0.02400,-0.13150*
1,1,0.01200,-0.02400,0.13150*
1,1,0.01200,0.02400,0.13150*
%
%ADD10ROUNDEDRECTD10*%
%ADD11C,0.01000*%
%ADD12C,0.03000*%
%ADD13C,0.07000*%
%ADD14C,0.05000*%
%ADD15R,0.05000X0.05000*%
%ADD16R,0.05000X0.05000*%
%ADD17C,0.03000*%
G36*
X306047Y174971D02*
X305586Y174910D01*
X304735Y174557D01*
X304004Y173996D01*
X303443Y173265D01*
X303090Y172414D01*
X303036Y172000D01*
X306500D01*
Y171500D01*
X307000D01*
Y168036D01*
X307414Y168090D01*
X308265Y168443D01*
X308996Y169004D01*
X309156Y169212D01*
X309752Y169168D01*
X309919Y168919D01*
X312919Y165919D01*
X313415Y165587D01*
X314000Y165471D01*
X316015D01*
X316047Y164971D01*
X315586Y164910D01*
X314735Y164557D01*
X314004Y163996D01*
X313443Y163265D01*
X313090Y162414D01*
X312970Y161500D01*
X313090Y160586D01*
X313443Y159735D01*
X314004Y159004D01*
X314735Y158443D01*
X315586Y158090D01*
X316500Y157970D01*
X316825Y158012D01*
X317346Y157491D01*
X317154Y157029D01*
X308633D01*
X308029Y157633D01*
Y158345D01*
X308265Y158443D01*
X308996Y159004D01*
X309557Y159735D01*
X309910Y160586D01*
X310030Y161500D01*
X309910Y162414D01*
X309557Y163265D01*
X308996Y163996D01*
X308265Y164557D01*
X307414Y164910D01*
X306500Y165030D01*
X305586Y164910D01*
X304735Y164557D01*
X304029Y164016D01*
X303858Y164044D01*
X303529Y164156D01*
Y166000D01*
X303432Y166488D01*
X303413Y166585D01*
X303081Y167081D01*
X299812Y170351D01*
X299910Y170586D01*
X300030Y171500D01*
X299910Y172414D01*
X299557Y173265D01*
X298996Y173996D01*
X298265Y174557D01*
X297414Y174910D01*
X296953Y174971D01*
X296985Y175471D01*
X306015D01*
X306047Y174971D01*
D02*
G37*
G36*
X300471Y161015D02*
Y158672D01*
X300587Y158086D01*
X300919Y157590D01*
X305017Y153491D01*
X304826Y153029D01*
X296133D01*
X293429Y155734D01*
Y158931D01*
X293929Y159101D01*
X294004Y159004D01*
X294735Y158443D01*
X295586Y158090D01*
X296500Y157970D01*
X297414Y158090D01*
X298265Y158443D01*
X298996Y159004D01*
X299557Y159735D01*
X299910Y160586D01*
X299971Y161047D01*
X300471Y161015D01*
D02*
G37*
G36*
X242919Y185919D02*
X243415Y185587D01*
X244000Y185471D01*
X246015D01*
X246047Y184971D01*
X245586Y184910D01*
X244735Y184557D01*
X244004Y183996D01*
X243443Y183265D01*
X243090Y182414D01*
X242970Y181500D01*
X243090Y180586D01*
X243443Y179735D01*
X244004Y179004D01*
X244735Y178443D01*
X245586Y178090D01*
X246500Y177970D01*
X247414Y178090D01*
X247649Y178188D01*
X250471Y175366D01*
Y171985D01*
X250469Y171985D01*
Y171015D01*
X250471Y171015D01*
Y165633D01*
X247322Y162485D01*
X247000Y162549D01*
X246024Y162355D01*
X245198Y161802D01*
X244645Y160976D01*
X244451Y160000D01*
X244645Y159025D01*
X245198Y158198D01*
X246024Y157645D01*
X247000Y157451D01*
X247975Y157645D01*
X248802Y158198D01*
X249355Y159025D01*
X249549Y160000D01*
X249485Y160322D01*
X253081Y163919D01*
X253413Y164415D01*
X253529Y165000D01*
Y168844D01*
X253858Y168956D01*
X254029Y168984D01*
X254735Y168443D01*
X255586Y168090D01*
X256500Y167970D01*
X257414Y168090D01*
X257649Y168188D01*
X260471Y165366D01*
Y161985D01*
X259971Y161953D01*
X259910Y162414D01*
X259557Y163265D01*
X258996Y163996D01*
X258265Y164557D01*
X257414Y164910D01*
X256500Y165030D01*
X255586Y164910D01*
X254735Y164557D01*
X254004Y163996D01*
X253443Y163265D01*
X253090Y162414D01*
X252970Y161500D01*
X253090Y160586D01*
X253443Y159735D01*
X254004Y159004D01*
X254735Y158443D01*
X255586Y158090D01*
X256500Y157970D01*
X257414Y158090D01*
X258265Y158443D01*
X258996Y159004D01*
X259557Y159735D01*
X259910Y160586D01*
X259971Y161047D01*
X260471Y161015D01*
Y160000D01*
X260587Y159415D01*
X260919Y158919D01*
X260948Y158889D01*
X260803Y158410D01*
X260525Y158355D01*
X259698Y157802D01*
X259145Y156975D01*
X259050Y156500D01*
X261500D01*
Y156000D01*
X262000D01*
Y153551D01*
X262475Y153645D01*
X263302Y154198D01*
X263855Y155025D01*
X263932Y155410D01*
X264291Y155559D01*
X264474Y155575D01*
X265000Y155471D01*
X270710D01*
X279151Y147029D01*
X278944Y146529D01*
X253776D01*
X237529Y162776D01*
Y185946D01*
X237970Y186181D01*
X238024Y186145D01*
X239000Y185951D01*
X239976Y186145D01*
X240802Y186698D01*
X240985Y186971D01*
X241866D01*
X242919Y185919D01*
D02*
G37*
G36*
X334004Y229004D02*
X334735Y228443D01*
X335586Y228090D01*
X336500Y227970D01*
X337414Y228090D01*
X338265Y228443D01*
X338522Y228640D01*
X338971Y228419D01*
Y224581D01*
X338522Y224360D01*
X338265Y224557D01*
X337414Y224910D01*
X336500Y225030D01*
X335586Y224910D01*
X334735Y224557D01*
X334004Y223996D01*
X333443Y223265D01*
X333090Y222414D01*
X332970Y221500D01*
X333090Y220586D01*
X333443Y219735D01*
X334004Y219004D01*
X334735Y218443D01*
X335586Y218090D01*
X336500Y217970D01*
X337414Y218090D01*
X338265Y218443D01*
X338522Y218640D01*
X338971Y218419D01*
Y214581D01*
X338522Y214360D01*
X338265Y214557D01*
X337414Y214910D01*
X337000Y214964D01*
Y211500D01*
Y208036D01*
X337414Y208090D01*
X338265Y208443D01*
X338522Y208640D01*
X338971Y208419D01*
Y204581D01*
X338522Y204360D01*
X338265Y204557D01*
X337414Y204910D01*
X336500Y205030D01*
X335586Y204910D01*
X334735Y204557D01*
X334004Y203996D01*
X333443Y203265D01*
X333090Y202414D01*
X332970Y201500D01*
X333090Y200586D01*
X333443Y199735D01*
X334004Y199004D01*
X334735Y198443D01*
X335586Y198090D01*
X336500Y197970D01*
X337414Y198090D01*
X338265Y198443D01*
X338522Y198640D01*
X338971Y198419D01*
Y194581D01*
X338522Y194360D01*
X338265Y194557D01*
X337414Y194910D01*
X336500Y195030D01*
X335586Y194910D01*
X334735Y194557D01*
X334004Y193996D01*
X333443Y193265D01*
X333345Y193029D01*
X328500D01*
X327915Y192913D01*
X327419Y192581D01*
X320919Y186081D01*
X320587Y185585D01*
X320471Y185000D01*
Y171985D01*
X319971Y171953D01*
X319910Y172414D01*
X319557Y173265D01*
X318996Y173996D01*
X318265Y174557D01*
X317414Y174910D01*
X316500Y175030D01*
X315586Y174910D01*
X315351Y174812D01*
X310081Y180081D01*
X309585Y180413D01*
X309000Y180529D01*
X277634D01*
X261081Y197081D01*
X260585Y197413D01*
X260000Y197529D01*
X256985D01*
X256953Y198029D01*
X257414Y198090D01*
X258265Y198443D01*
X258996Y199004D01*
X259557Y199735D01*
X259910Y200586D01*
X260030Y201500D01*
X259910Y202414D01*
X259557Y203265D01*
X258996Y203996D01*
X258265Y204557D01*
X257414Y204910D01*
X256500Y205030D01*
X255586Y204910D01*
X254735Y204557D01*
X254004Y203996D01*
X253443Y203265D01*
X253090Y202414D01*
X252970Y201500D01*
X253090Y200586D01*
X253443Y199735D01*
X254004Y199004D01*
X254735Y198443D01*
X255586Y198090D01*
X256047Y198029D01*
X256015Y197529D01*
X246985D01*
X246953Y198029D01*
X247414Y198090D01*
X248265Y198443D01*
X248996Y199004D01*
X249557Y199735D01*
X249910Y200586D01*
X250030Y201500D01*
X249910Y202414D01*
X249557Y203265D01*
X248996Y203996D01*
X248265Y204557D01*
X247414Y204910D01*
X246586Y205019D01*
X244105Y207500D01*
X244184Y208000D01*
X247837D01*
X249419Y206419D01*
X249915Y206087D01*
X250012Y206068D01*
X250500Y205971D01*
X312500D01*
X313085Y206087D01*
X313581Y206419D01*
X332581Y225419D01*
X332913Y225915D01*
X333029Y226500D01*
Y229493D01*
X333529Y229622D01*
X334004Y229004D01*
D02*
G37*
G36*
X244738Y195099D02*
X244736Y194790D01*
X244689Y194552D01*
X244653Y194494D01*
X244004Y193996D01*
X243443Y193265D01*
X243090Y192414D01*
X242970Y191500D01*
X243090Y190586D01*
X243164Y190407D01*
X242805Y189969D01*
X242500Y190029D01*
X240985D01*
X240802Y190302D01*
X239976Y190855D01*
X239000Y191049D01*
X238024Y190855D01*
X237970Y190819D01*
X237529Y191054D01*
Y196946D01*
X237970Y197181D01*
X238024Y197145D01*
X239000Y196951D01*
X239976Y197145D01*
X240802Y197698D01*
X240985Y197971D01*
X241866D01*
X244738Y195099D01*
D02*
G37*
G36*
X357471Y132367D02*
Y130500D01*
X340529D01*
Y132015D01*
X340802Y132198D01*
X341355Y133025D01*
X341549Y134000D01*
X341355Y134976D01*
X340802Y135802D01*
X339976Y136355D01*
X339000Y136549D01*
X338024Y136355D01*
X337198Y135802D01*
X336645Y134976D01*
X336451Y134000D01*
X336645Y133025D01*
X337198Y132198D01*
X337471Y132015D01*
Y130500D01*
X320816D01*
X320648Y131000D01*
X328119Y138471D01*
X345015D01*
X345198Y138198D01*
X346024Y137645D01*
X347000Y137451D01*
X347975Y137645D01*
X348802Y138198D01*
X349355Y139024D01*
X349480Y139650D01*
X350022Y139815D01*
X357471Y132367D01*
D02*
G37*
G36*
X313546Y147421D02*
X313043Y146765D01*
X312690Y145914D01*
X312636Y145500D01*
X316100D01*
Y144500D01*
X312636D01*
X312690Y144086D01*
X313043Y143235D01*
X313584Y142529D01*
X313556Y142358D01*
X313444Y142029D01*
X299071D01*
X298959Y142358D01*
X298931Y142529D01*
X299472Y143235D01*
X299825Y144086D01*
X299945Y145000D01*
X299825Y145914D01*
X299472Y146765D01*
X298969Y147421D01*
X299100Y147921D01*
X313415D01*
X313546Y147421D01*
D02*
G37*
G36*
X296047Y174971D02*
X295586Y174910D01*
X294735Y174557D01*
X294004Y173996D01*
X293443Y173265D01*
X293090Y172414D01*
X292970Y171500D01*
X293090Y170586D01*
X293443Y169735D01*
X294004Y169004D01*
X294735Y168443D01*
X295586Y168090D01*
X296500Y167970D01*
X297414Y168090D01*
X297649Y168188D01*
X300471Y165366D01*
Y161985D01*
X299971Y161953D01*
X299910Y162414D01*
X299557Y163265D01*
X298996Y163996D01*
X298265Y164557D01*
X297414Y164910D01*
X296500Y165030D01*
X295586Y164910D01*
X294735Y164557D01*
X294004Y163996D01*
X293929Y163899D01*
X293429Y164069D01*
Y166100D01*
X293313Y166685D01*
X292981Y167181D01*
X289812Y170351D01*
X289910Y170586D01*
X290030Y171500D01*
X289910Y172414D01*
X289557Y173265D01*
X288996Y173996D01*
X288265Y174557D01*
X287414Y174910D01*
X286953Y174971D01*
X286985Y175471D01*
X296015D01*
X296047Y174971D01*
D02*
G37*
G36*
X264004Y259004D02*
X264735Y258443D01*
X265586Y258090D01*
X266500Y257970D01*
X267414Y258090D01*
X268265Y258443D01*
X268996Y259004D01*
X269471Y259622D01*
X269971Y259493D01*
Y253507D01*
X269471Y253378D01*
X268996Y253996D01*
X268265Y254557D01*
X267414Y254910D01*
X267000Y254964D01*
Y251500D01*
X266500D01*
Y251000D01*
X263036D01*
X263090Y250586D01*
X263443Y249735D01*
X263640Y249478D01*
X263419Y249029D01*
X259581D01*
X259360Y249478D01*
X259557Y249735D01*
X259910Y250586D01*
X260030Y251500D01*
X259910Y252414D01*
X259812Y252649D01*
X262581Y255419D01*
X262913Y255915D01*
X263029Y256500D01*
Y259493D01*
X263529Y259622D01*
X264004Y259004D01*
D02*
G37*
G36*
X352471Y276993D02*
Y250133D01*
X349366Y247029D01*
X344000D01*
X343415Y246913D01*
X342919Y246581D01*
X339933Y243596D01*
X339270Y243640D01*
X338996Y243996D01*
X338378Y244471D01*
X338507Y244971D01*
X339000D01*
X339585Y245087D01*
X340081Y245419D01*
X342581Y247919D01*
X342913Y248415D01*
X342932Y248512D01*
X343029Y249000D01*
Y249493D01*
X343529Y249622D01*
X344004Y249004D01*
X344735Y248443D01*
X345586Y248090D01*
X346500Y247970D01*
X347414Y248090D01*
X348265Y248443D01*
X348996Y249004D01*
X349557Y249735D01*
X349910Y250586D01*
X350030Y251500D01*
X349910Y252414D01*
X349557Y253265D01*
X348996Y253996D01*
X348265Y254557D01*
X347414Y254910D01*
X346500Y255030D01*
X345586Y254910D01*
X344735Y254557D01*
X344004Y253996D01*
X343529Y253378D01*
X343029Y253507D01*
Y258298D01*
X343529Y258449D01*
X343698Y258198D01*
X344525Y257645D01*
X345000Y257551D01*
Y260000D01*
Y262450D01*
X344525Y262355D01*
X343698Y261802D01*
X343529Y261551D01*
X343029Y261702D01*
Y264367D01*
X350081Y271419D01*
X350413Y271915D01*
X350529Y272500D01*
Y275845D01*
X350765Y275943D01*
X351496Y276504D01*
X351971Y277122D01*
X352471Y276993D01*
D02*
G37*
G36*
X275090Y175919D02*
X275586Y175587D01*
X276172Y175471D01*
X276142Y174983D01*
X275586Y174910D01*
X274735Y174557D01*
X274004Y173996D01*
X273443Y173265D01*
X273090Y172414D01*
X272970Y171500D01*
X273090Y170586D01*
X273443Y169735D01*
X274004Y169004D01*
X274735Y168443D01*
X275586Y168090D01*
X276500Y167970D01*
X277414Y168090D01*
X277649Y168188D01*
X280471Y165366D01*
Y161985D01*
X279971Y161953D01*
X279910Y162414D01*
X279557Y163265D01*
X278996Y163996D01*
X278265Y164557D01*
X277414Y164910D01*
X276500Y165030D01*
X275586Y164910D01*
X274735Y164557D01*
X274029Y164016D01*
X273858Y164044D01*
X273529Y164156D01*
Y166000D01*
X273432Y166488D01*
X273413Y166585D01*
X273081Y167081D01*
X269812Y170351D01*
X269910Y170586D01*
X270030Y171500D01*
X269910Y172414D01*
X269557Y173265D01*
X268996Y173996D01*
X268265Y174557D01*
X267414Y174910D01*
X266500Y175030D01*
X265586Y174910D01*
X264735Y174557D01*
X264004Y173996D01*
X263443Y173265D01*
X263090Y172414D01*
X262970Y171500D01*
X263090Y170586D01*
X263443Y169735D01*
X264004Y169004D01*
X264735Y168443D01*
X265586Y168090D01*
X266500Y167970D01*
X267414Y168090D01*
X267649Y168188D01*
X270471Y165366D01*
Y161985D01*
X269971Y161953D01*
X269910Y162414D01*
X269557Y163265D01*
X268996Y163996D01*
X268265Y164557D01*
X267414Y164910D01*
X267000Y164964D01*
Y161500D01*
X266000D01*
Y164964D01*
X265586Y164910D01*
X264735Y164557D01*
X264029Y164016D01*
X263858Y164044D01*
X263529Y164156D01*
Y166000D01*
X263432Y166488D01*
X263413Y166585D01*
X263081Y167081D01*
X259812Y170351D01*
X259910Y170586D01*
X260030Y171500D01*
X259910Y172414D01*
X259557Y173265D01*
X258996Y173996D01*
X258265Y174557D01*
X257414Y174910D01*
X256500Y175030D01*
X255586Y174910D01*
X254735Y174557D01*
X254029Y174016D01*
X253858Y174044D01*
X253529Y174156D01*
Y176000D01*
X253432Y176488D01*
X253413Y176585D01*
X253081Y177081D01*
X249812Y180351D01*
X249910Y180586D01*
X250030Y181500D01*
X249910Y182414D01*
X249557Y183265D01*
X248996Y183996D01*
X248265Y184557D01*
X247414Y184910D01*
X246953Y184971D01*
X246985Y185471D01*
X256015D01*
X256047Y184971D01*
X255586Y184910D01*
X254735Y184557D01*
X254004Y183996D01*
X253443Y183265D01*
X253090Y182414D01*
X252970Y181500D01*
X253090Y180586D01*
X253443Y179735D01*
X254004Y179004D01*
X254735Y178443D01*
X255586Y178090D01*
X256500Y177970D01*
X257414Y178090D01*
X258265Y178443D01*
X258996Y179004D01*
X259557Y179735D01*
X259910Y180586D01*
X260030Y181500D01*
X259910Y182414D01*
X259557Y183265D01*
X258996Y183996D01*
X258265Y184557D01*
X257414Y184910D01*
X256953Y184971D01*
X256985Y185471D01*
X265538D01*
X275090Y175919D01*
D02*
G37*
G36*
X356504Y276504D02*
X357235Y275943D01*
X357471Y275845D01*
Y244634D01*
X355867Y243029D01*
X349655D01*
X349557Y243265D01*
X349360Y243522D01*
X349581Y243971D01*
X350000D01*
X350585Y244087D01*
X351081Y244419D01*
X355081Y248419D01*
X355413Y248915D01*
X355432Y249012D01*
X355529Y249500D01*
Y276993D01*
X356029Y277122D01*
X356504Y276504D01*
D02*
G37*
G36*
X286047Y174971D02*
X285586Y174910D01*
X284735Y174557D01*
X284004Y173996D01*
X283443Y173265D01*
X283090Y172414D01*
X282970Y171500D01*
X283090Y170586D01*
X283443Y169735D01*
X284004Y169004D01*
X284735Y168443D01*
X285586Y168090D01*
X286500Y167970D01*
X287414Y168090D01*
X287649Y168188D01*
X290371Y165466D01*
Y162608D01*
X289871Y162509D01*
X289557Y163265D01*
X288996Y163996D01*
X288265Y164557D01*
X287414Y164910D01*
X287000Y164964D01*
Y161500D01*
Y158036D01*
X287414Y158090D01*
X288265Y158443D01*
X288996Y159004D01*
X289557Y159735D01*
X289871Y160491D01*
X290371Y160392D01*
Y155100D01*
X290487Y154515D01*
X290819Y154019D01*
X293396Y151441D01*
X293204Y150979D01*
X288012D01*
X283529Y155462D01*
Y158844D01*
X283858Y158956D01*
X284029Y158984D01*
X284735Y158443D01*
X285586Y158090D01*
X286000Y158036D01*
Y161500D01*
Y164964D01*
X285586Y164910D01*
X284735Y164557D01*
X284029Y164016D01*
X283858Y164044D01*
X283529Y164156D01*
Y166000D01*
X283432Y166488D01*
X283413Y166585D01*
X283081Y167081D01*
X279812Y170351D01*
X279910Y170586D01*
X280030Y171500D01*
X279910Y172414D01*
X279557Y173265D01*
X278996Y173996D01*
X278265Y174557D01*
X277414Y174910D01*
X276953Y174971D01*
X276985Y175471D01*
X286015D01*
X286047Y174971D01*
D02*
G37*
G36*
X333443Y189735D02*
X334004Y189004D01*
X334735Y188443D01*
X335586Y188090D01*
X336500Y187970D01*
X337414Y188090D01*
X338265Y188443D01*
X338522Y188640D01*
X338971Y188419D01*
Y184581D01*
X338522Y184360D01*
X338265Y184557D01*
X337414Y184910D01*
X337000Y184964D01*
Y181500D01*
Y178036D01*
X337414Y178090D01*
X338265Y178443D01*
X338522Y178640D01*
X338971Y178419D01*
Y174581D01*
X338522Y174360D01*
X338265Y174557D01*
X337414Y174910D01*
X336500Y175030D01*
X335586Y174910D01*
X334735Y174557D01*
X334004Y173996D01*
X333443Y173265D01*
X333090Y172414D01*
X332970Y171500D01*
X333090Y170586D01*
X333443Y169735D01*
X334004Y169004D01*
X334735Y168443D01*
X335586Y168090D01*
X336500Y167970D01*
X337414Y168090D01*
X338265Y168443D01*
X338522Y168640D01*
X338971Y168419D01*
Y166133D01*
X337649Y164812D01*
X337414Y164910D01*
X336500Y165030D01*
X335586Y164910D01*
X334735Y164557D01*
X334004Y163996D01*
X333443Y163265D01*
X333090Y162414D01*
X332970Y161500D01*
X333090Y160586D01*
X333443Y159735D01*
X333640Y159478D01*
X333419Y159029D01*
X329581D01*
X329360Y159478D01*
X329557Y159735D01*
X329910Y160586D01*
X330030Y161500D01*
X329910Y162414D01*
X329557Y163265D01*
X328996Y163996D01*
X328265Y164557D01*
X327414Y164910D01*
X326500Y165030D01*
X325586Y164910D01*
X324735Y164557D01*
X324004Y163996D01*
X323443Y163265D01*
X323090Y162414D01*
X322970Y161500D01*
X323090Y160586D01*
X323443Y159735D01*
X323640Y159478D01*
X323419Y159029D01*
X320133D01*
X319501Y159662D01*
X319557Y159735D01*
X319910Y160586D01*
X320030Y161500D01*
X319910Y162414D01*
X319557Y163265D01*
X318996Y163996D01*
X318265Y164557D01*
X317414Y164910D01*
X316953Y164971D01*
X316985Y165471D01*
X319000D01*
X319585Y165587D01*
X320081Y165919D01*
X323081Y168919D01*
X323248Y169168D01*
X323844Y169212D01*
X324004Y169004D01*
X324735Y168443D01*
X325586Y168090D01*
X326500Y167970D01*
X327414Y168090D01*
X328265Y168443D01*
X328996Y169004D01*
X329557Y169735D01*
X329910Y170586D01*
X330030Y171500D01*
X329910Y172414D01*
X329557Y173265D01*
X328996Y173996D01*
X328265Y174557D01*
X327414Y174910D01*
X326500Y175030D01*
X325586Y174910D01*
X324735Y174557D01*
X324029Y174016D01*
X323858Y174044D01*
X323529Y174156D01*
Y184367D01*
X329134Y189971D01*
X333345D01*
X333443Y189735D01*
D02*
G37*
G36*
X288971Y279154D02*
Y264581D01*
X288522Y264360D01*
X288265Y264557D01*
X287414Y264910D01*
X287000Y264964D01*
Y261500D01*
Y258036D01*
X287414Y258090D01*
X288265Y258443D01*
X288522Y258640D01*
X288971Y258419D01*
Y256134D01*
X287649Y254812D01*
X287414Y254910D01*
X286500Y255030D01*
X285586Y254910D01*
X284735Y254557D01*
X284004Y253996D01*
X283443Y253265D01*
X283090Y252414D01*
X282970Y251500D01*
X283090Y250586D01*
X283443Y249735D01*
X284004Y249004D01*
X284735Y248443D01*
X285586Y248090D01*
X286500Y247970D01*
X287414Y248090D01*
X288265Y248443D01*
X288996Y249004D01*
X289557Y249735D01*
X289910Y250586D01*
X290030Y251500D01*
X289910Y252414D01*
X289812Y252649D01*
X291500Y254337D01*
X293188Y252649D01*
X293090Y252414D01*
X292970Y251500D01*
X293090Y250586D01*
X293443Y249735D01*
X294004Y249004D01*
X294735Y248443D01*
X295586Y248090D01*
X296500Y247970D01*
X297414Y248090D01*
X298265Y248443D01*
X298996Y249004D01*
X299557Y249735D01*
X299910Y250586D01*
X300030Y251500D01*
X299910Y252414D01*
X299557Y253265D01*
X298996Y253996D01*
X298265Y254557D01*
X297414Y254910D01*
X296500Y255030D01*
X295586Y254910D01*
X295351Y254812D01*
X294029Y256134D01*
Y258419D01*
X294478Y258640D01*
X294735Y258443D01*
X295586Y258090D01*
X296500Y257970D01*
X297414Y258090D01*
X298265Y258443D01*
X298996Y259004D01*
X299557Y259735D01*
X299910Y260586D01*
X300030Y261500D01*
X299910Y262414D01*
X299557Y263265D01*
X298996Y263996D01*
X298265Y264557D01*
X298029Y264655D01*
Y265866D01*
X309509Y277346D01*
X309971Y277154D01*
Y263507D01*
X309471Y263378D01*
X308996Y263996D01*
X308265Y264557D01*
X307414Y264910D01*
X307000Y264964D01*
Y261500D01*
Y258036D01*
X307414Y258090D01*
X308265Y258443D01*
X308996Y259004D01*
X309471Y259622D01*
X309971Y259493D01*
Y257134D01*
X307649Y254812D01*
X307414Y254910D01*
X306500Y255030D01*
X305586Y254910D01*
X304735Y254557D01*
X304004Y253996D01*
X303443Y253265D01*
X303090Y252414D01*
X302970Y251500D01*
X303090Y250586D01*
X303443Y249735D01*
X304004Y249004D01*
X304735Y248443D01*
X305586Y248090D01*
X306500Y247970D01*
X307414Y248090D01*
X308265Y248443D01*
X308996Y249004D01*
X309557Y249735D01*
X309910Y250586D01*
X310030Y251500D01*
X309910Y252414D01*
X309812Y252649D01*
X312581Y255419D01*
X312913Y255915D01*
X313029Y256500D01*
Y259493D01*
X313529Y259622D01*
X314004Y259004D01*
X314735Y258443D01*
X315586Y258090D01*
X316500Y257970D01*
X317414Y258090D01*
X318265Y258443D01*
X318996Y259004D01*
X319471Y259622D01*
X319971Y259493D01*
Y253507D01*
X319471Y253378D01*
X318996Y253996D01*
X318265Y254557D01*
X317414Y254910D01*
X316500Y255030D01*
X315586Y254910D01*
X314735Y254557D01*
X314004Y253996D01*
X313443Y253265D01*
X313090Y252414D01*
X312970Y251500D01*
X313090Y250586D01*
X313443Y249735D01*
X314004Y249004D01*
X314735Y248443D01*
X314971Y248345D01*
Y240134D01*
X312866Y238029D01*
X258507D01*
X258378Y238529D01*
X258996Y239004D01*
X259557Y239735D01*
X259910Y240586D01*
X260030Y241500D01*
X259910Y242414D01*
X259557Y243265D01*
X259360Y243522D01*
X259581Y243971D01*
X273500D01*
X274085Y244087D01*
X274581Y244419D01*
X277581Y247419D01*
X277913Y247915D01*
X277996Y248331D01*
X278265Y248443D01*
X278996Y249004D01*
X279557Y249735D01*
X279910Y250586D01*
X280030Y251500D01*
X279910Y252414D01*
X279557Y253265D01*
X278996Y253996D01*
X278265Y254557D01*
X277414Y254910D01*
X276500Y255030D01*
X275586Y254910D01*
X274735Y254557D01*
X274004Y253996D01*
X273529Y253378D01*
X273029Y253507D01*
Y259493D01*
X273529Y259622D01*
X274004Y259004D01*
X274735Y258443D01*
X275586Y258090D01*
X276500Y257970D01*
X277414Y258090D01*
X278265Y258443D01*
X278996Y259004D01*
X279557Y259735D01*
X279910Y260586D01*
X280030Y261500D01*
X279910Y262414D01*
X279557Y263265D01*
X278996Y263996D01*
X278265Y264557D01*
X278029Y264655D01*
Y268866D01*
X288509Y279346D01*
X288971Y279154D01*
D02*
G37*
G36*
X367471Y132367D02*
Y130500D01*
X360529D01*
Y133000D01*
X360413Y133585D01*
X360081Y134081D01*
X350704Y143459D01*
X350896Y143921D01*
X355917D01*
X367471Y132367D01*
D02*
G37*
G36*
X319831Y134509D02*
X317919Y132596D01*
X317587Y132100D01*
X317471Y131515D01*
Y130500D01*
X300529D01*
Y131000D01*
X300413Y131585D01*
X300081Y132081D01*
X297654Y134509D01*
X297846Y134971D01*
X319640D01*
X319831Y134509D01*
D02*
G37*
G36*
X286875Y130962D02*
X286684Y130500D01*
X280529D01*
Y135000D01*
X280413Y135585D01*
X280081Y136081D01*
X275154Y141009D01*
X275346Y141471D01*
X276366D01*
X286875Y130962D01*
D02*
G37*
G36*
X397471Y132367D02*
Y130500D01*
X390529D01*
Y133000D01*
X390413Y133585D01*
X390081Y134081D01*
X374654Y149509D01*
X374846Y149971D01*
X379867D01*
X397471Y132367D01*
D02*
G37*
G36*
X387471D02*
Y130500D01*
X380529D01*
Y133000D01*
X380413Y133585D01*
X380081Y134081D01*
X366704Y147459D01*
X366896Y147921D01*
X371917D01*
X387471Y132367D01*
D02*
G37*
G36*
X377471D02*
Y130500D01*
X370529D01*
Y133000D01*
X370413Y133585D01*
X370081Y134081D01*
X358704Y145459D01*
X358896Y145921D01*
X363916D01*
X377471Y132367D01*
D02*
G37*
G36*
X247471Y134367D02*
Y130500D01*
X240529D01*
Y135000D01*
X240413Y135585D01*
X240081Y136081D01*
X225529Y150634D01*
Y155654D01*
X225991Y155846D01*
X247471Y134367D01*
D02*
G37*
G36*
X456500Y130500D02*
X452476D01*
X452167Y131000D01*
X452410Y131586D01*
X452530Y132500D01*
X452410Y133414D01*
X452057Y134265D01*
X451496Y134996D01*
X450765Y135557D01*
X449914Y135910D01*
X449000Y136030D01*
X448086Y135910D01*
X447235Y135557D01*
X446504Y134996D01*
X445943Y134265D01*
X445590Y133414D01*
X445470Y132500D01*
X445590Y131586D01*
X445833Y131000D01*
X445524Y130500D01*
X442476D01*
X442167Y131000D01*
X442410Y131586D01*
X442464Y132000D01*
X435536D01*
X435590Y131586D01*
X435833Y131000D01*
X435524Y130500D01*
X430529D01*
Y133000D01*
X430413Y133585D01*
X430081Y134081D01*
X405581Y158581D01*
X405085Y158913D01*
X404500Y159029D01*
X345943D01*
X345942Y159040D01*
X345058D01*
X345057Y159029D01*
X339581D01*
X339360Y159478D01*
X339557Y159735D01*
X339910Y160586D01*
X340030Y161500D01*
X339910Y162414D01*
X339812Y162649D01*
X341581Y164419D01*
X341913Y164915D01*
X341932Y165012D01*
X342029Y165500D01*
Y193154D01*
X342491Y193346D01*
X343188Y192649D01*
X343090Y192414D01*
X342970Y191500D01*
X343090Y190586D01*
X343443Y189735D01*
X344004Y189004D01*
X344735Y188443D01*
X345586Y188090D01*
X346500Y187970D01*
X347414Y188090D01*
X348265Y188443D01*
X348996Y189004D01*
X349557Y189735D01*
X349910Y190586D01*
X350030Y191500D01*
X349910Y192414D01*
X349557Y193265D01*
X348996Y193996D01*
X348265Y194557D01*
X347414Y194910D01*
X346500Y195030D01*
X345586Y194910D01*
X345351Y194812D01*
X344029Y196133D01*
Y198419D01*
X344478Y198640D01*
X344735Y198443D01*
X345586Y198090D01*
X346500Y197970D01*
X347414Y198090D01*
X347649Y198188D01*
X351919Y193919D01*
X352415Y193587D01*
X353000Y193471D01*
X377845D01*
X377943Y193235D01*
X378504Y192504D01*
X379235Y191943D01*
X380086Y191590D01*
X381000Y191470D01*
X381914Y191590D01*
X382765Y191943D01*
X383496Y192504D01*
X384057Y193235D01*
X384410Y194086D01*
X384530Y195000D01*
X384410Y195914D01*
X384057Y196765D01*
X383496Y197496D01*
X382765Y198057D01*
X381914Y198410D01*
X381000Y198530D01*
X380086Y198410D01*
X379235Y198057D01*
X378504Y197496D01*
X377943Y196765D01*
X377845Y196529D01*
X353633D01*
X349812Y200351D01*
X349910Y200586D01*
X350030Y201500D01*
X349910Y202414D01*
X349557Y203265D01*
X348996Y203996D01*
X348265Y204557D01*
X347414Y204910D01*
X346500Y205030D01*
X345586Y204910D01*
X344735Y204557D01*
X344478Y204360D01*
X344029Y204581D01*
Y208419D01*
X344478Y208640D01*
X344735Y208443D01*
X345586Y208090D01*
X346000Y208036D01*
Y211500D01*
Y214964D01*
X345586Y214910D01*
X344735Y214557D01*
X344478Y214360D01*
X344029Y214581D01*
Y218419D01*
X344478Y218640D01*
X344735Y218443D01*
X345586Y218090D01*
X346500Y217970D01*
X347414Y218090D01*
X347649Y218188D01*
X350419Y215419D01*
X350915Y215087D01*
X351500Y214971D01*
X360228D01*
X360243Y214935D01*
X360804Y214204D01*
X361535Y213643D01*
X362386Y213290D01*
X363300Y213170D01*
X364214Y213290D01*
X365065Y213643D01*
X365796Y214204D01*
X366357Y214935D01*
X366710Y215786D01*
X366830Y216700D01*
X366710Y217614D01*
X366357Y218465D01*
X365796Y219196D01*
X365065Y219757D01*
X364214Y220110D01*
X363300Y220230D01*
X362386Y220110D01*
X361535Y219757D01*
X360804Y219196D01*
X360243Y218465D01*
X360062Y218029D01*
X352133D01*
X349812Y220351D01*
X349910Y220586D01*
X350030Y221500D01*
X349910Y222414D01*
X349557Y223265D01*
X348996Y223996D01*
X348265Y224557D01*
X347414Y224910D01*
X346500Y225030D01*
X345586Y224910D01*
X344735Y224557D01*
X344478Y224360D01*
X344029Y224581D01*
Y228419D01*
X344478Y228640D01*
X344735Y228443D01*
X345586Y228090D01*
X346500Y227970D01*
X347414Y228090D01*
X348265Y228443D01*
X348996Y229004D01*
X349557Y229735D01*
X349910Y230586D01*
X350030Y231500D01*
X349910Y232414D01*
X349557Y233265D01*
X348996Y233996D01*
X348378Y234471D01*
X348507Y234971D01*
X364500D01*
X365085Y235087D01*
X365581Y235419D01*
X370081Y239919D01*
X370413Y240415D01*
X370529Y241000D01*
Y275845D01*
X370765Y275943D01*
X371496Y276504D01*
X372057Y277235D01*
X372410Y278086D01*
X372530Y279000D01*
X372410Y279914D01*
X372057Y280765D01*
X371496Y281496D01*
X370765Y282057D01*
X369914Y282410D01*
X369000Y282530D01*
X368086Y282410D01*
X367235Y282057D01*
X366504Y281496D01*
X365943Y280765D01*
X365590Y279914D01*
X365470Y279000D01*
X365590Y278086D01*
X365943Y277235D01*
X366504Y276504D01*
X367235Y275943D01*
X367471Y275845D01*
Y241634D01*
X363866Y238029D01*
X348507D01*
X348378Y238529D01*
X348996Y239004D01*
X349557Y239735D01*
X349655Y239971D01*
X356500D01*
X357085Y240087D01*
X357581Y240419D01*
X360081Y242919D01*
X360413Y243415D01*
X360432Y243512D01*
X360529Y244000D01*
Y275845D01*
X360765Y275943D01*
X361496Y276504D01*
X362057Y277235D01*
X362410Y278086D01*
X362530Y279000D01*
X362410Y279914D01*
X362057Y280765D01*
X361496Y281496D01*
X360765Y282057D01*
X359914Y282410D01*
X359000Y282530D01*
X358086Y282410D01*
X357235Y282057D01*
X356504Y281496D01*
X356029Y280878D01*
X355529Y281007D01*
Y285000D01*
X355432Y285488D01*
X355413Y285585D01*
X355081Y286081D01*
X352581Y288581D01*
X352085Y288913D01*
X351500Y289029D01*
X331500D01*
X331012Y288932D01*
X330915Y288913D01*
X330419Y288581D01*
X327919Y286081D01*
X327587Y285585D01*
X327471Y285000D01*
Y282155D01*
X327235Y282057D01*
X326504Y281496D01*
X325943Y280765D01*
X325590Y279914D01*
X325470Y279000D01*
X325590Y278086D01*
X325943Y277235D01*
X326504Y276504D01*
X327235Y275943D01*
X328086Y275590D01*
X329000Y275470D01*
X329914Y275590D01*
X330765Y275943D01*
X331496Y276504D01*
X332057Y277235D01*
X332410Y278086D01*
X332530Y279000D01*
X332410Y279914D01*
X332057Y280765D01*
X331496Y281496D01*
X330765Y282057D01*
X330529Y282155D01*
Y284366D01*
X332134Y285971D01*
X350867D01*
X352471Y284366D01*
Y281007D01*
X351971Y280878D01*
X351496Y281496D01*
X350765Y282057D01*
X349914Y282410D01*
X349000Y282530D01*
X348086Y282410D01*
X347235Y282057D01*
X346504Y281496D01*
X345943Y280765D01*
X345590Y279914D01*
X345470Y279000D01*
X345590Y278086D01*
X345943Y277235D01*
X346504Y276504D01*
X347235Y275943D01*
X347471Y275845D01*
Y273133D01*
X340419Y266081D01*
X340087Y265585D01*
X339971Y265000D01*
Y263507D01*
X339471Y263378D01*
X338996Y263996D01*
X338265Y264557D01*
X337414Y264910D01*
X336500Y265030D01*
X335586Y264910D01*
X334735Y264557D01*
X334004Y263996D01*
X333443Y263265D01*
X333090Y262414D01*
X332970Y261500D01*
X333090Y260586D01*
X333443Y259735D01*
X334004Y259004D01*
X334735Y258443D01*
X335586Y258090D01*
X336500Y257970D01*
X337414Y258090D01*
X338265Y258443D01*
X338996Y259004D01*
X339471Y259622D01*
X339971Y259493D01*
Y253507D01*
X339471Y253378D01*
X338996Y253996D01*
X338265Y254557D01*
X337414Y254910D01*
X337000Y254964D01*
Y251500D01*
X336500D01*
Y251000D01*
X333036D01*
X333090Y250586D01*
X333443Y249735D01*
X334004Y249004D01*
X334690Y248478D01*
X334697Y248290D01*
X334612Y247952D01*
X334415Y247913D01*
X333919Y247581D01*
X330419Y244081D01*
X330087Y243585D01*
X329971Y243000D01*
Y227133D01*
X311866Y209029D01*
X259581D01*
X259360Y209478D01*
X259557Y209735D01*
X259655Y209971D01*
X310500D01*
X311085Y210087D01*
X311581Y210419D01*
X322581Y221419D01*
X322913Y221915D01*
X323029Y222500D01*
Y249493D01*
X323529Y249622D01*
X324004Y249004D01*
X324735Y248443D01*
X325586Y248090D01*
X326500Y247970D01*
X327414Y248090D01*
X328265Y248443D01*
X328996Y249004D01*
X329557Y249735D01*
X329910Y250586D01*
X330030Y251500D01*
X329910Y252414D01*
X329557Y253265D01*
X328996Y253996D01*
X328265Y254557D01*
X327414Y254910D01*
X326500Y255030D01*
X325586Y254910D01*
X324735Y254557D01*
X324004Y253996D01*
X323529Y253378D01*
X323029Y253507D01*
Y259493D01*
X323529Y259622D01*
X324004Y259004D01*
X324735Y258443D01*
X325586Y258090D01*
X326500Y257970D01*
X327414Y258090D01*
X328265Y258443D01*
X328996Y259004D01*
X329557Y259735D01*
X329910Y260586D01*
X330030Y261500D01*
X329910Y262414D01*
X329557Y263265D01*
X328996Y263996D01*
X328265Y264557D01*
X327414Y264910D01*
X326953Y264971D01*
X326985Y265471D01*
X333500D01*
X334085Y265587D01*
X334581Y265919D01*
X340081Y271419D01*
X340413Y271915D01*
X340432Y272012D01*
X340529Y272500D01*
Y275845D01*
X340765Y275943D01*
X341496Y276504D01*
X342057Y277235D01*
X342410Y278086D01*
X342530Y279000D01*
X342410Y279914D01*
X342057Y280765D01*
X341496Y281496D01*
X340765Y282057D01*
X339914Y282410D01*
X339000Y282530D01*
X338086Y282410D01*
X337235Y282057D01*
X336504Y281496D01*
X335943Y280765D01*
X335590Y279914D01*
X335470Y279000D01*
X335590Y278086D01*
X335943Y277235D01*
X336504Y276504D01*
X337235Y275943D01*
X337471Y275845D01*
Y273133D01*
X332867Y268529D01*
X325500D01*
X325012Y268432D01*
X324915Y268413D01*
X324419Y268081D01*
X320419Y264081D01*
X320087Y263585D01*
X320048Y263388D01*
X319710Y263303D01*
X319523Y263310D01*
X318996Y263996D01*
X318265Y264557D01*
X317414Y264910D01*
X316500Y265030D01*
X315586Y264910D01*
X314735Y264557D01*
X314004Y263996D01*
X313529Y263378D01*
X313029Y263507D01*
Y276373D01*
X313529Y276472D01*
X313628Y276235D01*
X314189Y275504D01*
X314920Y274943D01*
X315771Y274590D01*
X316685Y274470D01*
X317599Y274590D01*
X318450Y274943D01*
X319181Y275504D01*
X319742Y276235D01*
X320095Y277086D01*
X320215Y278000D01*
X320095Y278914D01*
X319742Y279765D01*
X319181Y280496D01*
X318450Y281057D01*
X317599Y281410D01*
X316685Y281530D01*
X315771Y281410D01*
X314920Y281057D01*
X314189Y280496D01*
X313628Y279765D01*
X313529Y279527D01*
X313029Y279627D01*
Y282366D01*
X322133Y291471D01*
X351000D01*
X351585Y291587D01*
X352081Y291919D01*
X360081Y299919D01*
X360413Y300415D01*
X360424Y300469D01*
X360464Y300504D01*
X360970Y300653D01*
X361731Y300069D01*
X362825Y299616D01*
X363500Y299527D01*
Y304000D01*
Y308473D01*
X362825Y308384D01*
X361731Y307931D01*
X361029Y307393D01*
X360529Y307639D01*
Y308366D01*
X362085Y309922D01*
X362825Y309616D01*
X364000Y309461D01*
X365175Y309616D01*
X366269Y310069D01*
X367209Y310791D01*
X367931Y311731D01*
X368384Y312825D01*
X368539Y314000D01*
X368384Y315175D01*
X367931Y316269D01*
X367209Y317209D01*
X366269Y317931D01*
X365175Y318384D01*
X364000Y318539D01*
X362825Y318384D01*
X361731Y317931D01*
X360791Y317209D01*
X360069Y316269D01*
X359616Y315175D01*
X359461Y314000D01*
X359616Y312825D01*
X359922Y312085D01*
X357919Y310081D01*
X357587Y309585D01*
X357471Y309000D01*
Y307639D01*
X356971Y307393D01*
X356269Y307931D01*
X355175Y308384D01*
X354500Y308473D01*
Y304000D01*
Y299527D01*
X354681Y299551D01*
X354914Y299077D01*
X350366Y294529D01*
X321500D01*
X321029Y294436D01*
X320529Y294711D01*
Y300361D01*
X321029Y300607D01*
X321731Y300069D01*
X322825Y299616D01*
X323500Y299527D01*
Y304000D01*
Y308473D01*
X322825Y308384D01*
X321731Y307931D01*
X321029Y307393D01*
X320529Y307639D01*
Y308366D01*
X322085Y309922D01*
X322825Y309616D01*
X324000Y309461D01*
X325175Y309616D01*
X326269Y310069D01*
X327209Y310791D01*
X327931Y311731D01*
X328384Y312825D01*
X328539Y314000D01*
X328384Y315175D01*
X327931Y316269D01*
X327209Y317209D01*
X326269Y317931D01*
X325175Y318384D01*
X324000Y318539D01*
X322825Y318384D01*
X321731Y317931D01*
X320791Y317209D01*
X320069Y316269D01*
X319616Y315175D01*
X319461Y314000D01*
X319616Y312825D01*
X319922Y312085D01*
X317919Y310081D01*
X317587Y309585D01*
X317471Y309000D01*
Y307639D01*
X316971Y307393D01*
X316269Y307931D01*
X315175Y308384D01*
X314500Y308473D01*
Y304000D01*
Y299527D01*
X315175Y299616D01*
X316269Y300069D01*
X316971Y300607D01*
X317471Y300361D01*
Y293962D01*
X308419Y284910D01*
X308087Y284414D01*
X307971Y283828D01*
Y280134D01*
X304465Y276628D01*
X304004Y276874D01*
X304029Y277000D01*
Y283867D01*
X310081Y289919D01*
X310413Y290415D01*
X310529Y291000D01*
Y300361D01*
X311029Y300607D01*
X311731Y300069D01*
X312825Y299616D01*
X313500Y299527D01*
Y304000D01*
Y308473D01*
X312825Y308384D01*
X311731Y307931D01*
X311029Y307393D01*
X310529Y307639D01*
Y308366D01*
X312085Y309922D01*
X312825Y309616D01*
X314000Y309461D01*
X315175Y309616D01*
X316269Y310069D01*
X317209Y310791D01*
X317931Y311731D01*
X318384Y312825D01*
X318539Y314000D01*
X318384Y315175D01*
X317931Y316269D01*
X317209Y317209D01*
X316269Y317931D01*
X315175Y318384D01*
X314000Y318539D01*
X312825Y318384D01*
X311731Y317931D01*
X310791Y317209D01*
X310069Y316269D01*
X309616Y315175D01*
X309461Y314000D01*
X309616Y312825D01*
X309922Y312085D01*
X307919Y310081D01*
X307587Y309585D01*
X307471Y309000D01*
Y307639D01*
X306971Y307393D01*
X306269Y307931D01*
X305175Y308384D01*
X304500Y308473D01*
Y304000D01*
Y299527D01*
X305175Y299616D01*
X306269Y300069D01*
X306971Y300607D01*
X307471Y300361D01*
Y291634D01*
X301419Y285581D01*
X301087Y285085D01*
X300971Y284500D01*
Y278485D01*
X300471Y278453D01*
X300410Y278914D01*
X300057Y279765D01*
X299496Y280496D01*
X298765Y281057D01*
X297914Y281410D01*
X297500Y281464D01*
Y278000D01*
X297000D01*
Y277500D01*
X293536D01*
X293590Y277086D01*
X293943Y276235D01*
X294504Y275504D01*
X295235Y274943D01*
X296086Y274590D01*
X297000Y274470D01*
X297115Y274485D01*
X297348Y274011D01*
X292491Y269154D01*
X292029Y269346D01*
Y279366D01*
X300081Y287419D01*
X300413Y287915D01*
X300529Y288500D01*
Y300361D01*
X301029Y300607D01*
X301731Y300069D01*
X302825Y299616D01*
X303500Y299527D01*
Y304000D01*
Y308473D01*
X302825Y308384D01*
X301731Y307931D01*
X301029Y307393D01*
X300529Y307639D01*
Y308366D01*
X302085Y309922D01*
X302825Y309616D01*
X304000Y309461D01*
X305175Y309616D01*
X306269Y310069D01*
X307209Y310791D01*
X307931Y311731D01*
X308384Y312825D01*
X308539Y314000D01*
X308384Y315175D01*
X307931Y316269D01*
X307209Y317209D01*
X306269Y317931D01*
X305175Y318384D01*
X304000Y318539D01*
X302825Y318384D01*
X301731Y317931D01*
X300791Y317209D01*
X300069Y316269D01*
X299616Y315175D01*
X299461Y314000D01*
X299616Y312825D01*
X299922Y312085D01*
X297919Y310081D01*
X297587Y309585D01*
X297471Y309000D01*
Y307639D01*
X296971Y307393D01*
X296269Y307931D01*
X295175Y308384D01*
X294500Y308473D01*
Y304000D01*
Y299527D01*
X295175Y299616D01*
X296269Y300069D01*
X296971Y300607D01*
X297471Y300361D01*
Y289134D01*
X290991Y282654D01*
X290529Y282846D01*
Y300361D01*
X291029Y300607D01*
X291731Y300069D01*
X292825Y299616D01*
X293500Y299527D01*
Y304000D01*
Y308473D01*
X292825Y308384D01*
X291731Y307931D01*
X291029Y307393D01*
X290529Y307639D01*
Y308366D01*
X292085Y309922D01*
X292825Y309616D01*
X294000Y309461D01*
X295175Y309616D01*
X296269Y310069D01*
X297209Y310791D01*
X297931Y311731D01*
X298384Y312825D01*
X298539Y314000D01*
X298384Y315175D01*
X297931Y316269D01*
X297209Y317209D01*
X296269Y317931D01*
X295175Y318384D01*
X294000Y318539D01*
X292825Y318384D01*
X291731Y317931D01*
X290791Y317209D01*
X290069Y316269D01*
X289616Y315175D01*
X289461Y314000D01*
X289616Y312825D01*
X289922Y312085D01*
X287919Y310081D01*
X287587Y309585D01*
X287471Y309000D01*
Y307639D01*
X286971Y307393D01*
X286269Y307931D01*
X285175Y308384D01*
X284500Y308473D01*
Y304000D01*
Y299527D01*
X285175Y299616D01*
X286269Y300069D01*
X286971Y300607D01*
X287471Y300361D01*
Y282633D01*
X275419Y270581D01*
X275087Y270085D01*
X274971Y269500D01*
Y264655D01*
X274735Y264557D01*
X274004Y263996D01*
X273529Y263378D01*
X273029Y263507D01*
Y275561D01*
X273529Y275731D01*
X273704Y275504D01*
X274435Y274943D01*
X275286Y274590D01*
X275700Y274536D01*
Y278000D01*
Y281464D01*
X275286Y281410D01*
X274435Y281057D01*
X274402Y281032D01*
X274072Y281409D01*
X280081Y287419D01*
X280413Y287915D01*
X280529Y288500D01*
Y300361D01*
X281029Y300607D01*
X281731Y300069D01*
X282825Y299616D01*
X283500Y299527D01*
Y304000D01*
Y308473D01*
X282825Y308384D01*
X281731Y307931D01*
X281029Y307393D01*
X280529Y307639D01*
Y308366D01*
X282085Y309922D01*
X282825Y309616D01*
X284000Y309461D01*
X285175Y309616D01*
X286269Y310069D01*
X287209Y310791D01*
X287931Y311731D01*
X288384Y312825D01*
X288539Y314000D01*
X288384Y315175D01*
X287931Y316269D01*
X287209Y317209D01*
X286269Y317931D01*
X285175Y318384D01*
X284000Y318539D01*
X282825Y318384D01*
X281731Y317931D01*
X280791Y317209D01*
X280069Y316269D01*
X279616Y315175D01*
X279461Y314000D01*
X279616Y312825D01*
X279922Y312085D01*
X277919Y310081D01*
X277587Y309585D01*
X277471Y309000D01*
Y307639D01*
X276971Y307393D01*
X276269Y307931D01*
X275175Y308384D01*
X274500Y308473D01*
Y304000D01*
Y299527D01*
X275175Y299616D01*
X276269Y300069D01*
X276971Y300607D01*
X277471Y300361D01*
Y289134D01*
X270991Y282654D01*
X270529Y282846D01*
Y300361D01*
X271029Y300607D01*
X271731Y300069D01*
X272825Y299616D01*
X273500Y299527D01*
Y304000D01*
Y308473D01*
X272825Y308384D01*
X271731Y307931D01*
X271029Y307393D01*
X270529Y307639D01*
Y308366D01*
X272085Y309922D01*
X272825Y309616D01*
X274000Y309461D01*
X275175Y309616D01*
X276269Y310069D01*
X277209Y310791D01*
X277931Y311731D01*
X278384Y312825D01*
X278539Y314000D01*
X278384Y315175D01*
X277931Y316269D01*
X277209Y317209D01*
X276269Y317931D01*
X275175Y318384D01*
X274000Y318539D01*
X272825Y318384D01*
X271731Y317931D01*
X270791Y317209D01*
X270069Y316269D01*
X269616Y315175D01*
X269461Y314000D01*
X269616Y312825D01*
X269922Y312085D01*
X267919Y310081D01*
X267587Y309585D01*
X267471Y309000D01*
Y307639D01*
X266971Y307393D01*
X266269Y307931D01*
X265175Y308384D01*
X264500Y308473D01*
Y304000D01*
Y299527D01*
X265175Y299616D01*
X266269Y300069D01*
X266971Y300607D01*
X267471Y300361D01*
Y268634D01*
X265419Y266581D01*
X265087Y266085D01*
X264971Y265500D01*
Y264655D01*
X264735Y264557D01*
X264004Y263996D01*
X263529Y263378D01*
X263029Y263507D01*
Y296500D01*
X262932Y296988D01*
X262913Y297085D01*
X262581Y297581D01*
X260529Y299634D01*
Y300361D01*
X261029Y300607D01*
X261731Y300069D01*
X262825Y299616D01*
X263500Y299527D01*
Y304000D01*
Y308473D01*
X262825Y308384D01*
X261731Y307931D01*
X261029Y307393D01*
X260529Y307639D01*
Y308366D01*
X262085Y309922D01*
X262825Y309616D01*
X264000Y309461D01*
X265175Y309616D01*
X266269Y310069D01*
X267209Y310791D01*
X267931Y311731D01*
X268384Y312825D01*
X268539Y314000D01*
X268384Y315175D01*
X267931Y316269D01*
X267209Y317209D01*
X266269Y317931D01*
X265175Y318384D01*
X264000Y318539D01*
X262825Y318384D01*
X261731Y317931D01*
X260791Y317209D01*
X260069Y316269D01*
X259616Y315175D01*
X259461Y314000D01*
X259616Y312825D01*
X259922Y312085D01*
X257919Y310081D01*
X257587Y309585D01*
X257471Y309000D01*
Y307639D01*
X256971Y307393D01*
X256269Y307931D01*
X255175Y308384D01*
X254500Y308473D01*
Y304000D01*
Y299527D01*
X255175Y299616D01*
X256269Y300069D01*
X256971Y300607D01*
X257471Y300361D01*
Y299000D01*
X257587Y298415D01*
X257919Y297919D01*
X259971Y295866D01*
Y280063D01*
X259471Y279897D01*
X259011Y280496D01*
X258280Y281057D01*
X257429Y281410D01*
X256515Y281530D01*
X255601Y281410D01*
X254750Y281057D01*
X254019Y280496D01*
X253458Y279765D01*
X253105Y278914D01*
X252985Y278000D01*
X253105Y277086D01*
X253458Y276235D01*
X254019Y275504D01*
X254750Y274943D01*
X255601Y274590D01*
X256515Y274470D01*
X257429Y274590D01*
X258280Y274943D01*
X259011Y275504D01*
X259471Y276102D01*
X259971Y275937D01*
Y263507D01*
X259471Y263378D01*
X258996Y263996D01*
X258265Y264557D01*
X257414Y264910D01*
X256500Y265030D01*
X255586Y264910D01*
X254735Y264557D01*
X254004Y263996D01*
X253443Y263265D01*
X253090Y262414D01*
X252970Y261500D01*
X253090Y260586D01*
X253443Y259735D01*
X254004Y259004D01*
X254735Y258443D01*
X255586Y258090D01*
X256500Y257970D01*
X257414Y258090D01*
X258265Y258443D01*
X258996Y259004D01*
X259471Y259622D01*
X259971Y259493D01*
Y257134D01*
X257649Y254812D01*
X257414Y254910D01*
X256500Y255030D01*
X255586Y254910D01*
X254735Y254557D01*
X254004Y253996D01*
X253443Y253265D01*
X253090Y252414D01*
X252970Y251500D01*
X253090Y250586D01*
X253443Y249735D01*
X253640Y249478D01*
X253419Y249029D01*
X251133D01*
X249812Y250351D01*
X249910Y250586D01*
X250030Y251500D01*
X249910Y252414D01*
X249557Y253265D01*
X248996Y253996D01*
X248265Y254557D01*
X247414Y254910D01*
X246500Y255030D01*
X245809Y254939D01*
X245576Y255413D01*
X250081Y259919D01*
X250413Y260415D01*
X250529Y261000D01*
Y300361D01*
X251029Y300607D01*
X251731Y300069D01*
X252825Y299616D01*
X253500Y299527D01*
Y304000D01*
Y308473D01*
X252825Y308384D01*
X251731Y307931D01*
X251029Y307393D01*
X250529Y307639D01*
Y308366D01*
X252085Y309922D01*
X252825Y309616D01*
X254000Y309461D01*
X255175Y309616D01*
X256269Y310069D01*
X257209Y310791D01*
X257931Y311731D01*
X258384Y312825D01*
X258539Y314000D01*
X258384Y315175D01*
X257931Y316269D01*
X257209Y317209D01*
X256269Y317931D01*
X255175Y318384D01*
X254000Y318539D01*
X252825Y318384D01*
X251731Y317931D01*
X250791Y317209D01*
X250069Y316269D01*
X249616Y315175D01*
X249461Y314000D01*
X249616Y312825D01*
X249922Y312085D01*
X247919Y310081D01*
X247587Y309585D01*
X247471Y309000D01*
Y307639D01*
X246971Y307393D01*
X246269Y307931D01*
X245175Y308384D01*
X244500Y308473D01*
Y304000D01*
Y299527D01*
X245175Y299616D01*
X246269Y300069D01*
X246971Y300607D01*
X247471Y300361D01*
Y261633D01*
X240991Y255154D01*
X240529Y255346D01*
Y300361D01*
X241029Y300607D01*
X241731Y300069D01*
X242825Y299616D01*
X243500Y299527D01*
Y304000D01*
Y308473D01*
X242825Y308384D01*
X241731Y307931D01*
X240791Y307209D01*
X240652Y307030D01*
X240153Y307046D01*
X240081Y307153D01*
X237153Y310081D01*
X237046Y310153D01*
X237030Y310652D01*
X237209Y310791D01*
X237931Y311731D01*
X238384Y312825D01*
X238539Y314000D01*
X238384Y315175D01*
X237931Y316269D01*
X237209Y317209D01*
X236269Y317931D01*
X235175Y318384D01*
X234000Y318539D01*
X232825Y318384D01*
X231731Y317931D01*
X230791Y317209D01*
X230069Y316269D01*
X229616Y315175D01*
X229461Y314000D01*
X229616Y312825D01*
X230069Y311731D01*
X230607Y311029D01*
X230361Y310529D01*
X227639D01*
X227393Y311029D01*
X227931Y311731D01*
X228384Y312825D01*
X228539Y314000D01*
X228384Y315175D01*
X227931Y316269D01*
X227209Y317209D01*
X226269Y317931D01*
X225175Y318384D01*
X224000Y318539D01*
X222825Y318384D01*
X221731Y317931D01*
X220791Y317209D01*
X220069Y316269D01*
X219616Y315175D01*
X219461Y314000D01*
X219616Y312825D01*
X220069Y311731D01*
X220607Y311029D01*
X220361Y310529D01*
X219634D01*
X218078Y312085D01*
X218384Y312825D01*
X218539Y314000D01*
X218384Y315175D01*
X217931Y316269D01*
X217209Y317209D01*
X216269Y317931D01*
X215175Y318384D01*
X214000Y318539D01*
X212825Y318384D01*
X211731Y317931D01*
X210791Y317209D01*
X210069Y316269D01*
X209616Y315175D01*
X209461Y314000D01*
X209616Y312825D01*
X210069Y311731D01*
X210791Y310791D01*
X211731Y310069D01*
X212825Y309616D01*
X214000Y309461D01*
X215175Y309616D01*
X215915Y309922D01*
X217919Y307919D01*
X218415Y307587D01*
X219000Y307471D01*
X220361D01*
X220607Y306971D01*
X220069Y306269D01*
X219616Y305175D01*
X219527Y304500D01*
X228473D01*
X228384Y305175D01*
X227931Y306269D01*
X227393Y306971D01*
X227639Y307471D01*
X230361D01*
X230607Y306971D01*
X230069Y306269D01*
X229616Y305175D01*
X229527Y304500D01*
X234000D01*
Y304000D01*
X234500D01*
Y299527D01*
X235175Y299616D01*
X236269Y300069D01*
X236971Y300607D01*
X237471Y300361D01*
Y239000D01*
X237587Y238415D01*
X237919Y237919D01*
X240419Y235419D01*
X240915Y235087D01*
X241012Y235068D01*
X241500Y234971D01*
X244493D01*
X244622Y234471D01*
X244004Y233996D01*
X243443Y233265D01*
X243090Y232414D01*
X243036Y232000D01*
X249964D01*
X249910Y232414D01*
X249557Y233265D01*
X248996Y233996D01*
X248378Y234471D01*
X248507Y234971D01*
X254493D01*
X254622Y234471D01*
X254004Y233996D01*
X253443Y233265D01*
X253090Y232414D01*
X252970Y231500D01*
X253090Y230586D01*
X253443Y229735D01*
X254004Y229004D01*
X254735Y228443D01*
X255586Y228090D01*
X256500Y227970D01*
X257414Y228090D01*
X258265Y228443D01*
X258996Y229004D01*
X259557Y229735D01*
X259910Y230586D01*
X260030Y231500D01*
X259910Y232414D01*
X259557Y233265D01*
X258996Y233996D01*
X258378Y234471D01*
X258507Y234971D01*
X313500D01*
X314085Y235087D01*
X314581Y235419D01*
X317581Y238419D01*
X317913Y238915D01*
X318029Y239500D01*
Y248345D01*
X318265Y248443D01*
X318996Y249004D01*
X319471Y249622D01*
X319971Y249493D01*
Y223133D01*
X309866Y213029D01*
X259655D01*
X259557Y213265D01*
X258996Y213996D01*
X258265Y214557D01*
X257414Y214910D01*
X256500Y215030D01*
X255586Y214910D01*
X254735Y214557D01*
X254004Y213996D01*
X253443Y213265D01*
X253090Y212414D01*
X252970Y211500D01*
X253090Y210586D01*
X253443Y209735D01*
X253640Y209478D01*
X253419Y209029D01*
X251133D01*
X250000Y210163D01*
Y213951D01*
X251500D01*
X252476Y214145D01*
X253302Y214698D01*
X256586Y217981D01*
X257414Y218090D01*
X258265Y218443D01*
X258996Y219004D01*
X259557Y219735D01*
X259910Y220586D01*
X260030Y221500D01*
X259910Y222414D01*
X259557Y223265D01*
X258996Y223996D01*
X258265Y224557D01*
X257414Y224910D01*
X256500Y225030D01*
X255586Y224910D01*
X254735Y224557D01*
X254004Y223996D01*
X253443Y223265D01*
X253090Y222414D01*
X252981Y221586D01*
X250444Y219049D01*
X249596D01*
X249375Y219497D01*
X249557Y219735D01*
X249910Y220586D01*
X250030Y221500D01*
X249910Y222414D01*
X249557Y223265D01*
X248996Y223996D01*
X248265Y224557D01*
X247414Y224910D01*
X246500Y225030D01*
X245586Y224910D01*
X244735Y224557D01*
X244004Y223996D01*
X243443Y223265D01*
X243090Y222414D01*
X242970Y221500D01*
X243090Y220586D01*
X243443Y219735D01*
X243625Y219497D01*
X243404Y219049D01*
X242965D01*
X241989Y218855D01*
X241162Y218302D01*
X239698Y216838D01*
X239145Y216011D01*
X238951Y215036D01*
Y206500D01*
X239145Y205524D01*
X239698Y204698D01*
X242700Y201695D01*
X242694Y201466D01*
X242500Y201029D01*
X240985D01*
X240802Y201302D01*
X239976Y201855D01*
X239000Y202049D01*
X238024Y201855D01*
X237970Y201819D01*
X237529Y202054D01*
Y230500D01*
X237413Y231085D01*
X237081Y231581D01*
X223581Y245081D01*
X223085Y245413D01*
X222500Y245529D01*
X221155D01*
X221057Y245765D01*
X220496Y246496D01*
X219765Y247057D01*
X218914Y247410D01*
X218000Y247530D01*
X217086Y247410D01*
X216235Y247057D01*
X215504Y246496D01*
X214943Y245765D01*
X214590Y244914D01*
X214470Y244000D01*
X214590Y243086D01*
X214943Y242235D01*
X215504Y241504D01*
X216235Y240943D01*
X217086Y240590D01*
X218000Y240470D01*
X218914Y240590D01*
X219765Y240943D01*
X220496Y241504D01*
X221057Y242235D01*
X221155Y242471D01*
X221866D01*
X228346Y235991D01*
X228154Y235529D01*
X221155D01*
X221057Y235765D01*
X220496Y236496D01*
X219765Y237057D01*
X218914Y237410D01*
X218000Y237530D01*
X217086Y237410D01*
X216235Y237057D01*
X215504Y236496D01*
X214943Y235765D01*
X214590Y234914D01*
X214470Y234000D01*
X214590Y233086D01*
X214943Y232235D01*
X215504Y231504D01*
X216235Y230943D01*
X217086Y230590D01*
X218000Y230470D01*
X218914Y230590D01*
X219765Y230943D01*
X220496Y231504D01*
X221057Y232235D01*
X221155Y232471D01*
X228366D01*
X231068Y229769D01*
X230765Y229372D01*
X229914Y229725D01*
X229000Y229845D01*
X228086Y229725D01*
X227235Y229372D01*
X226504Y228811D01*
X225943Y228080D01*
X225590Y227229D01*
X225470Y226315D01*
X225590Y225401D01*
X225943Y224550D01*
X226504Y223819D01*
X227235Y223258D01*
X228086Y222905D01*
X229000Y222785D01*
X229914Y222905D01*
X230765Y223258D01*
X231496Y223819D01*
X231971Y224437D01*
X232471Y224308D01*
Y216346D01*
X232009Y216154D01*
X223081Y225081D01*
X222585Y225413D01*
X222000Y225529D01*
X221155D01*
X221057Y225765D01*
X220496Y226496D01*
X219765Y227057D01*
X218914Y227410D01*
X218000Y227530D01*
X217086Y227410D01*
X216235Y227057D01*
X215504Y226496D01*
X214943Y225765D01*
X214590Y224914D01*
X214470Y224000D01*
X214590Y223086D01*
X214943Y222235D01*
X215504Y221504D01*
X216235Y220943D01*
X217086Y220590D01*
X218000Y220470D01*
X218914Y220590D01*
X219765Y220943D01*
X220496Y221504D01*
X220997Y222156D01*
X221334Y222236D01*
X221600Y222238D01*
X230471Y213367D01*
Y208346D01*
X230009Y208154D01*
X223081Y215081D01*
X222585Y215413D01*
X222000Y215529D01*
X221155D01*
X221057Y215765D01*
X220496Y216496D01*
X219765Y217057D01*
X218914Y217410D01*
X218000Y217530D01*
X217086Y217410D01*
X216235Y217057D01*
X215504Y216496D01*
X214943Y215765D01*
X214590Y214914D01*
X214470Y214000D01*
X214590Y213086D01*
X214943Y212235D01*
X215504Y211504D01*
X216235Y210943D01*
X217086Y210590D01*
X218000Y210470D01*
X218914Y210590D01*
X219765Y210943D01*
X220496Y211504D01*
X220997Y212156D01*
X221334Y212236D01*
X221600Y212238D01*
X228471Y205366D01*
Y200346D01*
X228009Y200154D01*
X223081Y205081D01*
X222585Y205413D01*
X222000Y205529D01*
X221155D01*
X221057Y205765D01*
X220496Y206496D01*
X219765Y207057D01*
X218914Y207410D01*
X218000Y207530D01*
X217086Y207410D01*
X216235Y207057D01*
X215504Y206496D01*
X214943Y205765D01*
X214590Y204914D01*
X214470Y204000D01*
X214590Y203086D01*
X214943Y202235D01*
X215504Y201504D01*
X216235Y200943D01*
X217086Y200590D01*
X218000Y200470D01*
X218914Y200590D01*
X219765Y200943D01*
X220496Y201504D01*
X220997Y202156D01*
X221334Y202236D01*
X221600Y202238D01*
X226471Y197366D01*
Y192346D01*
X226009Y192154D01*
X223081Y195081D01*
X222585Y195413D01*
X222000Y195529D01*
X221155D01*
X221057Y195765D01*
X220496Y196496D01*
X219765Y197057D01*
X218914Y197410D01*
X218000Y197530D01*
X217086Y197410D01*
X216235Y197057D01*
X215504Y196496D01*
X214943Y195765D01*
X214590Y194914D01*
X214470Y194000D01*
X214590Y193086D01*
X214943Y192235D01*
X215504Y191504D01*
X216235Y190943D01*
X217086Y190590D01*
X218000Y190470D01*
X218914Y190590D01*
X219765Y190943D01*
X220496Y191504D01*
X220997Y192156D01*
X221334Y192236D01*
X221600Y192238D01*
X224471Y189366D01*
Y184346D01*
X224009Y184154D01*
X223081Y185081D01*
X222585Y185413D01*
X222000Y185529D01*
X221155D01*
X221057Y185765D01*
X220496Y186496D01*
X219765Y187057D01*
X218914Y187410D01*
X218000Y187530D01*
X217086Y187410D01*
X216235Y187057D01*
X215504Y186496D01*
X214943Y185765D01*
X214590Y184914D01*
X214470Y184000D01*
X214590Y183086D01*
X214943Y182235D01*
X215504Y181504D01*
X216235Y180943D01*
X217086Y180590D01*
X218000Y180470D01*
X218914Y180590D01*
X219765Y180943D01*
X220496Y181504D01*
X220997Y182156D01*
X221334Y182236D01*
X221600Y182238D01*
X222471Y181367D01*
Y150000D01*
X222587Y149415D01*
X222919Y148919D01*
X237471Y134367D01*
Y130500D01*
X230529D01*
Y132298D01*
X231029Y132449D01*
X231198Y132198D01*
X232025Y131645D01*
X233000Y131451D01*
X233976Y131645D01*
X234802Y132198D01*
X235355Y133025D01*
X235549Y134000D01*
X235355Y134976D01*
X234802Y135802D01*
X233976Y136355D01*
X233000Y136549D01*
X232678Y136485D01*
X219529Y149634D01*
Y160500D01*
X221500D01*
Y167500D01*
X214500D01*
Y160500D01*
X216471D01*
Y149000D01*
X216587Y148415D01*
X216919Y147919D01*
X230486Y134352D01*
X230462Y134055D01*
X230451Y134000D01*
X230456Y133976D01*
X230446Y133851D01*
X230297Y133741D01*
X230010Y133652D01*
X212029Y151634D01*
Y170867D01*
X213633Y172471D01*
X214845D01*
X214943Y172235D01*
X215504Y171504D01*
X216235Y170943D01*
X217086Y170590D01*
X218000Y170470D01*
X218914Y170590D01*
X219765Y170943D01*
X220496Y171504D01*
X221057Y172235D01*
X221410Y173086D01*
X221530Y174000D01*
X221410Y174914D01*
X221057Y175765D01*
X220496Y176496D01*
X219765Y177057D01*
X218914Y177410D01*
X218000Y177530D01*
X217086Y177410D01*
X216235Y177057D01*
X215504Y176496D01*
X214943Y175765D01*
X214845Y175529D01*
X213000D01*
X212512Y175432D01*
X212415Y175413D01*
X211919Y175081D01*
X209991Y173154D01*
X209529Y173346D01*
Y192015D01*
X209802Y192198D01*
X210355Y193025D01*
X210549Y194000D01*
X210355Y194975D01*
X209802Y195802D01*
X208976Y196355D01*
X208000Y196549D01*
X207025Y196355D01*
X206198Y195802D01*
X205645Y194975D01*
X205451Y194000D01*
X205645Y193025D01*
X206198Y192198D01*
X206471Y192015D01*
Y150000D01*
X206587Y149415D01*
X206919Y148919D01*
X216396Y139441D01*
X216361Y138912D01*
X216198Y138802D01*
X215645Y137976D01*
X215451Y137000D01*
X215645Y136024D01*
X216198Y135198D01*
X217024Y134645D01*
X218000Y134451D01*
X218975Y134645D01*
X219802Y135198D01*
X220355Y136024D01*
X220549Y137000D01*
X220355Y137976D01*
X219842Y138743D01*
X219841Y138789D01*
X220179Y138967D01*
X220360Y138978D01*
X227471Y131867D01*
Y130500D01*
X170529D01*
Y131867D01*
X172134Y133471D01*
X198015D01*
X198198Y133198D01*
X199024Y132645D01*
X200000Y132451D01*
X200975Y132645D01*
X201802Y133198D01*
X202355Y134025D01*
X202549Y135000D01*
X202355Y135976D01*
X201802Y136802D01*
X200975Y137355D01*
X200000Y137549D01*
X199024Y137355D01*
X198198Y136802D01*
X198015Y136529D01*
X196702D01*
X196551Y137029D01*
X196802Y137198D01*
X197355Y138024D01*
X197549Y139000D01*
X197355Y139976D01*
X196802Y140802D01*
X195975Y141355D01*
X195000Y141549D01*
X194025Y141355D01*
X193198Y140802D01*
X193015Y140529D01*
X165500D01*
X164915Y140413D01*
X164419Y140081D01*
X157919Y133581D01*
X157587Y133085D01*
X157471Y132500D01*
Y130500D01*
X150529D01*
Y131867D01*
X161134Y142471D01*
X189015D01*
X189198Y142198D01*
X190024Y141645D01*
X191000Y141451D01*
X191975Y141645D01*
X192802Y142198D01*
X193355Y143025D01*
X193549Y144000D01*
X193355Y144975D01*
X192802Y145802D01*
X191975Y146355D01*
X191000Y146549D01*
X190024Y146355D01*
X189198Y145802D01*
X189015Y145529D01*
X160500D01*
X159915Y145413D01*
X159419Y145081D01*
X147919Y133581D01*
X147587Y133085D01*
X147471Y132500D01*
Y130500D01*
X141500D01*
Y325500D01*
X456500D01*
Y130500D01*
D02*
G37*
G36*
X193198Y137198D02*
X193449Y137029D01*
X193298Y136529D01*
X171500D01*
X171012Y136432D01*
X170915Y136413D01*
X170419Y136081D01*
X167919Y133581D01*
X167587Y133085D01*
X167471Y132500D01*
Y130500D01*
X160529D01*
Y131867D01*
X166133Y137471D01*
X193015D01*
X193198Y137198D01*
D02*
G37*
G36*
X277471Y134367D02*
Y130500D01*
X270529D01*
Y135000D01*
X270432Y135488D01*
X270413Y135585D01*
X270081Y136081D01*
X267154Y139009D01*
X267346Y139471D01*
X272366D01*
X277471Y134367D01*
D02*
G37*
G36*
X267471Y134367D02*
Y130500D01*
X260529D01*
Y135000D01*
X260413Y135585D01*
X260081Y136081D01*
X259154Y137009D01*
X259346Y137471D01*
X264367D01*
X267471Y134367D01*
D02*
G37*
G36*
X257471Y134367D02*
Y130500D01*
X250529D01*
Y135000D01*
X250513Y135084D01*
X250830Y135471D01*
X256366D01*
X257471Y134367D01*
D02*
G37*
G36*
X407471Y132367D02*
Y130500D01*
X400529D01*
Y133000D01*
X400413Y133585D01*
X400081Y134081D01*
X382654Y151509D01*
X382846Y151971D01*
X387866D01*
X407471Y132367D01*
D02*
G37*
G36*
X417471Y132367D02*
Y130500D01*
X410529D01*
Y133000D01*
X410413Y133585D01*
X410081Y134081D01*
X390654Y153509D01*
X390846Y153971D01*
X395866D01*
X417471Y132367D01*
D02*
G37*
G36*
X427471Y132367D02*
Y130500D01*
X420529D01*
Y133000D01*
X420413Y133585D01*
X420082Y134081D01*
X398654Y155509D01*
X398846Y155971D01*
X403866D01*
X427471Y132367D01*
D02*
G37*
%LPC*%
G36*
X336000Y184964D02*
X335586Y184910D01*
X334735Y184557D01*
X334004Y183996D01*
X333443Y183265D01*
X333090Y182414D01*
X333036Y182000D01*
X336000D01*
Y184964D01*
D02*
G37*
G36*
X302950Y183500D02*
X301000D01*
Y181551D01*
X301476Y181645D01*
X302302Y182198D01*
X302855Y183025D01*
X302950Y183500D01*
D02*
G37*
G36*
X300000D02*
X298050D01*
X298145Y183025D01*
X298698Y182198D01*
X299524Y181645D01*
X300000Y181551D01*
Y183500D01*
D02*
G37*
G36*
X270000Y200449D02*
Y198500D01*
X271950D01*
X271855Y198976D01*
X271302Y199802D01*
X270476Y200355D01*
X270000Y200449D01*
D02*
G37*
G36*
X177300Y187164D02*
Y184200D01*
X180264D01*
X180210Y184614D01*
X179857Y185465D01*
X179296Y186196D01*
X178565Y186757D01*
X177714Y187110D01*
X177300Y187164D01*
D02*
G37*
G36*
X176300D02*
X175886Y187110D01*
X175035Y186757D01*
X174304Y186196D01*
X173743Y185465D01*
X173390Y184614D01*
X173336Y184200D01*
X176300D01*
Y187164D01*
D02*
G37*
G36*
X366764Y184200D02*
X363800D01*
Y181236D01*
X364214Y181290D01*
X365065Y181643D01*
X365796Y182204D01*
X366357Y182935D01*
X366710Y183786D01*
X366764Y184200D01*
D02*
G37*
G36*
X306500Y200950D02*
Y199000D01*
X308450D01*
X308355Y199476D01*
X307802Y200302D01*
X306976Y200855D01*
X306500Y200950D01*
D02*
G37*
G36*
X188000Y207530D02*
X187086Y207410D01*
X186235Y207057D01*
X185504Y206496D01*
X184943Y205765D01*
X184590Y204914D01*
X184470Y204000D01*
X184590Y203086D01*
X184943Y202235D01*
X185504Y201504D01*
X186235Y200943D01*
X187086Y200590D01*
X188000Y200470D01*
X188914Y200590D01*
X189765Y200943D01*
X190496Y201504D01*
X191057Y202235D01*
X191410Y203086D01*
X191530Y204000D01*
X191410Y204914D01*
X191057Y205765D01*
X190496Y206496D01*
X189765Y207057D01*
X188914Y207410D01*
X188000Y207530D01*
D02*
G37*
G36*
X176300Y183200D02*
X173336D01*
X173390Y182786D01*
X173743Y181935D01*
X174304Y181204D01*
X175035Y180643D01*
X175886Y180290D01*
X176300Y180236D01*
Y183200D01*
D02*
G37*
G36*
X362800Y184200D02*
X359836D01*
X359890Y183786D01*
X360243Y182935D01*
X360804Y182204D01*
X361535Y181643D01*
X362386Y181290D01*
X362800Y181236D01*
Y184200D01*
D02*
G37*
G36*
X180264Y183200D02*
X177300D01*
Y180236D01*
X177714Y180290D01*
X178565Y180643D01*
X179296Y181204D01*
X179857Y181935D01*
X180210Y182786D01*
X180264Y183200D01*
D02*
G37*
G36*
X305500Y200950D02*
X305025Y200855D01*
X304198Y200302D01*
X303645Y199476D01*
X303551Y199000D01*
X305500D01*
Y200950D01*
D02*
G37*
G36*
X269000Y200449D02*
X268525Y200355D01*
X267698Y199802D01*
X267145Y198976D01*
X267051Y198500D01*
X269000D01*
Y200449D01*
D02*
G37*
G36*
X410500Y194500D02*
X407536D01*
X407590Y194086D01*
X407943Y193235D01*
X408504Y192504D01*
X409235Y191943D01*
X410086Y191590D01*
X410500Y191536D01*
Y194500D01*
D02*
G37*
G36*
X188000Y197530D02*
X187086Y197410D01*
X186235Y197057D01*
X185504Y196496D01*
X184943Y195765D01*
X184590Y194914D01*
X184470Y194000D01*
X184590Y193086D01*
X184943Y192235D01*
X185504Y191504D01*
X186235Y190943D01*
X187086Y190590D01*
X188000Y190470D01*
X188914Y190590D01*
X189765Y190943D01*
X190496Y191504D01*
X191057Y192235D01*
X191410Y193086D01*
X191530Y194000D01*
X191410Y194914D01*
X191057Y195765D01*
X190496Y196496D01*
X189765Y197057D01*
X188914Y197410D01*
X188000Y197530D01*
D02*
G37*
G36*
X410500Y198464D02*
X410086Y198410D01*
X409235Y198057D01*
X408504Y197496D01*
X407943Y196765D01*
X407590Y195914D01*
X407536Y195500D01*
X410500D01*
Y198464D01*
D02*
G37*
G36*
X271950Y197500D02*
X270000D01*
Y195551D01*
X270476Y195645D01*
X271302Y196198D01*
X271855Y197025D01*
X271950Y197500D01*
D02*
G37*
G36*
X305500Y198000D02*
X303551D01*
X303645Y197524D01*
X304198Y196698D01*
X305025Y196145D01*
X305500Y196051D01*
Y198000D01*
D02*
G37*
G36*
X414464Y194500D02*
X411500D01*
Y191536D01*
X411914Y191590D01*
X412765Y191943D01*
X413496Y192504D01*
X414057Y193235D01*
X414410Y194086D01*
X414464Y194500D01*
D02*
G37*
G36*
X363800Y188164D02*
Y185200D01*
X366764D01*
X366710Y185614D01*
X366357Y186465D01*
X365796Y187196D01*
X365065Y187757D01*
X364214Y188110D01*
X363800Y188164D01*
D02*
G37*
G36*
X300000Y186450D02*
X299524Y186355D01*
X298698Y185802D01*
X298145Y184976D01*
X298050Y184500D01*
X300000D01*
Y186450D01*
D02*
G37*
G36*
X269000Y197500D02*
X267051D01*
X267145Y197025D01*
X267698Y196198D01*
X268525Y195645D01*
X269000Y195551D01*
Y197500D01*
D02*
G37*
G36*
X411500Y198464D02*
Y195500D01*
X414464D01*
X414410Y195914D01*
X414057Y196765D01*
X413496Y197496D01*
X412765Y198057D01*
X411914Y198410D01*
X411500Y198464D01*
D02*
G37*
G36*
X362800Y188164D02*
X362386Y188110D01*
X361535Y187757D01*
X360804Y187196D01*
X360243Y186465D01*
X359890Y185614D01*
X359836Y185200D01*
X362800D01*
Y188164D01*
D02*
G37*
G36*
X308450Y198000D02*
X306500D01*
Y196051D01*
X306976Y196145D01*
X307802Y196698D01*
X308355Y197524D01*
X308450Y198000D01*
D02*
G37*
G36*
X301000Y186450D02*
Y184500D01*
X302950D01*
X302855Y184976D01*
X302302Y185802D01*
X301476Y186355D01*
X301000Y186450D01*
D02*
G37*
G36*
X336000Y181000D02*
X333036D01*
X333090Y180586D01*
X333443Y179735D01*
X334004Y179004D01*
X334735Y178443D01*
X335586Y178090D01*
X336000Y178036D01*
Y181000D01*
D02*
G37*
G36*
X439500Y149622D02*
Y146658D01*
X442464D01*
X442410Y147071D01*
X442057Y147923D01*
X441496Y148654D01*
X440765Y149215D01*
X439914Y149567D01*
X439500Y149622D01*
D02*
G37*
G36*
X442500Y159500D02*
X435500D01*
Y152500D01*
X442500D01*
Y159500D01*
D02*
G37*
G36*
X442464Y145658D02*
X439500D01*
Y142693D01*
X439914Y142748D01*
X440765Y143100D01*
X441496Y143661D01*
X442057Y144392D01*
X442410Y145244D01*
X442464Y145658D01*
D02*
G37*
G36*
X438500Y149622D02*
X438086Y149567D01*
X437235Y149215D01*
X436504Y148654D01*
X435943Y147923D01*
X435590Y147071D01*
X435536Y146658D01*
X438500D01*
Y149622D01*
D02*
G37*
G36*
X347950Y161500D02*
X346000D01*
Y159550D01*
X346476Y159645D01*
X347302Y160198D01*
X347855Y161024D01*
X347950Y161500D01*
D02*
G37*
G36*
X176800Y167545D02*
X175886Y167425D01*
X175035Y167072D01*
X174304Y166511D01*
X173743Y165780D01*
X173390Y164929D01*
X173270Y164015D01*
X173390Y163101D01*
X173743Y162250D01*
X174304Y161519D01*
X175035Y160958D01*
X175886Y160605D01*
X176800Y160485D01*
X177714Y160605D01*
X178565Y160958D01*
X179296Y161519D01*
X179857Y162250D01*
X180210Y163101D01*
X180330Y164015D01*
X180210Y164929D01*
X179857Y165780D01*
X179296Y166511D01*
X178565Y167072D01*
X177714Y167425D01*
X176800Y167545D01*
D02*
G37*
G36*
X261000Y155500D02*
X259050D01*
X259145Y155025D01*
X259698Y154198D01*
X260525Y153645D01*
X261000Y153551D01*
Y155500D01*
D02*
G37*
G36*
X345000Y161500D02*
X343051D01*
X343145Y161024D01*
X343698Y160198D01*
X344525Y159645D01*
X345000Y159550D01*
Y161500D01*
D02*
G37*
G36*
X438500Y135964D02*
X438086Y135910D01*
X437235Y135557D01*
X436504Y134996D01*
X435943Y134265D01*
X435590Y133414D01*
X435536Y133000D01*
X438500D01*
Y135964D01*
D02*
G37*
G36*
X439500D02*
Y133000D01*
X442464D01*
X442410Y133414D01*
X442057Y134265D01*
X441496Y134996D01*
X440765Y135557D01*
X439914Y135910D01*
X439500Y135964D01*
D02*
G37*
G36*
X209000Y134000D02*
X207050D01*
X207145Y133525D01*
X207698Y132698D01*
X208524Y132145D01*
X209000Y132051D01*
Y134000D01*
D02*
G37*
G36*
X211949D02*
X210000D01*
Y132051D01*
X210475Y132145D01*
X211302Y132698D01*
X211855Y133525D01*
X211949Y134000D01*
D02*
G37*
G36*
X188000Y167530D02*
X187086Y167410D01*
X186235Y167057D01*
X185504Y166496D01*
X184943Y165765D01*
X184590Y164914D01*
X184470Y164000D01*
X184590Y163086D01*
X184943Y162235D01*
X185451Y161573D01*
Y156000D01*
X185645Y155025D01*
X186198Y154198D01*
X200198Y140198D01*
X201025Y139645D01*
X202000Y139451D01*
X205072D01*
X205735Y138943D01*
X206586Y138590D01*
X207500Y138470D01*
X208414Y138590D01*
X209265Y138943D01*
X209996Y139504D01*
X210557Y140235D01*
X210910Y141086D01*
X211030Y142000D01*
X210910Y142914D01*
X210557Y143765D01*
X209996Y144496D01*
X209265Y145057D01*
X208414Y145410D01*
X207500Y145530D01*
X206586Y145410D01*
X205735Y145057D01*
X205072Y144549D01*
X203056D01*
X190549Y157056D01*
Y161573D01*
X191057Y162235D01*
X191410Y163086D01*
X191530Y164000D01*
X191410Y164914D01*
X191057Y165765D01*
X190496Y166496D01*
X189765Y167057D01*
X188914Y167410D01*
X188000Y167530D01*
D02*
G37*
G36*
X438500Y145658D02*
X435536D01*
X435590Y145244D01*
X435943Y144392D01*
X436504Y143661D01*
X437235Y143100D01*
X438086Y142748D01*
X438500Y142693D01*
Y145658D01*
D02*
G37*
G36*
X209000Y136950D02*
X208524Y136855D01*
X207698Y136302D01*
X207145Y135476D01*
X207050Y135000D01*
X209000D01*
Y136950D01*
D02*
G37*
G36*
X210000D02*
Y135000D01*
X211949D01*
X211855Y135476D01*
X211302Y136302D01*
X210475Y136855D01*
X210000Y136950D01*
D02*
G37*
G36*
X381000Y168530D02*
X380086Y168410D01*
X379235Y168057D01*
X378504Y167496D01*
X377943Y166765D01*
X377590Y165914D01*
X377470Y165000D01*
X377590Y164086D01*
X377943Y163235D01*
X378504Y162504D01*
X379235Y161943D01*
X380086Y161590D01*
X381000Y161470D01*
X381914Y161590D01*
X382765Y161943D01*
X383496Y162504D01*
X384057Y163235D01*
X384410Y164086D01*
X384530Y165000D01*
X384410Y165914D01*
X384057Y166765D01*
X383496Y167496D01*
X382765Y168057D01*
X381914Y168410D01*
X381000Y168530D01*
D02*
G37*
G36*
X247000Y174964D02*
Y172000D01*
X249964D01*
X249910Y172414D01*
X249557Y173265D01*
X248996Y173996D01*
X248265Y174557D01*
X247414Y174910D01*
X247000Y174964D01*
D02*
G37*
G36*
X438500Y176000D02*
X436551D01*
X436645Y175524D01*
X437198Y174698D01*
X438025Y174145D01*
X438500Y174050D01*
Y176000D01*
D02*
G37*
G36*
X188000Y187530D02*
X187086Y187410D01*
X186235Y187057D01*
X185504Y186496D01*
X184943Y185765D01*
X184590Y184914D01*
X184470Y184000D01*
X184590Y183086D01*
X184943Y182235D01*
X185504Y181504D01*
X185860Y181230D01*
X185904Y180567D01*
X184866Y179529D01*
X163000D01*
X162512Y179432D01*
X162415Y179413D01*
X161919Y179081D01*
X157919Y175081D01*
X157587Y174585D01*
X157471Y174000D01*
Y153485D01*
X157198Y153302D01*
X156645Y152476D01*
X156451Y151500D01*
X156645Y150524D01*
X157198Y149698D01*
X158025Y149145D01*
X159000Y148951D01*
X159976Y149145D01*
X160802Y149698D01*
X161355Y150524D01*
X161549Y151500D01*
X161355Y152476D01*
X160802Y153302D01*
X160529Y153485D01*
Y173366D01*
X163634Y176471D01*
X184919D01*
X185140Y176022D01*
X184943Y175765D01*
X184590Y174914D01*
X184470Y174000D01*
X184590Y173086D01*
X184943Y172235D01*
X185504Y171504D01*
X186235Y170943D01*
X187086Y170590D01*
X188000Y170470D01*
X188914Y170590D01*
X189765Y170943D01*
X190496Y171504D01*
X191057Y172235D01*
X191410Y173086D01*
X191530Y174000D01*
X191410Y174914D01*
X191057Y175765D01*
X190496Y176496D01*
X189765Y177057D01*
X188914Y177410D01*
X188000Y177530D01*
X187885Y177515D01*
X187652Y177989D01*
X189081Y179419D01*
X189413Y179915D01*
X189432Y180012D01*
X189529Y180500D01*
Y180845D01*
X189765Y180943D01*
X190496Y181504D01*
X191057Y182235D01*
X191410Y183086D01*
X191530Y184000D01*
X191410Y184914D01*
X191057Y185765D01*
X190496Y186496D01*
X189765Y187057D01*
X188914Y187410D01*
X188000Y187530D01*
D02*
G37*
G36*
X246000Y174964D02*
X245586Y174910D01*
X244735Y174557D01*
X244004Y173996D01*
X243443Y173265D01*
X243090Y172414D01*
X243036Y172000D01*
X246000D01*
Y174964D01*
D02*
G37*
G36*
X439500Y178949D02*
Y177000D01*
X441449D01*
X441355Y177476D01*
X440802Y178302D01*
X439976Y178855D01*
X439500Y178949D01*
D02*
G37*
G36*
X346500Y185030D02*
X345586Y184910D01*
X344735Y184557D01*
X344004Y183996D01*
X343443Y183265D01*
X343090Y182414D01*
X342970Y181500D01*
X343090Y180586D01*
X343443Y179735D01*
X344004Y179004D01*
X344735Y178443D01*
X345586Y178090D01*
X346500Y177970D01*
X347414Y178090D01*
X348265Y178443D01*
X348996Y179004D01*
X349557Y179735D01*
X349910Y180586D01*
X350030Y181500D01*
X349910Y182414D01*
X349557Y183265D01*
X348996Y183996D01*
X348265Y184557D01*
X347414Y184910D01*
X346500Y185030D01*
D02*
G37*
G36*
X441449Y176000D02*
X439500D01*
Y174050D01*
X439976Y174145D01*
X440802Y174698D01*
X441355Y175524D01*
X441449Y176000D01*
D02*
G37*
G36*
X438500Y178949D02*
X438025Y178855D01*
X437198Y178302D01*
X436645Y177476D01*
X436551Y177000D01*
X438500D01*
Y178949D01*
D02*
G37*
G36*
X345000Y164450D02*
X344525Y164355D01*
X343698Y163802D01*
X343145Y162976D01*
X343051Y162500D01*
X345000D01*
Y164450D01*
D02*
G37*
G36*
X346000D02*
Y162500D01*
X347950D01*
X347855Y162976D01*
X347302Y163802D01*
X346476Y164355D01*
X346000Y164450D01*
D02*
G37*
G36*
X363300Y168545D02*
X362386Y168425D01*
X361535Y168072D01*
X360804Y167511D01*
X360243Y166780D01*
X359890Y165929D01*
X359770Y165015D01*
X359890Y164101D01*
X360243Y163250D01*
X360804Y162519D01*
X361535Y161958D01*
X362386Y161605D01*
X363300Y161485D01*
X364214Y161605D01*
X365065Y161958D01*
X365796Y162519D01*
X366357Y163250D01*
X366710Y164101D01*
X366830Y165015D01*
X366710Y165929D01*
X366357Y166780D01*
X365796Y167511D01*
X365065Y168072D01*
X364214Y168425D01*
X363300Y168545D01*
D02*
G37*
G36*
X414500Y168500D02*
X407500D01*
Y161500D01*
X414500D01*
Y168500D01*
D02*
G37*
G36*
X249964Y171000D02*
X247000D01*
Y168036D01*
X247414Y168090D01*
X248265Y168443D01*
X248996Y169004D01*
X249557Y169735D01*
X249910Y170586D01*
X249964Y171000D01*
D02*
G37*
G36*
X306000D02*
X303036D01*
X303090Y170586D01*
X303443Y169735D01*
X304004Y169004D01*
X304735Y168443D01*
X305586Y168090D01*
X306000Y168036D01*
Y171000D01*
D02*
G37*
G36*
X346500Y175030D02*
X345586Y174910D01*
X344735Y174557D01*
X344004Y173996D01*
X343443Y173265D01*
X343090Y172414D01*
X342970Y171500D01*
X343090Y170586D01*
X343443Y169735D01*
X344004Y169004D01*
X344735Y168443D01*
X345586Y168090D01*
X346500Y167970D01*
X347414Y168090D01*
X348265Y168443D01*
X348996Y169004D01*
X349557Y169735D01*
X349910Y170586D01*
X350030Y171500D01*
X349910Y172414D01*
X349557Y173265D01*
X348996Y173996D01*
X348265Y174557D01*
X347414Y174910D01*
X346500Y175030D01*
D02*
G37*
G36*
X246000Y171000D02*
X243036D01*
X243090Y170586D01*
X243443Y169735D01*
X244004Y169004D01*
X244735Y168443D01*
X245586Y168090D01*
X246000Y168036D01*
Y171000D01*
D02*
G37*
G36*
X223500Y303500D02*
X219527D01*
X219616Y302825D01*
X220069Y301731D01*
X220791Y300791D01*
X221731Y300069D01*
X222825Y299616D01*
X223500Y299527D01*
Y303500D01*
D02*
G37*
G36*
X228473D02*
X224500D01*
Y299527D01*
X225175Y299616D01*
X226269Y300069D01*
X227209Y300791D01*
X227931Y301731D01*
X228384Y302825D01*
X228473Y303500D01*
D02*
G37*
G36*
X218473D02*
X214500D01*
Y299527D01*
X215175Y299616D01*
X216269Y300069D01*
X217209Y300791D01*
X217931Y301731D01*
X218384Y302825D01*
X218473Y303500D01*
D02*
G37*
G36*
X440000Y282450D02*
Y280500D01*
X441950D01*
X441855Y280976D01*
X441302Y281802D01*
X440476Y282355D01*
X440000Y282450D01*
D02*
G37*
G36*
X213500Y303500D02*
X209527D01*
X209616Y302825D01*
X210069Y301731D01*
X210791Y300791D01*
X211731Y300069D01*
X212825Y299616D01*
X213500Y299527D01*
Y303500D01*
D02*
G37*
G36*
X338473D02*
X334500D01*
Y299527D01*
X335175Y299616D01*
X336269Y300069D01*
X337209Y300791D01*
X337931Y301731D01*
X338384Y302825D01*
X338473Y303500D01*
D02*
G37*
G36*
X343500D02*
X339527D01*
X339616Y302825D01*
X340069Y301731D01*
X340791Y300791D01*
X341731Y300069D01*
X342825Y299616D01*
X343500Y299527D01*
Y303500D01*
D02*
G37*
G36*
X333500D02*
X329527D01*
X329616Y302825D01*
X330069Y301731D01*
X330791Y300791D01*
X331731Y300069D01*
X332825Y299616D01*
X333500Y299527D01*
Y303500D01*
D02*
G37*
G36*
X233500D02*
X229527D01*
X229616Y302825D01*
X230069Y301731D01*
X230791Y300791D01*
X231731Y300069D01*
X232825Y299616D01*
X233500Y299527D01*
Y303500D01*
D02*
G37*
G36*
X328473D02*
X324500D01*
Y299527D01*
X325175Y299616D01*
X326269Y300069D01*
X327209Y300791D01*
X327931Y301731D01*
X328384Y302825D01*
X328473Y303500D01*
D02*
G37*
G36*
X439000Y282450D02*
X438524Y282355D01*
X437698Y281802D01*
X437145Y280976D01*
X437050Y280500D01*
X439000D01*
Y282450D01*
D02*
G37*
G36*
X171950Y279500D02*
X170000D01*
Y277551D01*
X170475Y277645D01*
X171302Y278198D01*
X171855Y279025D01*
X171950Y279500D01*
D02*
G37*
G36*
X439000D02*
X437050D01*
X437145Y279025D01*
X437698Y278198D01*
X438524Y277645D01*
X439000Y277551D01*
Y279500D01*
D02*
G37*
G36*
X169000D02*
X167051D01*
X167145Y279025D01*
X167698Y278198D01*
X168525Y277645D01*
X169000Y277551D01*
Y279500D01*
D02*
G37*
G36*
X279664Y277500D02*
X276700D01*
Y274536D01*
X277114Y274590D01*
X277965Y274943D01*
X278696Y275504D01*
X279257Y276235D01*
X279610Y277086D01*
X279664Y277500D01*
D02*
G37*
G36*
X382500Y282500D02*
X375500D01*
Y275500D01*
X382500D01*
Y282500D01*
D02*
G37*
G36*
X169000Y282450D02*
X168525Y282355D01*
X167698Y281802D01*
X167145Y280976D01*
X167051Y280500D01*
X169000D01*
Y282450D01*
D02*
G37*
G36*
X170000D02*
Y280500D01*
X171950D01*
X171855Y280976D01*
X171302Y281802D01*
X170475Y282355D01*
X170000Y282450D01*
D02*
G37*
G36*
X296500Y281464D02*
X296086Y281410D01*
X295235Y281057D01*
X294504Y280496D01*
X293943Y279765D01*
X293590Y278914D01*
X293536Y278500D01*
X296500D01*
Y281464D01*
D02*
G37*
G36*
X441950Y279500D02*
X440000D01*
Y277551D01*
X440476Y277645D01*
X441302Y278198D01*
X441855Y279025D01*
X441950Y279500D01*
D02*
G37*
G36*
X276700Y281464D02*
Y278500D01*
X279664D01*
X279610Y278914D01*
X279257Y279765D01*
X278696Y280496D01*
X277965Y281057D01*
X277114Y281410D01*
X276700Y281464D01*
D02*
G37*
G36*
X373500Y308473D02*
X372825Y308384D01*
X371731Y307931D01*
X370791Y307209D01*
X370069Y306269D01*
X369616Y305175D01*
X369527Y304500D01*
X373500D01*
Y308473D01*
D02*
G37*
G36*
X374500D02*
Y304500D01*
X378473D01*
X378384Y305175D01*
X377931Y306269D01*
X377209Y307209D01*
X376269Y307931D01*
X375175Y308384D01*
X374500Y308473D01*
D02*
G37*
G36*
X364500D02*
Y304500D01*
X368473D01*
X368384Y305175D01*
X367931Y306269D01*
X367209Y307209D01*
X366269Y307931D01*
X365175Y308384D01*
X364500Y308473D01*
D02*
G37*
G36*
X344500D02*
Y304500D01*
X348473D01*
X348384Y305175D01*
X347931Y306269D01*
X347209Y307209D01*
X346269Y307931D01*
X345175Y308384D01*
X344500Y308473D01*
D02*
G37*
G36*
X353500D02*
X352825Y308384D01*
X351731Y307931D01*
X350791Y307209D01*
X350069Y306269D01*
X349616Y305175D01*
X349527Y304500D01*
X353500D01*
Y308473D01*
D02*
G37*
G36*
X354000Y318539D02*
X352825Y318384D01*
X351731Y317931D01*
X350791Y317209D01*
X350069Y316269D01*
X349616Y315175D01*
X349461Y314000D01*
X349616Y312825D01*
X350069Y311731D01*
X350791Y310791D01*
X351731Y310069D01*
X352825Y309616D01*
X354000Y309461D01*
X355175Y309616D01*
X356269Y310069D01*
X357209Y310791D01*
X357931Y311731D01*
X358384Y312825D01*
X358539Y314000D01*
X358384Y315175D01*
X357931Y316269D01*
X357209Y317209D01*
X356269Y317931D01*
X355175Y318384D01*
X354000Y318539D01*
D02*
G37*
G36*
X374000D02*
X372825Y318384D01*
X371731Y317931D01*
X370791Y317209D01*
X370069Y316269D01*
X369616Y315175D01*
X369461Y314000D01*
X369616Y312825D01*
X370069Y311731D01*
X370791Y310791D01*
X371731Y310069D01*
X372825Y309616D01*
X374000Y309461D01*
X375175Y309616D01*
X376269Y310069D01*
X377209Y310791D01*
X377931Y311731D01*
X378384Y312825D01*
X378539Y314000D01*
X378384Y315175D01*
X377931Y316269D01*
X377209Y317209D01*
X376269Y317931D01*
X375175Y318384D01*
X374000Y318539D01*
D02*
G37*
G36*
X344000D02*
X342825Y318384D01*
X341731Y317931D01*
X340791Y317209D01*
X340069Y316269D01*
X339616Y315175D01*
X339461Y314000D01*
X339616Y312825D01*
X340069Y311731D01*
X340791Y310791D01*
X341731Y310069D01*
X342825Y309616D01*
X344000Y309461D01*
X345175Y309616D01*
X346269Y310069D01*
X347209Y310791D01*
X347931Y311731D01*
X348384Y312825D01*
X348539Y314000D01*
X348384Y315175D01*
X347931Y316269D01*
X347209Y317209D01*
X346269Y317931D01*
X345175Y318384D01*
X344000Y318539D01*
D02*
G37*
G36*
X244000D02*
X242825Y318384D01*
X241731Y317931D01*
X240791Y317209D01*
X240069Y316269D01*
X239616Y315175D01*
X239461Y314000D01*
X239616Y312825D01*
X240069Y311731D01*
X240791Y310791D01*
X241731Y310069D01*
X242825Y309616D01*
X244000Y309461D01*
X245175Y309616D01*
X246269Y310069D01*
X247209Y310791D01*
X247931Y311731D01*
X248384Y312825D01*
X248539Y314000D01*
X248384Y315175D01*
X247931Y316269D01*
X247209Y317209D01*
X246269Y317931D01*
X245175Y318384D01*
X244000Y318539D01*
D02*
G37*
G36*
X334000D02*
X332825Y318384D01*
X331731Y317931D01*
X330791Y317209D01*
X330069Y316269D01*
X329616Y315175D01*
X329461Y314000D01*
X329616Y312825D01*
X330069Y311731D01*
X330791Y310791D01*
X331731Y310069D01*
X332825Y309616D01*
X334000Y309461D01*
X335175Y309616D01*
X336269Y310069D01*
X337209Y310791D01*
X337931Y311731D01*
X338384Y312825D01*
X338539Y314000D01*
X338384Y315175D01*
X337931Y316269D01*
X337209Y317209D01*
X336269Y317931D01*
X335175Y318384D01*
X334000Y318539D01*
D02*
G37*
G36*
X343500Y308473D02*
X342825Y308384D01*
X341731Y307931D01*
X340791Y307209D01*
X340069Y306269D01*
X339616Y305175D01*
X339527Y304500D01*
X343500D01*
Y308473D01*
D02*
G37*
G36*
X373500Y303500D02*
X369527D01*
X369616Y302825D01*
X370069Y301731D01*
X370791Y300791D01*
X371731Y300069D01*
X372825Y299616D01*
X373500Y299527D01*
Y303500D01*
D02*
G37*
G36*
X378473D02*
X374500D01*
Y299527D01*
X375175Y299616D01*
X376269Y300069D01*
X377209Y300791D01*
X377931Y301731D01*
X378384Y302825D01*
X378473Y303500D01*
D02*
G37*
G36*
X368473D02*
X364500D01*
Y299527D01*
X365175Y299616D01*
X366269Y300069D01*
X367209Y300791D01*
X367931Y301731D01*
X368384Y302825D01*
X368473Y303500D01*
D02*
G37*
G36*
X348473D02*
X344500D01*
Y299527D01*
X345175Y299616D01*
X346269Y300069D01*
X347209Y300791D01*
X347931Y301731D01*
X348384Y302825D01*
X348473Y303500D01*
D02*
G37*
G36*
X353500D02*
X349527D01*
X349616Y302825D01*
X350069Y301731D01*
X350791Y300791D01*
X351731Y300069D01*
X352825Y299616D01*
X353500Y299527D01*
Y303500D01*
D02*
G37*
G36*
X333500Y308473D02*
X332825Y308384D01*
X331731Y307931D01*
X330791Y307209D01*
X330069Y306269D01*
X329616Y305175D01*
X329527Y304500D01*
X333500D01*
Y308473D01*
D02*
G37*
G36*
X334500D02*
Y304500D01*
X338473D01*
X338384Y305175D01*
X337931Y306269D01*
X337209Y307209D01*
X336269Y307931D01*
X335175Y308384D01*
X334500Y308473D01*
D02*
G37*
G36*
X324500D02*
Y304500D01*
X328473D01*
X328384Y305175D01*
X327931Y306269D01*
X327209Y307209D01*
X326269Y307931D01*
X325175Y308384D01*
X324500Y308473D01*
D02*
G37*
G36*
X213500D02*
X212825Y308384D01*
X211731Y307931D01*
X210791Y307209D01*
X210069Y306269D01*
X209616Y305175D01*
X209527Y304500D01*
X213500D01*
Y308473D01*
D02*
G37*
G36*
X214500D02*
Y304500D01*
X218473D01*
X218384Y305175D01*
X217931Y306269D01*
X217209Y307209D01*
X216269Y307931D01*
X215175Y308384D01*
X214500Y308473D01*
D02*
G37*
G36*
X306000Y264964D02*
X305586Y264910D01*
X304735Y264557D01*
X304004Y263996D01*
X303443Y263265D01*
X303090Y262414D01*
X303036Y262000D01*
X306000D01*
Y264964D01*
D02*
G37*
G36*
X307000Y228450D02*
Y226500D01*
X308949D01*
X308855Y226975D01*
X308302Y227802D01*
X307475Y228355D01*
X307000Y228450D01*
D02*
G37*
G36*
X246000Y231000D02*
X243036D01*
X243090Y230586D01*
X243443Y229735D01*
X244004Y229004D01*
X244735Y228443D01*
X245586Y228090D01*
X246000Y228036D01*
Y231000D01*
D02*
G37*
G36*
X306000Y228450D02*
X305524Y228355D01*
X304698Y227802D01*
X304145Y226975D01*
X304050Y226500D01*
X306000D01*
Y228450D01*
D02*
G37*
G36*
X269000D02*
X268525Y228355D01*
X267698Y227802D01*
X267145Y226975D01*
X267051Y226500D01*
X269000D01*
Y228450D01*
D02*
G37*
G36*
X270000D02*
Y226500D01*
X271950D01*
X271855Y226975D01*
X271302Y227802D01*
X270476Y228355D01*
X270000Y228450D01*
D02*
G37*
G36*
X228500Y245500D02*
X225536D01*
X225590Y245086D01*
X225943Y244235D01*
X226504Y243504D01*
X227235Y242943D01*
X228086Y242590D01*
X228500Y242536D01*
Y245500D01*
D02*
G37*
G36*
X232464D02*
X229500D01*
Y242536D01*
X229914Y242590D01*
X230765Y242943D01*
X231496Y243504D01*
X232057Y244235D01*
X232410Y245086D01*
X232464Y245500D01*
D02*
G37*
G36*
X188000Y247530D02*
X187086Y247410D01*
X186235Y247057D01*
X185504Y246496D01*
X184943Y245765D01*
X184590Y244914D01*
X184470Y244000D01*
X184590Y243086D01*
X184943Y242235D01*
X185504Y241504D01*
X186235Y240943D01*
X187086Y240590D01*
X188000Y240470D01*
X188914Y240590D01*
X189765Y240943D01*
X190496Y241504D01*
X191057Y242235D01*
X191410Y243086D01*
X191530Y244000D01*
X191410Y244914D01*
X191057Y245765D01*
X190496Y246496D01*
X189765Y247057D01*
X188914Y247410D01*
X188000Y247530D01*
D02*
G37*
G36*
X249964Y231000D02*
X247000D01*
Y228036D01*
X247414Y228090D01*
X248265Y228443D01*
X248996Y229004D01*
X249557Y229735D01*
X249910Y230586D01*
X249964Y231000D01*
D02*
G37*
G36*
X188000Y237530D02*
X187086Y237410D01*
X186235Y237057D01*
X185504Y236496D01*
X184943Y235765D01*
X184590Y234914D01*
X184470Y234000D01*
X184590Y233086D01*
X184943Y232235D01*
X185504Y231504D01*
X186235Y230943D01*
X187086Y230590D01*
X188000Y230470D01*
X188914Y230590D01*
X189765Y230943D01*
X190496Y231504D01*
X191057Y232235D01*
X191410Y233086D01*
X191530Y234000D01*
X191410Y234914D01*
X191057Y235765D01*
X190496Y236496D01*
X189765Y237057D01*
X188914Y237410D01*
X188000Y237530D01*
D02*
G37*
G36*
X308949Y225500D02*
X307000D01*
Y223551D01*
X307475Y223645D01*
X308302Y224198D01*
X308855Y225025D01*
X308949Y225500D01*
D02*
G37*
G36*
X336000Y214964D02*
X335586Y214910D01*
X334735Y214557D01*
X334004Y213996D01*
X333443Y213265D01*
X333090Y212414D01*
X333036Y212000D01*
X336000D01*
Y214964D01*
D02*
G37*
G36*
X347000D02*
Y212000D01*
X349964D01*
X349910Y212414D01*
X349557Y213265D01*
X348996Y213996D01*
X348265Y214557D01*
X347414Y214910D01*
X347000Y214964D01*
D02*
G37*
G36*
X188000Y217530D02*
X187086Y217410D01*
X186235Y217057D01*
X185504Y216496D01*
X184943Y215765D01*
X184590Y214914D01*
X184470Y214000D01*
X184590Y213086D01*
X184943Y212235D01*
X185504Y211504D01*
X186235Y210943D01*
X187086Y210590D01*
X188000Y210470D01*
X188914Y210590D01*
X189765Y210943D01*
X190496Y211504D01*
X191057Y212235D01*
X191410Y213086D01*
X191530Y214000D01*
X191410Y214914D01*
X191057Y215765D01*
X190496Y216496D01*
X189765Y217057D01*
X188914Y217410D01*
X188000Y217530D01*
D02*
G37*
G36*
X336000Y211000D02*
X333036D01*
X333090Y210586D01*
X333443Y209735D01*
X334004Y209004D01*
X334735Y208443D01*
X335586Y208090D01*
X336000Y208036D01*
Y211000D01*
D02*
G37*
G36*
X349964D02*
X347000D01*
Y208036D01*
X347414Y208090D01*
X348265Y208443D01*
X348996Y209004D01*
X349557Y209735D01*
X349910Y210586D01*
X349964Y211000D01*
D02*
G37*
G36*
X271950Y225500D02*
X270000D01*
Y223551D01*
X270476Y223645D01*
X271302Y224198D01*
X271855Y225025D01*
X271950Y225500D01*
D02*
G37*
G36*
X306000D02*
X304050D01*
X304145Y225025D01*
X304698Y224198D01*
X305524Y223645D01*
X306000Y223551D01*
Y225500D01*
D02*
G37*
G36*
X269000D02*
X267051D01*
X267145Y225025D01*
X267698Y224198D01*
X268525Y223645D01*
X269000Y223551D01*
Y225500D01*
D02*
G37*
G36*
X188000Y227530D02*
X187086Y227410D01*
X186235Y227057D01*
X185504Y226496D01*
X184943Y225765D01*
X184590Y224914D01*
X184470Y224000D01*
X184590Y223086D01*
X184943Y222235D01*
X185504Y221504D01*
X186235Y220943D01*
X187086Y220590D01*
X188000Y220470D01*
X188914Y220590D01*
X189765Y220943D01*
X190496Y221504D01*
X191057Y222235D01*
X191410Y223086D01*
X191530Y224000D01*
X191410Y224914D01*
X191057Y225765D01*
X190496Y226496D01*
X189765Y227057D01*
X188914Y227410D01*
X188000Y227530D01*
D02*
G37*
G36*
X363300Y230230D02*
X362386Y230110D01*
X361535Y229757D01*
X360804Y229196D01*
X360243Y228465D01*
X359890Y227614D01*
X359770Y226700D01*
X359890Y225786D01*
X360243Y224935D01*
X360804Y224204D01*
X361535Y223643D01*
X362386Y223290D01*
X363300Y223170D01*
X364214Y223290D01*
X365065Y223643D01*
X365796Y224204D01*
X366357Y224935D01*
X366710Y225786D01*
X366830Y226700D01*
X366710Y227614D01*
X366357Y228465D01*
X365796Y229196D01*
X365065Y229757D01*
X364214Y230110D01*
X363300Y230230D01*
D02*
G37*
G36*
X441950Y259500D02*
X440000D01*
Y257551D01*
X440476Y257645D01*
X441302Y258198D01*
X441855Y259025D01*
X441950Y259500D01*
D02*
G37*
G36*
X286000Y261000D02*
X283036D01*
X283090Y260586D01*
X283443Y259735D01*
X284004Y259004D01*
X284735Y258443D01*
X285586Y258090D01*
X286000Y258036D01*
Y261000D01*
D02*
G37*
G36*
X439000Y259500D02*
X437050D01*
X437145Y259025D01*
X437698Y258198D01*
X438524Y257645D01*
X439000Y257551D01*
Y259500D01*
D02*
G37*
G36*
X218500Y257464D02*
Y254500D01*
X221464D01*
X221410Y254914D01*
X221057Y255765D01*
X220496Y256496D01*
X219765Y257057D01*
X218914Y257410D01*
X218500Y257464D01*
D02*
G37*
G36*
X347950Y259500D02*
X346000D01*
Y257551D01*
X346476Y257645D01*
X347302Y258198D01*
X347855Y259025D01*
X347950Y259500D01*
D02*
G37*
G36*
X440000Y262450D02*
Y260500D01*
X441950D01*
X441855Y260976D01*
X441302Y261802D01*
X440476Y262355D01*
X440000Y262450D01*
D02*
G37*
G36*
X286000Y264964D02*
X285586Y264910D01*
X284735Y264557D01*
X284004Y263996D01*
X283443Y263265D01*
X283090Y262414D01*
X283036Y262000D01*
X286000D01*
Y264964D01*
D02*
G37*
G36*
X439000Y262450D02*
X438524Y262355D01*
X437698Y261802D01*
X437145Y260976D01*
X437050Y260500D01*
X439000D01*
Y262450D01*
D02*
G37*
G36*
X306000Y261000D02*
X303036D01*
X303090Y260586D01*
X303443Y259735D01*
X304004Y259004D01*
X304735Y258443D01*
X305586Y258090D01*
X306000Y258036D01*
Y261000D01*
D02*
G37*
G36*
X346000Y262450D02*
Y260500D01*
X347950D01*
X347855Y260976D01*
X347302Y261802D01*
X346476Y262355D01*
X346000Y262450D01*
D02*
G37*
G36*
X217500Y257464D02*
X217086Y257410D01*
X216235Y257057D01*
X215504Y256496D01*
X214943Y255765D01*
X214590Y254914D01*
X214536Y254500D01*
X217500D01*
Y257464D01*
D02*
G37*
G36*
X191464Y253500D02*
X188500D01*
Y250536D01*
X188914Y250590D01*
X189765Y250943D01*
X190496Y251504D01*
X191057Y252235D01*
X191410Y253086D01*
X191464Y253500D01*
D02*
G37*
G36*
X217500D02*
X214536D01*
X214590Y253086D01*
X214943Y252235D01*
X215504Y251504D01*
X216235Y250943D01*
X217086Y250590D01*
X217500Y250536D01*
Y253500D01*
D02*
G37*
G36*
X187500D02*
X184536D01*
X184590Y253086D01*
X184943Y252235D01*
X185504Y251504D01*
X186235Y250943D01*
X187086Y250590D01*
X187500Y250536D01*
Y253500D01*
D02*
G37*
G36*
X228500Y249464D02*
X228086Y249410D01*
X227235Y249057D01*
X226504Y248496D01*
X225943Y247765D01*
X225590Y246914D01*
X225536Y246500D01*
X228500D01*
Y249464D01*
D02*
G37*
G36*
X229500D02*
Y246500D01*
X232464D01*
X232410Y246914D01*
X232057Y247765D01*
X231496Y248496D01*
X230765Y249057D01*
X229914Y249410D01*
X229500Y249464D01*
D02*
G37*
G36*
X187500Y257464D02*
X187086Y257410D01*
X186235Y257057D01*
X185504Y256496D01*
X184943Y255765D01*
X184590Y254914D01*
X184536Y254500D01*
X187500D01*
Y257464D01*
D02*
G37*
G36*
X188500D02*
Y254500D01*
X191464D01*
X191410Y254914D01*
X191057Y255765D01*
X190496Y256496D01*
X189765Y257057D01*
X188914Y257410D01*
X188500Y257464D01*
D02*
G37*
G36*
X336000Y254964D02*
X335586Y254910D01*
X334735Y254557D01*
X334004Y253996D01*
X333443Y253265D01*
X333090Y252414D01*
X333036Y252000D01*
X336000D01*
Y254964D01*
D02*
G37*
G36*
X221464Y253500D02*
X218500D01*
Y250536D01*
X218914Y250590D01*
X219765Y250943D01*
X220496Y251504D01*
X221057Y252235D01*
X221410Y253086D01*
X221464Y253500D01*
D02*
G37*
G36*
X266000Y254964D02*
X265586Y254910D01*
X264735Y254557D01*
X264004Y253996D01*
X263443Y253265D01*
X263090Y252414D01*
X263036Y252000D01*
X266000D01*
Y254964D01*
D02*
G37*
%LPD*%
D10*
X149000Y115000D02*
D03*
X159000D02*
D03*
X169000D02*
D03*
X179000D02*
D03*
X189000D02*
D03*
X199000D02*
D03*
X209000D02*
D03*
X219000D02*
D03*
X229000D02*
D03*
X239000D02*
D03*
X249000D02*
D03*
X259000D02*
D03*
X269000D02*
D03*
X279000D02*
D03*
X289000D02*
D03*
X299000D02*
D03*
X309000D02*
D03*
X319000D02*
D03*
X329000D02*
D03*
X339000D02*
D03*
X349000D02*
D03*
X359000D02*
D03*
X369000D02*
D03*
X379000D02*
D03*
X389000D02*
D03*
X399000D02*
D03*
X409000D02*
D03*
X419000D02*
D03*
X429000D02*
D03*
X439000D02*
D03*
X449000D02*
D03*
D11*
X351500Y216500D02*
X362000D01*
X346500Y221500D02*
X351500Y216500D01*
X331500Y243000D02*
X335000Y246500D01*
X341500Y249000D02*
Y265000D01*
X339000Y246500D02*
X341500Y249000D01*
X335000Y246500D02*
X339000D01*
X340500Y165500D02*
Y242000D01*
X336500Y161500D02*
X340500Y165500D01*
Y242000D02*
X344000Y245500D01*
X342500Y233500D02*
X345500Y236500D01*
X342500Y195500D02*
Y233500D01*
Y195500D02*
X346500Y191500D01*
X345500Y236500D02*
X364500D01*
X369000Y241000D01*
X321500Y263000D02*
X325500Y267000D01*
X333500D01*
X339000Y272500D01*
Y279000D01*
X249000Y261000D02*
Y309000D01*
X241500Y253500D02*
X249000Y261000D01*
X289000Y282000D02*
Y309000D01*
X276500Y269500D02*
X289000Y282000D01*
X276500Y261500D02*
Y269500D01*
X222500Y244000D02*
X236000Y230500D01*
X218000Y244000D02*
X222500D01*
X165500Y139000D02*
X195000D01*
X159000Y132500D02*
X165500Y139000D01*
X159000Y115000D02*
Y132500D01*
X171500Y135000D02*
X200000D01*
X169000Y132500D02*
X171500Y135000D01*
X169000Y115000D02*
Y132500D01*
X290000Y134500D02*
X295500D01*
X279500Y145000D02*
X290000Y134500D01*
X295500D02*
X299000Y131000D01*
X229000Y234000D02*
X234000Y229000D01*
Y161314D02*
Y229000D01*
Y161314D02*
X252314Y143000D01*
X218000Y234000D02*
X229000D01*
X224000Y150000D02*
Y182000D01*
X226000Y158000D02*
Y190000D01*
X228000Y158828D02*
Y198000D01*
X230000Y159657D02*
Y206000D01*
X232000Y160485D02*
Y214000D01*
X230000Y159657D02*
X250657Y139000D01*
X232000Y160485D02*
X251485Y141000D01*
X228000Y158828D02*
X249828Y137000D01*
X242500Y199500D02*
X246000Y196000D01*
X239000Y199500D02*
X242500D01*
Y188500D02*
X244000Y187000D01*
X239000Y188500D02*
X242500D01*
X224000Y150000D02*
X239000Y135000D01*
Y115000D02*
Y135000D01*
X222000Y204000D02*
X228000Y198000D01*
X222000Y194000D02*
X226000Y190000D01*
X222000Y184000D02*
X224000Y182000D01*
X226000Y158000D02*
X249000Y135000D01*
X308172Y177000D02*
X311000Y174172D01*
X322000Y170000D02*
Y185000D01*
X319000Y167000D02*
X322000Y170000D01*
X314000Y167000D02*
X319000D01*
X311000Y170000D02*
X314000Y167000D01*
X311000Y170000D02*
Y174172D01*
X309000Y179000D02*
X316500Y171500D01*
X277000Y179000D02*
X309000D01*
X260000Y196000D02*
X277000Y179000D01*
X296500Y171500D02*
X302000Y166000D01*
X322000Y185000D02*
X328500Y191500D01*
X336500D01*
X246000Y196000D02*
X260000D01*
X218000Y194000D02*
X222000D01*
X339000Y115000D02*
Y134000D01*
X218000Y149000D02*
X233000Y134000D01*
X319000Y115000D02*
Y131515D01*
X348550Y143450D02*
X359000Y133000D01*
X328107Y143450D02*
X348550D01*
X359000Y115000D02*
Y133000D01*
X287378Y149450D02*
X372550D01*
X295500Y151500D02*
X380500D01*
X307172Y153500D02*
X388500D01*
X308000Y155500D02*
X396500D01*
X319500Y157500D02*
X404500D01*
X372550Y149450D02*
X389000Y133000D01*
X380500Y151500D02*
X399000Y133000D01*
X388500Y153500D02*
X409000Y133000D01*
X396500Y155500D02*
X419000Y133000D01*
X404500Y157500D02*
X429000Y133000D01*
X327485Y140000D02*
X347000D01*
X319000Y131515D02*
X327485Y140000D01*
X321157Y136500D02*
X328107Y143450D01*
X291843Y136500D02*
X321157D01*
X319500Y140500D02*
X326450Y147450D01*
X293500Y140500D02*
X319500D01*
X320328Y138500D02*
X327278Y145450D01*
X316500Y160500D02*
X319500Y157500D01*
X292672Y138500D02*
X320328D01*
X276500Y157500D02*
X293500Y140500D01*
X277000Y143000D02*
X289000Y131000D01*
Y115000D02*
Y131000D01*
X271343Y157000D02*
X291843Y136500D01*
X272000Y159172D02*
X292672Y138500D01*
X282000Y154828D02*
X287378Y149450D01*
X282000Y154828D02*
Y166000D01*
X276500Y157500D02*
Y161500D01*
X272000Y159172D02*
Y166000D01*
X265000Y157000D02*
X271343D01*
X252314Y143000D02*
X277000D01*
X218000Y149000D02*
Y164000D01*
X299000Y115000D02*
Y131000D01*
X257000Y137000D02*
X259000Y135000D01*
X249828Y137000D02*
X257000D01*
X218000Y184000D02*
X222000D01*
X218000Y204000D02*
X222000D01*
Y214000D02*
X230000Y206000D01*
X218000Y214000D02*
X222000D01*
Y224000D02*
X232000Y214000D01*
X218000Y224000D02*
X222000D01*
X259000Y115000D02*
Y135000D01*
X249000Y115000D02*
Y135000D01*
X213000Y174000D02*
X218000D01*
X290500Y255500D02*
Y280000D01*
X286500Y251500D02*
X290500Y255500D01*
Y280000D02*
X299000Y288500D01*
X292500Y255500D02*
Y267000D01*
Y255500D02*
X296500Y251500D01*
X269000Y268000D02*
Y309000D01*
X266500Y265500D02*
X269000Y268000D01*
X266500Y261500D02*
Y265500D01*
X296500Y266500D02*
X309500Y279500D01*
X369000Y241000D02*
Y279000D01*
X302000Y158672D02*
X307172Y153500D01*
X306500Y157000D02*
X308000Y155500D01*
X306500Y157000D02*
Y161500D01*
X349000Y272500D02*
Y279000D01*
X341500Y265000D02*
X349000Y272500D01*
X331500Y287500D02*
X351500D01*
X329000Y285000D02*
X331500Y287500D01*
X329000Y279000D02*
Y285000D01*
X354000Y249500D02*
Y285000D01*
X351500Y287500D02*
X354000Y285000D01*
X246500Y211500D02*
X250500Y207500D01*
X344000Y245500D02*
X350000D01*
X354000Y249500D01*
X359000Y309000D02*
X364000Y314000D01*
X359000Y301000D02*
Y309000D01*
X306500Y251500D02*
X311500Y256500D01*
X239000Y239000D02*
X241500Y236500D01*
X239000Y239000D02*
Y306071D01*
X316500Y239500D02*
Y251500D01*
X313500Y236500D02*
X316500Y239500D01*
X241500Y236500D02*
X313500D01*
X236071Y309000D02*
X239000Y306071D01*
X219000Y309000D02*
X236071D01*
X214000Y314000D02*
X219000Y309000D01*
X299000Y288500D02*
Y309000D01*
X279000Y288500D02*
Y309000D01*
X259000Y299000D02*
Y309000D01*
X262000Y160000D02*
X265000Y157000D01*
X302000Y158672D02*
Y166000D01*
X262000Y160000D02*
Y166000D01*
X256500Y171500D02*
X262000Y166000D01*
X266500Y171500D02*
X272000Y166000D01*
X389000Y115000D02*
Y133000D01*
X276500Y171500D02*
X282000Y166000D01*
X429000Y115000D02*
Y133000D01*
X419000Y115000D02*
Y133000D01*
X399000Y115000D02*
Y133000D01*
X409000Y115000D02*
Y133000D01*
X316500Y160500D02*
Y161500D01*
X241500Y249000D02*
Y253500D01*
X249000Y309000D02*
X254000Y314000D01*
X241500Y249000D02*
X245000Y245500D01*
X273500D01*
X276500Y248500D01*
Y251500D01*
X270000Y247500D02*
X271500Y249000D01*
X250500Y247500D02*
X270000D01*
X246500Y251500D02*
X250500Y247500D01*
X359000Y244000D02*
Y279000D01*
X356500Y241500D02*
X359000Y244000D01*
X346500Y241500D02*
X356500D01*
X319000Y309000D02*
X324000Y314000D01*
X309000Y309000D02*
X314000Y314000D01*
X299000Y309000D02*
X304000Y314000D01*
X289000Y309000D02*
X294000Y314000D01*
X296500Y261500D02*
Y266500D01*
X279000Y309000D02*
X284000Y314000D01*
X269000Y309000D02*
X274000Y314000D01*
X259000Y309000D02*
X264000Y314000D01*
X259000Y299000D02*
X261500Y296500D01*
X256500Y251500D02*
X261500Y256500D01*
Y296500D01*
X271500Y249000D02*
Y281000D01*
X279000Y288500D01*
X346500Y201500D02*
X353000Y195000D01*
X378500D01*
X326450Y147450D02*
X364550D01*
X379000Y133000D01*
Y115000D02*
Y133000D01*
X327278Y145450D02*
X356550D01*
X369000Y133000D01*
Y115000D02*
Y133000D01*
X149000Y115000D02*
Y132500D01*
X160500Y144000D01*
X191000D01*
X250657Y139000D02*
X265000D01*
X269000Y135000D01*
Y115000D02*
Y135000D01*
X251485Y141000D02*
X273000D01*
X279000Y135000D01*
Y115000D02*
Y135000D01*
X229000Y115000D02*
Y132500D01*
X185500Y178000D02*
X188000Y180500D01*
Y184000D01*
X159000Y151500D02*
Y174000D01*
X163000Y178000D01*
X185500D01*
X246500Y181500D02*
X252000Y176000D01*
X244000Y187000D02*
X266172D01*
X276172Y177000D01*
X308172D01*
X321500Y222500D02*
Y263000D01*
X256500Y211500D02*
X310500D01*
X321500Y222500D01*
X331500Y226500D02*
Y243000D01*
X250500Y207500D02*
X312500D01*
X331500Y226500D01*
X292500Y267000D02*
X302500Y277000D01*
Y284500D01*
X309000Y291000D01*
Y309000D01*
X311500Y256500D02*
Y283000D01*
X309500Y279500D02*
Y283828D01*
X319000Y293328D01*
Y309000D01*
X218000Y137000D02*
Y140000D01*
X210500Y151000D02*
X229000Y132500D01*
X210500Y151000D02*
Y171500D01*
X213000Y174000D01*
X311500Y283000D02*
X321500Y293000D01*
X351000D01*
X359000Y301000D01*
X247000Y160000D02*
X252000Y165000D01*
Y176000D01*
X253142Y145000D02*
X279500D01*
X236000Y162142D02*
Y230500D01*
Y162142D02*
X253142Y145000D01*
X208000Y150000D02*
X218000Y140000D01*
X208000Y150000D02*
Y194000D01*
X291900Y155100D02*
X295500Y151500D01*
X291900Y155100D02*
Y166100D01*
X286500Y171500D02*
X291900Y166100D01*
D12*
X439000Y115000D02*
Y132500D01*
X449000Y115000D02*
Y132500D01*
X241500Y206500D02*
X246500Y201500D01*
X241500Y206500D02*
Y215036D01*
X242965Y216500D01*
X251500D01*
X256500Y221500D01*
X380985Y165015D02*
X381000Y165000D01*
X188000Y156000D02*
X202000Y142000D01*
X207500D01*
X188000Y156000D02*
Y164000D01*
D13*
X374000Y314000D02*
D03*
Y304000D02*
D03*
X364000Y314000D02*
D03*
Y304000D02*
D03*
X354000Y314000D02*
D03*
Y304000D02*
D03*
X344000Y314000D02*
D03*
Y304000D02*
D03*
X334000Y314000D02*
D03*
Y304000D02*
D03*
X324000Y314000D02*
D03*
Y304000D02*
D03*
X314000Y314000D02*
D03*
Y304000D02*
D03*
X304000Y314000D02*
D03*
Y304000D02*
D03*
X294000Y314000D02*
D03*
X254000Y304000D02*
D03*
X294000D02*
D03*
X284000Y314000D02*
D03*
Y304000D02*
D03*
X274000Y314000D02*
D03*
Y304000D02*
D03*
X264000Y314000D02*
D03*
Y304000D02*
D03*
X254000Y314000D02*
D03*
X244000D02*
D03*
Y304000D02*
D03*
X234000Y314000D02*
D03*
Y304000D02*
D03*
X224000Y314000D02*
D03*
Y304000D02*
D03*
X214000D02*
D03*
Y314000D02*
D03*
D14*
X439000Y146158D02*
D03*
X381000Y195000D02*
D03*
Y165000D02*
D03*
X411000Y195000D02*
D03*
X176800Y164015D02*
D03*
Y183700D02*
D03*
X369000Y279000D02*
D03*
X359000D02*
D03*
X349000D02*
D03*
X339000D02*
D03*
X329000D02*
D03*
X363300Y226700D02*
D03*
Y216700D02*
D03*
X296415Y145000D02*
D03*
X316100D02*
D03*
X256500Y211500D02*
D03*
X246500Y201500D02*
D03*
X256500D02*
D03*
X246500Y191500D02*
D03*
X256500D02*
D03*
X246500Y181500D02*
D03*
X256500D02*
D03*
X246500Y171500D02*
D03*
X256500Y161500D02*
D03*
Y171500D02*
D03*
X266500Y161500D02*
D03*
Y171500D02*
D03*
X276500Y161500D02*
D03*
Y171500D02*
D03*
X286500Y161500D02*
D03*
Y171500D02*
D03*
X296500Y161500D02*
D03*
Y171500D02*
D03*
X306500Y161500D02*
D03*
Y171500D02*
D03*
X316500Y161500D02*
D03*
Y171500D02*
D03*
X326500Y161500D02*
D03*
Y171500D02*
D03*
X336500Y161500D02*
D03*
X346500Y171500D02*
D03*
X336500D02*
D03*
X346500Y181500D02*
D03*
X336500D02*
D03*
X346500Y191500D02*
D03*
X336500D02*
D03*
X346500Y201500D02*
D03*
X336500D02*
D03*
X346500Y211500D02*
D03*
X336500D02*
D03*
X346500Y221500D02*
D03*
X336500D02*
D03*
X346500Y231500D02*
D03*
X336500D02*
D03*
X346500Y241500D02*
D03*
X336500D02*
D03*
X346500Y251500D02*
D03*
X336500Y261500D02*
D03*
Y251500D02*
D03*
X326500Y261500D02*
D03*
Y251500D02*
D03*
X316500Y261500D02*
D03*
Y251500D02*
D03*
X306500Y261500D02*
D03*
Y251500D02*
D03*
X296500Y261500D02*
D03*
Y251500D02*
D03*
X286500Y261500D02*
D03*
Y251500D02*
D03*
X276500Y261500D02*
D03*
Y251500D02*
D03*
X266500Y261500D02*
D03*
Y251500D02*
D03*
X256500Y261500D02*
D03*
X246500Y251500D02*
D03*
X256500D02*
D03*
X246500Y241500D02*
D03*
X256500D02*
D03*
X246500Y231500D02*
D03*
X256500D02*
D03*
X246500Y221500D02*
D03*
X256500D02*
D03*
X316685Y278000D02*
D03*
X297000D02*
D03*
X256515D02*
D03*
X276200D02*
D03*
X229000Y226315D02*
D03*
Y246000D02*
D03*
X218000Y174000D02*
D03*
Y184000D02*
D03*
Y194000D02*
D03*
Y204000D02*
D03*
Y214000D02*
D03*
Y224000D02*
D03*
Y234000D02*
D03*
Y244000D02*
D03*
Y254000D02*
D03*
X188000Y164000D02*
D03*
Y174000D02*
D03*
Y184000D02*
D03*
Y194000D02*
D03*
Y204000D02*
D03*
Y214000D02*
D03*
Y224000D02*
D03*
Y234000D02*
D03*
Y244000D02*
D03*
Y254000D02*
D03*
X363300Y165015D02*
D03*
Y184700D02*
D03*
X207500Y142000D02*
D03*
X439000Y132500D02*
D03*
X449000D02*
D03*
D15*
X439000Y156000D02*
D03*
X246500Y211500D02*
D03*
D16*
X411000Y165000D02*
D03*
X379000Y279000D02*
D03*
X218000Y164000D02*
D03*
D17*
X300500Y184000D02*
D03*
X169500Y280000D02*
D03*
X439500D02*
D03*
X439000Y176500D02*
D03*
X209500Y134500D02*
D03*
X269500Y198000D02*
D03*
X306000Y198500D02*
D03*
X269500Y226000D02*
D03*
X306500D02*
D03*
X439500Y260000D02*
D03*
X345500D02*
D03*
Y162000D02*
D03*
X261500Y156000D02*
D03*
X208000Y194000D02*
D03*
X195000Y139000D02*
D03*
X191000Y144000D02*
D03*
X239000Y199500D02*
D03*
Y188500D02*
D03*
X218000Y137000D02*
D03*
X339000Y134000D02*
D03*
X233000D02*
D03*
X347000Y140000D02*
D03*
X159000Y151500D02*
D03*
X200000Y135000D02*
D03*
X247000Y160000D02*
D03*
M02*
