G04 Layer_Color=13813960*
%FSLAX25Y25*%
%MOIN*%
G70*
G01*
G75*
%ADD32C,0.00600*%
D32*
X206500Y188999D02*
X205500D01*
X206000D01*
Y186000D01*
X206500D01*
X205500D01*
X204001D02*
Y188999D01*
X202501D01*
X202002Y188499D01*
Y187499D01*
X202501Y187000D01*
X204001D01*
X203001D02*
X202002Y186000D01*
X199002Y186500D02*
Y188499D01*
X199502Y188999D01*
X200502D01*
X201002Y188499D01*
Y186500D01*
X200502Y186000D01*
X199502D01*
X200002Y187000D02*
X199002Y186000D01*
X199502D02*
X199002Y186500D01*
X309001Y200000D02*
Y198001D01*
Y199000D01*
X312000D01*
X309501Y195002D02*
X309001Y195501D01*
Y196501D01*
X309501Y197001D01*
X311500D01*
X312000Y196501D01*
Y195501D01*
X311500Y195002D01*
X319001Y208500D02*
Y207500D01*
Y208000D01*
X322000D01*
Y208500D01*
Y207500D01*
X319001Y206001D02*
X322000D01*
Y204501D01*
X321500Y204001D01*
X319501D01*
X319001Y204501D01*
Y206001D01*
Y201002D02*
Y203002D01*
X322000D01*
Y201002D01*
X320500Y203002D02*
Y202002D01*
X322000Y200003D02*
X319001D01*
X322000Y198003D01*
X319001D01*
Y197004D02*
Y195004D01*
Y196004D01*
X322000D01*
X326500Y184999D02*
X326000Y185499D01*
X325001D01*
X324501Y184999D01*
Y183000D01*
X325001Y182500D01*
X326000D01*
X326500Y183000D01*
Y184999D01*
X326000Y189500D02*
X325000D01*
X325500D01*
Y192499D01*
X326000Y191999D01*
X161500Y142000D02*
Y144999D01*
X160001D01*
X159501Y144499D01*
Y143500D01*
X160001Y143000D01*
X161500D01*
X160500D02*
X159501Y142000D01*
X156502Y144999D02*
X158501D01*
Y142000D01*
X156502D01*
X158501Y143500D02*
X157501D01*
X155502Y144999D02*
Y143000D01*
X154502Y142000D01*
X153503Y143000D01*
Y144999D01*
X149504Y142000D02*
Y143999D01*
X148504Y144999D01*
X147504Y143999D01*
Y142000D01*
Y143500D01*
X149504D01*
X171501Y138999D02*
X172500D01*
X172001D01*
Y136500D01*
X172500Y136000D01*
X173000D01*
X173500Y136500D01*
X170501Y137999D02*
Y136500D01*
X170001Y136000D01*
X168502D01*
Y137999D01*
X167502Y136000D02*
Y137999D01*
X166002D01*
X165503Y137499D01*
Y136000D01*
X163003D02*
X164003D01*
X164503Y136500D01*
Y137499D01*
X164003Y137999D01*
X163003D01*
X162504Y137499D01*
Y137000D01*
X164503D01*
X156506Y136000D02*
X158505D01*
X156506Y137999D01*
Y138499D01*
X157005Y138999D01*
X158005D01*
X158505Y138499D01*
X155506D02*
X155006Y138999D01*
X154006D01*
X153507Y138499D01*
Y136500D01*
X154006Y136000D01*
X155006D01*
X155506Y136500D01*
Y138499D01*
X150507Y136000D02*
X152507D01*
X150507Y137999D01*
Y138499D01*
X151007Y138999D01*
X152007D01*
X152507Y138499D01*
X149508D02*
X149008Y138999D01*
X148008D01*
X147508Y138499D01*
Y136500D01*
X148008Y136000D01*
X149008D01*
X149508Y136500D01*
Y138499D01*
M02*
