G04 Layer_Color=8150272*
%FSLAX25Y25*%
%MOIN*%
G70*
G01*
G75*
G04:AMPARAMS|DCode=24|XSize=68mil|YSize=283mil|CornerRadius=10mil|HoleSize=0mil|Usage=FLASHONLY|Rotation=0.000|XOffset=0mil|YOffset=0mil|HoleType=Round|Shape=RoundedRectangle|*
%AMROUNDEDRECTD24*
21,1,0.06800,0.26300,0,0,0.0*
21,1,0.04800,0.28300,0,0,0.0*
1,1,0.02000,0.02400,-0.13150*
1,1,0.02000,-0.02400,-0.13150*
1,1,0.02000,-0.02400,0.13150*
1,1,0.02000,0.02400,0.13150*
%
%ADD24ROUNDEDRECTD24*%
%ADD25C,0.07800*%
%ADD26C,0.05800*%
%ADD27R,0.05800X0.05800*%
%ADD28R,0.05800X0.05800*%
%ADD29C,0.03800*%
%ADD30R,0.02800X0.04800*%
%ADD31R,0.04800X0.02800*%
G36*
X312900Y182600D02*
X308100D01*
Y192400D01*
X312900D01*
Y182600D01*
D02*
G37*
G36*
X322900D02*
X318100D01*
Y192400D01*
X322900D01*
Y182600D01*
D02*
G37*
G36*
X205900Y191600D02*
X199600D01*
Y196400D01*
X205900D01*
Y191600D01*
D02*
G37*
D24*
X349000Y115000D02*
D03*
X149000D02*
D03*
X159000D02*
D03*
X169000D02*
D03*
X179000D02*
D03*
X189000D02*
D03*
X199000D02*
D03*
X209000D02*
D03*
X219000D02*
D03*
X229000D02*
D03*
X239000D02*
D03*
X249000D02*
D03*
X259000D02*
D03*
X269000D02*
D03*
X279000D02*
D03*
X289000D02*
D03*
X299000D02*
D03*
X309000D02*
D03*
X319000D02*
D03*
X329000D02*
D03*
X339000D02*
D03*
X359000D02*
D03*
X369000D02*
D03*
X379000D02*
D03*
X389000D02*
D03*
X399000D02*
D03*
X409000D02*
D03*
X419000D02*
D03*
X429000D02*
D03*
X439000D02*
D03*
X449000D02*
D03*
D25*
X374000Y314000D02*
D03*
Y304000D02*
D03*
X364000Y314000D02*
D03*
Y304000D02*
D03*
X354000Y314000D02*
D03*
Y304000D02*
D03*
X344000Y314000D02*
D03*
Y304000D02*
D03*
X334000Y314000D02*
D03*
Y304000D02*
D03*
X324000Y314000D02*
D03*
Y304000D02*
D03*
X314000Y314000D02*
D03*
Y304000D02*
D03*
X304000Y314000D02*
D03*
Y304000D02*
D03*
X294000Y314000D02*
D03*
X254000Y304000D02*
D03*
X294000D02*
D03*
X284000Y314000D02*
D03*
Y304000D02*
D03*
X274000Y314000D02*
D03*
Y304000D02*
D03*
X264000Y314000D02*
D03*
Y304000D02*
D03*
X254000Y314000D02*
D03*
X244000D02*
D03*
Y304000D02*
D03*
X234000Y314000D02*
D03*
Y304000D02*
D03*
X224000Y314000D02*
D03*
Y304000D02*
D03*
X214000D02*
D03*
Y314000D02*
D03*
D26*
X439000Y146158D02*
D03*
X381000Y195000D02*
D03*
Y165000D02*
D03*
X411000Y195000D02*
D03*
X176800Y164015D02*
D03*
Y183700D02*
D03*
X369000Y279000D02*
D03*
X359000D02*
D03*
X349000D02*
D03*
X339000D02*
D03*
X329000D02*
D03*
X363300Y226700D02*
D03*
Y216700D02*
D03*
X296415Y145000D02*
D03*
X316100D02*
D03*
X256500Y211500D02*
D03*
X246500Y201500D02*
D03*
X256500D02*
D03*
X246500Y191500D02*
D03*
X256500D02*
D03*
X246500Y181500D02*
D03*
X256500D02*
D03*
X246500Y171500D02*
D03*
X256500Y161500D02*
D03*
Y171500D02*
D03*
X266500Y161500D02*
D03*
Y171500D02*
D03*
X276500Y161500D02*
D03*
Y171500D02*
D03*
X286500Y161500D02*
D03*
Y171500D02*
D03*
X296500Y161500D02*
D03*
Y171500D02*
D03*
X306500Y161500D02*
D03*
Y171500D02*
D03*
X316500Y161500D02*
D03*
Y171500D02*
D03*
X326500Y161500D02*
D03*
Y171500D02*
D03*
X336500Y161500D02*
D03*
X346500Y171500D02*
D03*
X336500D02*
D03*
X346500Y181500D02*
D03*
X336500D02*
D03*
X346500Y191500D02*
D03*
X336500D02*
D03*
X346500Y201500D02*
D03*
X336500D02*
D03*
X346500Y211500D02*
D03*
X336500D02*
D03*
X346500Y221500D02*
D03*
X336500D02*
D03*
X346500Y231500D02*
D03*
X336500D02*
D03*
X346500Y241500D02*
D03*
X336500D02*
D03*
X346500Y251500D02*
D03*
X336500Y261500D02*
D03*
Y251500D02*
D03*
X326500Y261500D02*
D03*
Y251500D02*
D03*
X316500Y261500D02*
D03*
Y251500D02*
D03*
X306500Y261500D02*
D03*
Y251500D02*
D03*
X296500Y261500D02*
D03*
Y251500D02*
D03*
X286500Y261500D02*
D03*
Y251500D02*
D03*
X276500Y261500D02*
D03*
Y251500D02*
D03*
X266500Y261500D02*
D03*
Y251500D02*
D03*
X256500Y261500D02*
D03*
X246500Y251500D02*
D03*
X256500D02*
D03*
X246500Y241500D02*
D03*
X256500D02*
D03*
X246500Y231500D02*
D03*
X256500D02*
D03*
X246500Y221500D02*
D03*
X256500D02*
D03*
X316685Y278000D02*
D03*
X297000D02*
D03*
X256515D02*
D03*
X276200D02*
D03*
X229000Y226315D02*
D03*
Y246000D02*
D03*
X218000Y174000D02*
D03*
Y184000D02*
D03*
Y194000D02*
D03*
Y204000D02*
D03*
Y214000D02*
D03*
Y224000D02*
D03*
Y234000D02*
D03*
Y244000D02*
D03*
Y254000D02*
D03*
X188000Y164000D02*
D03*
Y174000D02*
D03*
Y184000D02*
D03*
Y194000D02*
D03*
Y204000D02*
D03*
Y214000D02*
D03*
Y224000D02*
D03*
Y234000D02*
D03*
Y244000D02*
D03*
Y254000D02*
D03*
X363300Y165015D02*
D03*
Y184700D02*
D03*
X207500Y142000D02*
D03*
X439000Y132500D02*
D03*
X449000D02*
D03*
D27*
X439000Y156000D02*
D03*
X246500Y211500D02*
D03*
D28*
X411000Y165000D02*
D03*
X379000Y279000D02*
D03*
X218000Y164000D02*
D03*
D29*
X300500Y184000D02*
D03*
X169500Y280000D02*
D03*
X439500D02*
D03*
X439000Y176500D02*
D03*
X209500Y134500D02*
D03*
X269500Y198000D02*
D03*
X306000Y198500D02*
D03*
X269500Y226000D02*
D03*
X306500D02*
D03*
X439500Y260000D02*
D03*
X345500D02*
D03*
Y162000D02*
D03*
X261500Y156000D02*
D03*
X208000Y194000D02*
D03*
X195000Y139000D02*
D03*
X191000Y144000D02*
D03*
X239000Y199500D02*
D03*
Y188500D02*
D03*
X218000Y137000D02*
D03*
X339000Y134000D02*
D03*
X233000D02*
D03*
X347000Y140000D02*
D03*
X159000Y151500D02*
D03*
X200000Y135000D02*
D03*
X247000Y160000D02*
D03*
D30*
X204500Y194000D02*
D03*
X201000D02*
D03*
D31*
X310500Y184000D02*
D03*
Y187500D02*
D03*
Y191000D02*
D03*
X320500Y184000D02*
D03*
Y187500D02*
D03*
Y191000D02*
D03*
M02*
